<svg xmlns="http://www.w3.org/2000/svg" xmlns:xlink="http://www.w3.org/1999/xlink" width="1080" zoomAndPan="magnify" viewBox="0 0 810 809.999993" height="1080" preserveAspectRatio="xMidYMid meet" version="1.0"><path stroke-linecap="butt" transform="matrix(1.39535, 0, 0, 1.39535, 139.379176, 165.139245)" fill="none" stroke-linejoin="miter" d="M 97.172414 116.296816 C 97.172414 104.390645 97.735109 92.484474 96.749693 80.578303 C 95.999434 71.717962 90.422878 67.311587 83.530568 67.124022 C 76.405902 67.124022 71.436832 72.140683 69.891522 81.140998 C 68.155847 91.123929 66.610536 101.109659 65.110017 111.280155 C 64.312166 117.23464 62.579291 122.438866 55.874546 123.561456 C 49.360166 124.922001 43.78081 122.063736 41.11011 116.296816 C 38.766949 110.905025 37.078865 104.765775 36.656144 98.998854 C 36.281014 88.078099 37.453995 77.109753 37.453995 66.186198 C 37.453995 60.422077 35.155625 55.405416 28.968783 54.092462 C 22.454403 52.547151 18.423158 56.578396 15.749658 61.922596 C 14.764243 63.655471 13.829218 65.578711 13.454088 67.499152 C 11.155718 80.015608 7.499603 92.484474 7.124473 104.95334 C 5.954292 132.796927 24.562408 152.578023 52.218431 154.688828 C 57.985351 155.061158 58.923175 157.171963 58.73561 162.188624 C 58.360481 169.078134 58.360481 175.967644 59.530662 182.71998 C 60.843616 190.032211 66.047841 194.813716 73.735202 195.561176 C 81.610128 196.171462 87.374249 192.140217 90.047748 185.203115 C 92.155754 180.234046 93.516299 174.469925 94.078993 169.078134 C 95.624304 151.405043 96.562129 133.922316 97.922674 116.296816 C 97.547544 116.296816 97.359979 116.296816 97.172414 116.296816 Z M 147.627368 74.436253 C 119.408651 98.998854 113.64453 141.046982 134.035913 172.35912 C 140.737858 182.71998 150.160894 188.108971 162.629759 188.108971 C 175.095825 188.108971 186.254536 184.640421 196.049902 176.765495 C 210.442008 164.671759 220.612504 149.672167 225.394009 131.248817 C 234.817045 94.592479 215.783408 66.936457 179.314636 64.078192 C 167.033335 62.342517 156.675274 66.748892 147.627368 74.436253 Z M 170.879815 93.797428 C 173.973236 90.748799 176.831501 91.123929 179.924921 94.404915 C 196.612597 111.09259 196.237467 135.655192 178.942305 151.592608 C 168.76901 161.015644 160.518955 159.279969 155.689859 146.626338 C 154.004574 141.797242 152.831594 137.015737 151.658613 132.421797 C 154.192139 117.23464 159.95626 104.20308 170.879815 93.797428 Z M 341.972583 116.296816 C 341.972583 104.390645 342.535278 92.484474 341.549862 80.578303 C 340.799602 71.717962 335.223047 67.311587 328.330737 67.124022 C 321.206071 67.124022 316.237001 72.140683 314.69169 81.140998 C 312.956015 91.123929 311.407905 101.109659 309.910186 111.280155 C 309.112335 117.23464 307.37666 122.438866 300.674715 123.561456 C 294.160334 124.922001 288.580979 122.063736 285.910279 116.296816 C 283.564318 110.905025 281.879034 104.765775 281.456313 98.998854 C 281.081183 88.078099 282.254163 77.109753 282.254163 66.186198 C 282.254163 60.422077 279.955794 55.405416 273.768952 54.092462 C 267.251772 52.547151 263.220527 56.578396 260.549827 61.922596 C 259.564411 63.655471 258.629386 65.578711 258.254257 67.499152 C 255.955887 80.015608 252.299771 92.484474 251.924642 104.95334 C 250.751661 132.796927 269.362577 152.578023 297.018599 154.688828 C 302.785519 155.061158 303.720544 157.171963 303.53298 162.188624 C 303.160649 169.078134 303.160649 175.967644 304.33083 182.71998 C 305.643784 190.032211 310.84801 194.813716 318.535371 195.561176 C 326.410296 196.171462 332.174417 192.140217 334.847917 185.203115 C 336.955922 180.234046 338.316467 174.469925 338.879162 169.078134 C 340.424473 151.405043 341.362297 133.922316 342.722842 116.296816 C 342.347713 116.296816 342.160148 116.296816 341.972583 116.296816 Z M 341.972583 116.296816 " stroke="#000000" stroke-width="7.2" stroke-opacity="1" stroke-miterlimit="4"/><path stroke-linecap="butt" transform="matrix(1.39535, 0, 0, 1.39535, 71.311867, 517.046658)" fill="none" stroke-linejoin="miter" d="M 32.8663 21.043816 C 30.296382 14.781388 24.473472 11.813944 16.856098 12.813357 C 12.099788 13.317262 8.955977 15.559642 7.449859 16.626243 C 6.657607 17.186138 6.386058 17.407297 5.988532 17.242127 L 5.660994 17.132948 L 5.605004 16.735422 C 5.428637 14.781388 4.703573 14.493042 3.922519 14.493042 C 3.922519 14.493042 3.869329 14.493042 3.869329 14.493042 C 3.077078 14.493042 2.296024 14.781388 2.242834 16.735422 C 2.242834 21.780078 2.461193 26.813536 2.746739 31.749012 C 2.911908 35.49471 3.130268 39.307596 3.186257 43.053295 C 3.186257 44.285065 3.186257 45.516834 3.186257 46.692614 C 3.130268 49.4389 3.130268 52.297164 3.471804 55.09944 C 3.580983 55.989673 4.087688 57.053474 5.551814 57.000284 C 5.988532 57.000284 7.273492 56.944294 7.505848 54.867083 C 7.561838 54.360378 7.505848 53.87047 7.505848 53.307775 C 7.449859 52.966239 7.449859 52.69469 7.449859 52.350355 C 7.449859 49.998795 7.449859 47.647235 7.449859 45.295675 L 7.449859 41.768336 L 8.174923 42.042684 C 14.958053 44.517421 21.217681 43.66918 27.438117 39.307596 C 34.330426 34.551287 36.066101 28.725578 32.8663 21.043816 Z M 28.613897 29.341462 C 28.504717 30.682411 27.782452 32.18573 26.878222 33.087161 C 23.350882 36.614501 19.428816 38.406165 15.447961 38.406165 C 13.096402 38.406165 10.814829 37.79028 8.449272 36.561311 C 7.561838 36.110595 8.174923 26.866726 8.230913 26.757546 C 8.790808 22.614322 9.569062 21.276172 12.768863 19.305341 C 16.133833 17.242127 20.439427 17.132948 23.748407 19.033792 C 27.328937 21.097006 28.958232 24.571155 28.613897 29.341462 Z M 67.263461 50.670669 C 66.468409 45.186496 65.636965 39.691125 64.788724 34.153761 C 64.623555 32.815612 64.461185 31.242306 62.94107 30.95396 C 61.930459 30.735601 60.69869 31.351486 59.578899 31.569845 C 55.777211 30.231696 53.64401 30.284886 49.845122 32.583255 C 48.490175 33.428697 47.152026 34.42811 45.976246 35.49471 C 42.10737 39.02205 40.766421 44.954139 42.611276 49.38571 C 44.582107 54.03284 49.176047 55.768515 53.59082 53.416955 C 55.108136 52.638701 56.449085 51.448923 57.734045 50.273143 C 58.744656 49.38571 59.52291 48.20993 60.6455 46.868981 C 60.810669 47.538055 60.810669 47.991571 60.987036 48.319109 C 61.821279 50.670669 62.613531 53.075419 63.722124 55.317799 C 64.00767 55.933684 65.457799 56.549568 66.087681 56.331209 C 66.812745 56.042863 67.48182 54.923073 67.644189 54.088829 C 67.809358 53.022229 67.42583 51.846449 67.263461 50.670669 Z M 58.963015 38.96606 C 57.787235 42.4934 55.833201 45.570024 52.974936 47.991571 C 51.745966 48.988184 50.351827 50.054784 48.722532 49.16735 C 47.096036 48.26312 46.933667 46.580635 46.81049 45.295675 C 46.877677 40.813714 51.580797 35.5479 55.614841 35.097185 C 58.34713 34.769646 59.811256 36.452131 58.963015 38.96606 Z M 94.922282 32.471276 C 94.866293 31.802202 93.690513 30.90077 92.965449 30.791591 C 92.282377 30.682411 91.448133 31.516655 90.779058 32.020561 C 90.546702 32.18573 90.490712 32.636445 90.546702 32.583255 C 88.029973 32.583255 85.678413 32.18573 83.545212 32.636445 C 76.218984 34.209751 74.029794 41.31762 75.49392 47.428876 C 77.106418 54.088829 84.107907 56.331209 89.438109 52.078805 C 89.765648 51.790459 90.053994 51.51891 90.779058 50.956216 C 89.656468 56.27522 88.029973 60.636803 83.492022 63.385888 C 82.820148 63.780615 82.207063 64.220132 81.591178 64.724038 C 79.525165 66.406523 78.842093 68.142198 79.746324 69.483147 C 80.633757 70.782104 82.548599 70.835294 84.844169 69.606324 C 89.314932 67.075598 92.514733 63.548258 94.306398 58.682769 C 97.492201 49.998795 95.700537 41.208441 94.922282 32.471276 Z M 86.526654 47.991571 C 85.516043 48.932194 84.393454 49.780436 82.820148 49.097364 C 81.249642 48.481479 80.415398 47.196519 80.197039 45.570024 C 79.292808 39.131229 83.833558 35.5479 90.328342 37.73709 C 89.821637 41.4268 89.603278 45.186496 86.526654 47.991571 Z M 108.863672 43.834349 C 111.775127 43.778359 114.633392 43.778359 117.544847 43.725169 C 121.181366 43.61599 123.367757 42.165861 124.039631 39.581945 C 124.997052 35.60389 122.863851 31.460666 118.885796 29.72499 C 114.686582 27.880136 110.764516 28.781567 108.029428 32.252917 C 104.885617 36.163785 103.379499 40.648545 103.544668 45.516834 C 103.653848 49.945605 105.843038 53.416955 109.983463 55.550155 C 114.182676 57.669359 118.555458 57.451 122.698682 55.264609 C 123.423746 54.867083 124.202001 53.638113 124.039631 53.022229 C 123.874462 52.406344 122.522315 51.790459 121.741261 51.737269 C 120.170755 51.62809 118.611447 52.008818 117.094131 52.187985 C 111.940296 52.74788 107.973439 48.932194 108.589324 44.010716 C 108.754493 43.901536 108.807683 43.834349 108.863672 43.834349 Z M 112.444202 34.044582 C 113.852338 32.745625 115.918351 32.815612 117.886383 33.991392 C 119.280522 34.878826 120.403112 37.286375 119.731238 38.638522 C 119.445691 39.184419 118.502268 39.691125 117.819196 39.747114 C 114.974928 40.032661 112.116663 40.08865 109.026042 40.19783 C 109.765103 37.84627 110.655337 35.65708 112.444202 34.044582 Z M 188.8363 48.319109 C 187.769699 47.03415 186.815078 45.640011 185.692488 44.341054 C 178.870166 36.272965 172.033846 28.221672 165.088346 20.262762 C 163.912566 18.924612 162.123701 18.020382 160.494406 17.076958 C 159.483795 16.517063 158.540372 17.076958 158.198836 18.185551 C 157.924487 18.924612 157.74812 19.702867 157.74812 20.481121 C 157.241415 30.844781 156.748707 41.208441 156.353981 51.5721 C 156.297992 52.74788 156.407171 53.92366 156.695517 55.04625 C 157.023056 56.331209 157.871297 57.109464 159.265436 57.053474 C 160.659575 56.944294 161.27546 55.989673 161.561006 54.757904 C 161.670186 54.198009 161.670186 53.582124 161.670186 53.022229 C 161.779365 44.066705 161.891344 35.097185 161.958532 26.197651 C 161.958532 25.637756 162.067711 25.075061 162.123701 24.187627 C 163.750196 26.36002 165.035156 28.330851 166.482485 30.119717 C 173.100446 37.95545 179.760399 45.74919 186.417553 53.582124 C 186.924258 54.198009 187.593333 54.813893 188.276405 55.264609 C 190.504787 56.658748 192.803157 55.824504 193.539419 53.307775 C 193.922947 52.008818 193.978937 50.723859 194.155304 49.4389 C 195.440263 38.00864 194.102114 26.592377 194.264484 15.218106 C 194.264484 13.879957 193.648599 12.866547 192.240462 12.704177 C 190.902313 12.483018 189.95889 13.264072 189.617354 14.493042 C 189.275818 15.901179 189.110648 17.351307 189.166638 18.745446 C 189.329008 23.177016 189.888903 27.605787 189.95889 32.020561 C 190.01208 37.395554 189.617354 42.834936 189.452184 48.20993 C 189.219828 48.26312 189.001469 48.319109 188.8363 48.319109 Z M 224.952338 40.866904 C 224.445633 36.956037 219.235808 32.18573 215.38093 32.12974 C 208.38224 31.911381 202.105815 37.79028 202.105815 44.73578 C 202.161805 50.163964 205.182439 53.87047 210.501444 54.867083 C 218.172008 56.27522 226.018938 48.604656 224.952338 40.866904 Z M 214.137963 49.38571 C 210.501444 50.779849 207.136474 48.428289 207.083284 44.573411 C 207.027294 40.592556 210.952159 36.505321 214.986204 36.452131 C 215.599289 36.452131 216.215174 37.230385 216.775069 37.681101 C 220.755924 40.539366 220.590755 46.868981 214.137963 49.38571 Z M 252.55517 53.472944 C 252.115653 51.62809 250.545147 52.406344 249.260187 52.515524 C 247.180177 52.638701 244.884606 53.254585 243.381288 51.230564 C 241.082918 48.10075 240.579013 44.450234 240.973739 40.592556 C 241.807982 40.539366 242.533047 40.539366 243.258111 40.430186 C 245.226143 40.08865 247.292156 39.870291 249.204198 39.307596 C 249.820082 39.131229 250.545147 38.078626 250.489157 37.395554 C 250.489157 36.77967 249.643715 35.836246 249.027831 35.727067 C 247.468523 35.329541 245.842027 35.276351 244.268722 35.220362 C 243.258111 35.167172 242.314688 35.276351 241.082918 35.329541 C 241.466446 32.692435 241.754792 30.284886 242.082331 27.933326 C 242.258698 26.757546 242.258698 25.637756 240.850562 25.307418 C 239.565602 25.021871 238.840538 25.923302 238.499002 27.045892 C 237.939107 28.834757 237.379212 30.682411 237.051673 32.583255 C 236.710137 34.551287 236.710137 36.505321 233.851872 36.614501 C 233.345167 36.614501 232.401743 37.95545 232.401743 38.694511 C 232.457733 39.307596 233.524333 39.979471 234.246598 40.430186 C 234.644124 40.701735 235.313198 40.592556 235.369188 40.648545 C 236.203432 44.394244 236.544968 47.991571 237.829927 51.230564 C 240.016318 56.781925 244.719437 58.450412 250.203611 56.16604 C 251.432581 55.659335 253.005886 55.208619 252.55517 53.472944 Z M 302.847755 18.868623 C 304.53024 19.033792 306.103545 19.758856 307.769233 19.812046 C 308.673464 19.812046 310.011613 19.142972 310.518319 18.361918 C 311.243383 17.298117 310.574308 16.122337 309.451718 15.450463 C 308.726654 14.946557 307.89241 14.602222 307.046968 14.274683 C 301.671975 12.362641 296.190601 12.306652 290.63924 13.154893 C 289.068734 13.373252 287.386249 13.989137 286.0453 14.890568 C 284.144456 16.066348 284.365615 17.967192 286.210469 19.196162 C 286.661185 19.484508 287.002721 20.153582 287.058711 20.660288 C 287.33026 27.933326 287.618606 35.167172 287.836965 42.44021 C 287.946144 46.309086 287.836965 50.163964 288.069321 53.97965 C 288.125311 55.989673 289.41027 57.053474 290.913589 57.053474 C 292.374915 57.000284 293.441516 55.768515 293.550695 53.81448 C 293.606685 53.131408 293.550695 52.515524 293.550695 51.846449 C 293.550695 48.481479 293.550695 45.186496 293.441516 41.824325 C 293.441516 40.592556 293.771854 40.14184 295.070811 40.032661 C 298.869699 39.691125 302.738575 39.363586 306.540263 38.856881 C 309.398528 38.462155 310.859855 36.956037 310.574308 35.043995 C 310.299959 33.143151 308.564284 32.308907 305.652829 32.636445 C 301.562795 33.087161 297.47556 33.537877 293.388326 33.991392 C 292.82843 28.890747 292.265736 23.736912 291.652651 18.076371 C 295.451539 18.308728 299.158045 18.473897 302.847755 18.868623 Z M 341.096994 40.866904 C 340.590288 36.956037 335.380464 32.18573 331.525586 32.12974 C 324.526896 31.911381 318.250471 37.79028 318.250471 44.73578 C 318.303661 50.163964 321.327095 53.87047 326.6433 54.867083 C 334.313864 56.27522 342.163594 48.604656 341.096994 40.866904 Z M 330.282618 49.38571 C 326.6433 50.779849 323.281129 48.428289 323.227939 44.573411 C 323.17195 40.592556 327.096815 36.505321 331.12806 36.452131 C 331.743945 36.452131 332.359829 37.230385 332.919725 37.681101 C 336.89778 40.539366 336.73541 46.868981 330.282618 49.38571 Z M 371.787648 51.448923 C 371.227753 46.02074 370.667857 40.592556 370.107962 35.167172 C 370.051973 34.551287 369.995983 33.703046 369.601257 33.30552 C 368.985372 32.692435 368.083941 32.020561 367.302887 32.020561 C 366.580623 32.020561 365.732381 32.745625 365.225676 33.428697 C 364.842148 33.868215 364.898138 34.660466 364.732968 35.276351 C 363.775548 38.694511 363.162463 42.221851 361.698337 45.404855 C 360.248208 48.713835 356.776858 48.660645 354.822824 45.516834 C 354.316119 44.79177 353.918593 43.834349 353.918593 43.000105 C 353.918593 40.032661 354.136952 37.065216 354.206939 34.100571 C 354.206939 33.143151 353.974583 32.020561 353.414687 31.351486 C 353.084349 30.95396 351.732202 30.95396 351.116318 31.242306 C 350.500433 31.569845 349.940538 32.471276 349.722179 33.196341 C 348.655578 37.012026 348.148873 40.922894 348.943925 44.79177 C 349.722179 48.988184 352.292098 51.62809 356.326142 52.85706 C 359.853482 53.87047 362.655757 52.571513 365.007317 49.945605 C 365.116497 49.780436 365.292864 49.727246 365.458033 49.657259 C 366.073917 51.286554 366.401456 53.075419 367.249697 54.539545 C 367.756402 55.317799 369.041362 55.989673 369.995983 56.042863 C 371.392922 56.042863 371.843637 54.757904 371.896827 53.416955 C 371.952817 52.80387 371.843637 52.131995 371.787648 51.448923 Z M 399.676026 38.00864 C 398.771796 35.889436 397.036121 34.153761 394.916917 33.428697 C 390.706506 31.967371 387.862238 34.42811 385.113153 36.67049 C 384.320901 37.339565 383.775003 38.296986 382.817583 39.416776 C 382.708403 37.84627 382.761593 36.614501 382.476047 35.438721 C 382.420057 35.276351 382.366867 35.097185 382.201698 34.934815 C 381.585813 34.209751 380.519213 34.209751 380.015307 35.043995 C 379.906128 35.167172 379.850138 35.276351 379.796948 35.438721 C 379.564592 36.614501 379.564592 37.84627 379.564592 39.02205 C 379.455412 42.944116 379.399423 46.815791 379.290243 50.723859 C 379.290243 51.955628 379.850138 52.85706 381.135098 53.022229 C 382.476047 53.254585 383.268298 52.515524 383.651827 51.286554 C 383.884183 50.723859 383.828193 50.054784 384.046553 49.548079 C 385.278322 46.580635 386.344922 43.50681 387.918228 40.701735 C 388.587302 39.416776 390.146611 38.406165 391.554747 37.681101 C 392.948886 36.902847 394.628571 37.518731 395.082087 39.07524 C 395.695172 40.922894 395.96952 42.944116 396.257866 44.900949 C 396.599402 47.361689 396.761772 49.836425 397.09211 52.241175 C 397.324467 53.416955 397.993541 54.430365 399.38768 54.360378 C 400.795817 54.251199 401.355712 53.254585 401.464892 52.008818 C 401.862417 47.196519 401.574071 42.44021 399.676026 38.00864 Z M 432.035168 15.506452 C 431.419283 16.010358 430.53185 16.393886 430.299493 17.009771 C 429.859975 18.473897 429.574429 20.044403 429.465249 21.603711 C 429.123713 26.250841 428.958544 30.95396 428.684196 35.945426 C 428.289469 35.5479 428.07111 35.329541 427.835954 35.167172 C 422.682119 30.394065 414.793196 31.460666 411.596195 37.681101 C 410.255246 40.307009 409.586171 43.341641 409.079466 46.253096 C 408.805117 47.594045 409.297825 49.27653 409.91371 50.561489 C 412.15609 55.155429 419.10159 57.000284 423.857899 54.307188 C 425.266036 53.526134 426.550995 52.638701 428.1243 51.62809 C 428.23348 52.966239 428.23348 54.088829 428.398649 55.155429 C 428.561019 56.331209 429.30008 57.109464 430.53185 57.165453 C 431.816809 57.165453 432.539074 56.384399 432.71824 55.155429 C 432.82742 54.757904 432.82742 54.307188 432.82742 53.92366 C 432.936599 41.768336 433.045779 29.615811 433.045779 17.460487 C 433.045779 16.844602 432.376704 16.175527 432.035168 15.506452 Z M 424.596961 48.10075 C 422.861286 49.220541 421.34397 50.833039 419.10159 50.614679 C 414.630827 50.561489 413.113511 48.769825 413.891765 44.517421 C 414.180111 43.165274 414.630827 41.824325 415.246711 40.592556 C 416.584861 37.73709 418.485705 36.614501 421.178801 36.956037 C 424.420594 37.339565 426.100279 38.856881 426.89533 42.042684 C 426.89533 42.165861 426.89533 42.275041 426.948521 42.38422 C 427.673585 46.02074 427.673585 46.076729 424.596961 48.10075 Z M 443.409439 51.339744 C 441.508595 51.121385 440.607163 52.078805 440.441994 54.142019 C 440.388804 55.550155 441.276238 56.549568 442.684374 56.658748 C 444.025323 56.725935 445.760998 54.99026 445.870178 53.307775 C 445.923368 51.5721 444.585219 51.448923 443.409439 51.339744 Z M 456.177848 51.339744 C 454.277004 51.121385 453.375573 52.078805 453.210404 54.142019 C 453.154414 55.550155 454.044648 56.549568 455.452784 56.658748 C 456.790933 56.725935 458.529408 54.99026 458.638588 53.307775 C 458.691778 51.5721 457.353628 51.448923 456.177848 51.339744 Z M 456.177848 51.339744 " stroke="#000000" stroke-width="2.1" stroke-opacity="1" stroke-miterlimit="4"/></svg>