<svg xmlns="http://www.w3.org/2000/svg" viewBox="0 0 732.67 909.9"><defs><style>.a,.f{fill:#fdddc6;}.a,.b,.d,.j,.k{fill-rule:evenodd;}.b,.c{fill:#d6aa89;}.d{fill:#aa7c5b;}.e{fill:#3a291d;}.g{fill:#4f5559;}.h{fill:#2e3438;}.i{fill:#1a1e21;}.j{fill:#fff;}.k,.l{fill:#006891;}.m{fill:#eaeaea;}.n{fill:#efefef;}.o{fill:#bbbbbc;}.p{fill:#7a7b7b;}.q{fill:#7b3f4e;}.r{fill:#5b2e38;}.s{fill:#433947;}.t{fill:#302833;}.u{fill:#0f0814;}.v{fill:#381a1e;}</style></defs><path class="a" d="M663.93,689.18c-80.77-67.69-187.1-84.65-189.61-112.95a17.37,17.37,0,0,0-.27-1.9l.91-1-1.79-121.87c12.68-14.47,22.55-26.25,24.09-28.57,4.65-7,17.63-83.77,19.49-106.64,3.41-41.88,7.52-153.7,2.52-168.46-5.11-15.06-92.48-83.71-152.51-82-60.3,1.71-142.27,55.06-152.79,90.85-3.23,11-9.81,106-7.08,149.62,1.44,22.93,14.19,119.39,21.85,129.43,1.32,1.73,12.12,12.33,26,25.33h-.58L253.88,575c-8.59,32-97.45,46.75-180.27,107.32-32.93,24.09,97.19,134.47,286.54,128.2C566.7,803.64,683.58,705.65,663.93,689.18Z"/><path class="b" d="M413.05,515.81c2.05-4,1.58-10.63-1.66-13.3-7.7-6.36-80.54-3.13-91.45,0-4,1.14-9.2-5.75-10.23-7.48C294.62,469.77,279,430,276.42,422.12c-7.58-22.85-17.65-59.25-38.54-86.81-6.44-8.51-6.52-73.87,10.66-104.56,7.31-13.07-22.53-94.3-34.57-71.89-9.77,18.2-4.29,113.94-7.42,132.58-.29,1.73,3.52,41.13,4.7,43.87s6.22,53.28,6.22,53.28,10.49,47,11.27,49.33,20.75,20.39,20.75,20.39l11.69,10.09-4.08-3.32-3.25,87.42s22.08,23.86,51.08,42.1c4.51,13.32,11.93,30.09,13.19,31.73,3.34,4.35,7.89,2.26,10.57.83s-1.29-12.45-5.77-22.58c13.51,6.43,27.75,10.71,41.49,10.42,15.09-.31,34.09-9.39,52.14-20.78-5,10.6-14.28,31.36-11.31,33.89,4,3.42,7.33,3.24,8.37,1.13.8-1.66,11.89-31.34,16.7-44.24a476.33,476.33,0,0,0,46.05-37.37l-2.09-90.85ZM388.12,665c-2.88,3.54-9.08,25.92-24.74,26.07-12,.13-15.64-11-22.88-14.11a4.6,4.6,0,0,0-5.76,2.22c-1.11,2-2.22,11.86,2.65,14s8.85,4,11,4.71,7.09,4.29,11.8,5.67,5.87,2.22,10,0,9.34-4,13.05-6.14c5.4-3,14.4-29.11,12.19-32S389.21,663.63,388.12,665Zm158.37,40.31c-17.94,4.21-38.54-.22-56.7,2.3-5.39.75-4.51,7.69-.67,8.78,17.28,4.87,45.85,6,56.93-1.33C550.43,712.14,551.45,704.12,546.49,705.28Zm-307.22,9.53a186.78,186.78,0,0,1-47.15,0c-9.66-1.19-9.66,8.41-2.74,11.52s35.27,5.31,43.69,0S245,714,239.27,714.81Zm115.09,19.93c0,10.19,5.82,42.53,5.82,65.12,0,5,8,7.09,13.41,2.22s-3.19-68.67-5.81-72S354.36,724.29,354.36,734.74Z"/><path class="c" d="M210.65,390.1c2.65,0,5.76-1.65,6.36-4.41l.06-.28,0-.28c-1.75-9.94-3.25-20.08-4.7-29.88q-.58-3.88-1.15-7.74c-2.08-13.87-3.74-28.25-5-43.94l-.07-.73-.61-.36A1,1,0,0,1,205,302c-1.92-4.14-7.07-13.75-13.49-13.75a7.48,7.48,0,0,0-5.24,2.36c-2.6,2.51-3.47,6.77-4,10.61-1.37,10.31.52,21.28,2.55,30.65a199,199,0,0,0,10.77,34.37,167.2,167.2,0,0,0,7.69,16.14c.23.43.48,1,.75,1.51,1,2,2.18,4.59,4,5.61A5.38,5.38,0,0,0,210.65,390.1Z"/><path class="d" d="M210.64,343.09,199.79,320,190,305.55s-4.21-4.82-6.73-2.65-2.83,20.82,0,27.37,21.88,31.85,21.88,31.85l-5.59-14.59L193.8,329s2.19-10.78,1.43-11.54,2.69,2.51,2.69,2.51Z"/><path class="e" d="M208.4,299.82c-3-6.48-8.32-15.22-16.38-15.75-5.46-.36-9.56,3.81-11.58,8.44-5.19,11.91-2.16,27.43.4,39.61a194.52,194.52,0,0,0,18,50.31c2.59,4.94,4.72,11.3,11.14,11.5,5.63.17,9.29-3.47,9.8-8.89.32-3.41-5-3.38-5.32,0-.39,4.16-4.72,4.27-6.88,2-1.63-1.67-2.66-4.54-3.75-6.58a167.71,167.71,0,0,1-7.65-16.5A198.66,198.66,0,0,1,186,330.7c-1.95-9.27-3.5-19.13-2.44-28.63.37-3.26,1-7.14,3.06-9.83,6.61-8.69,14.74,4.91,17.22,10.26,1.44,3.11,6,.41,4.59-2.68Z"/><path class="e" d="M214.47,347.59c-2.6-7.39-20.83-55.49-32.59-45.16-1.93,1.69.9,4.5,2.82,2.82,5.21-4.58,24.28,38.72,25.93,43.4.85,2.4,4.7,1.37,3.84-1.06Z"/><path class="e" d="M193.5,312.67c-1.35,17,2.49,35.17,9.95,50.46,1.12,2.31,4.56.29,3.44-2a96,96,0,0,1-9.41-48.45c.21-2.56-3.78-2.54-4,0Z"/><path class="f" d="M514,390.1c-2.65,0-5.76-1.65-6.36-4.41l-.06-.28,0-.28c1.76-9.94,3.26-20.08,4.71-29.88.38-2.59.77-5.17,1.15-7.74,2.08-13.87,3.73-28.25,5-43.94l.07-.73.6-.36a1.05,1.05,0,0,0,.44-.52c1.92-4.14,7.07-13.75,13.49-13.75a7.48,7.48,0,0,1,5.24,2.36c2.6,2.51,3.47,6.77,4,10.61,1.37,10.31-.52,21.28-2.55,30.65A199.83,199.83,0,0,1,529,366.2a169.6,169.6,0,0,1-7.69,16.14c-.23.43-.48,1-.75,1.51-1,2-2.18,4.59-4,5.61A5.38,5.38,0,0,1,514,390.1Z"/><path class="b" d="M514.12,343.09,525,320l9.78-14.43s4.21-4.82,6.72-2.65,2.83,20.82,0,27.37-21.87,31.85-21.87,31.85l5.59-14.59L531,329s-2.2-10.78-1.43-11.54-2.7,2.51-2.7,2.51Z"/><path class="e" d="M520.83,302.5c2.48-5.35,10-18.47,16.91-10.64,2.2,2.49,2.9,6.42,3.3,9.61,1.27,9.95-.46,20.38-2.56,30.09a199.7,199.7,0,0,1-10.35,33.3,168,168,0,0,1-7.72,16.41c-1,1.81-2.52,6-4.44,7.08-2.47,1.4-6.83-.44-7.11-3.31-.34-3.37-5.66-3.41-5.32,0,.55,5.52,4.45,8.76,10,8.89,6.69.15,8.58-4.69,11.44-10a192.92,192.92,0,0,0,18.61-51c2.65-12.29,5.72-27.9.77-40-1.89-4.62-5.64-8.78-11-8.87-8.42-.14-14.08,9.12-17.15,15.74-1.43,3.09,3.15,5.79,4.59,2.68Z"/><path class="e" d="M514.13,348.65c1.65-4.69,20.71-48,25.92-43.4,1.93,1.68,4.76-1.13,2.82-2.82-11.76-10.34-30,37.77-32.59,45.16-.85,2.42,3,3.46,3.85,1.06Z"/><path class="e" d="M527.27,312.67a96,96,0,0,1-9.4,48.45c-1.12,2.29,2.31,4.32,3.44,2,7.46-15.29,11.3-33.45,10-50.46-.2-2.54-4.19-2.56-4,0Z"/><path class="b" d="M349.13,285.17S329.5,287,328.76,311.81c-.16,5.58-2.05,37-2.81,49.58-6.95,4.68-14.09,10.72-16,13.09-15.56,19.49,25.81.4,25.81.4l8.66-3.53-.79-1.59.79,0C349.92,369.78,349.13,285.17,349.13,285.17Z"/><path class="d" d="M382,376.05l-14.1,4.7-7.84-1.57s-25.39-11-25.07-9.4c3.53,17.24,31.73,60.33,59.54-1.56C395.38,366.43,382,376.05,382,376.05Z"/><path class="e" d="M335.39,358.09c-1.31,3.16-3.67,8.08-1.18,11.16,1.88,2.33,6.18,3.59,8.8,4.72,6.28,2.71,14.71,7.26,21.75,7,7.47-.3,16.19-4.74,22.92-7.68,2.45-1.07,6.32-2.29,7.8-4.74,2.24-3.71-.76-8.39-3.07-11.21-2.18-2.65-5.92,1.13-3.76,3.76,3.54,4.31,2.31,4.83-1.46,6.62-3,1.43-6.11,2.59-9.21,3.73-4.05,1.49-9.72,4.37-14.13,4.18-5-.23-11.1-3.37-15.68-5.22-2.47-1-6-2-8.14-3.67-.43-.34-1.89-.69-2.06-1.23-.1-.31,2.22-5.22,2.54-6,1.31-3.16-3.83-4.54-5.12-1.42Z"/><path class="e" d="M204.23,308.48c1.3,19.89,4.23,39.74,7.08,59.44,3.06,21.19,5.6,43.27,12,63.79,3.41,11,13.47,18.15,21.57,25.86,16.35,15.57,33,30.92,50.26,45.44,6.46,5.43,13,11,20.18,15.55,6.24,3.94,13.42,5,20.67,5.8a265.86,265.86,0,0,0,68.89-2.27c12.87-2.08,22.83-15.27,31.38-24.08,15.63-16.09,30.57-32.86,45.25-49.82,7.24-8.36,17.27-17.09,20.44-28,6.28-21.64,9.4-44.54,12.87-66.76,7.13-45.7,8.37-92.15,9.22-138.34.37-20,1.51-40.65-1.16-60.5-1.72-12.83-14.33-21.87-23.67-29.56a321,321,0,0,0-66-42.13c-23.24-11-48.66-19.58-74.7-17C329.37,68.81,301.12,80.42,276,95c-21.77,12.63-44.71,28.81-58.51,50.38-8.76,13.71-8.67,30.27-9.92,46-2.17,27.23-3.54,54.57-3.9,81.88-.15,11.73-.12,23.48.58,35.19.21,3.4,5.52,3.43,5.32,0-1.5-24.92-.5-50.05.68-75,1.05-22.14,2.14-44.45,5-66.43,2.36-18.11,15.64-31.75,29-43.26,22.26-19.21,49-34.18,76.77-43.82,25.32-8.81,50.78-12.2,76.88-5s50.43,20.48,72.8,35.44a299.5,299.5,0,0,1,27.78,20.81c5.75,4.91,12,10.14,16.42,16.36,2.8,3.93,3,8.43,3.31,13.14.66,8.93.74,17.92.78,26.87.1,25.23-.67,50.47-1.71,75.68-.84,20.16-1.44,40.49-3.66,60.56-2.52,22.88-6.51,45.71-10.87,68.31-2.31,12-3.2,26.24-11.17,36-11.65,14.23-23.9,28-36.24,41.64-12.95,14.3-25.93,29.18-40.69,41.66-4,3.38-6.86,4.86-12,5.64a283.39,283.39,0,0,1-30.8,2.57c-12.13.5-24.43.66-36.51-.7-7.55-.85-13.7-2.43-19.9-6.73-16.08-11.17-30.6-25-45-38.14-12.76-11.67-25.73-23.33-37.7-35.84-2.81-2.94-3.8-6.21-5-10.42-2.58-9.24-4.3-18.74-6-28.17-4.05-22.75-7.26-45.67-9.94-68.62-.87-7.5-1.74-15-2.23-22.57C209.33,305.09,204,305.06,204.23,308.48Z"/><path class="e" d="M295,527.2c8.21,32.22,17.9,65.29,31.79,95.6,1.07,2.33,4.51.3,3.44-2-13.74-30-23.26-62.77-31.39-94.64-.63-2.49-4.48-1.43-3.84,1.06Z"/><path class="e" d="M300,583.13a352.07,352.07,0,0,0,15.81,35c1.18,2.28,4.62.26,3.44-2a342.07,342.07,0,0,1-15.4-34c-.92-2.36-4.78-1.33-3.85,1.06Z"/><path class="e" d="M671.44,691.71c-44.89-38.24-100.09-62.12-153-86.92-9.11-4.27-18.27-8.53-27.09-13.39-3.88-2.14-10.73-5-12.87-9.17-2-3.89-1-12.29-1.11-16.85-.39-11.5-.62-23-.82-34.5-.46-25.07-.81-50.15-.84-75.23,0-3.42-5.32-3.43-5.32,0,0,22.46.34,44.93.7,67.38.21,12.35.44,24.69.8,37,.2,7.08-.18,14.66,1,21.66.77,4.47,4.26,7,7.84,9.5,6.95,4.77,14.72,8.43,22.28,12.1,24.5,11.91,49.45,22.87,73.79,35.14,31.87,16.07,63.59,33.77,90.87,57,2.59,2.2,6.37-1.54,3.76-3.76Z"/><path class="e" d="M71.29,686.55C117,651.89,170.11,629.6,221.47,605a243,243,0,0,0,23-12c3.62-2.23,8.56-5,10.15-9.27,1.75-4.67,1.05-11.3,1.23-16.18.4-10.59.63-21.19.84-31.78.48-24,.83-48.08.86-72.13,0-3.42-5.31-3.42-5.31,0,0,20.33-.31,40.65-.66,61-.19,11-.41,22.09-.73,33.13-.21,7.28.16,15-1,22.23-.62,4-4,5.87-7.39,8a212.13,212.13,0,0,1-21.29,11.28c-22.73,11-45.83,21.21-68.44,32.47-29.25,14.57-58.1,30.46-84.18,50.26-2.69,2,0,6.66,2.68,4.59Z"/><path class="e" d="M131.3,700.23c37.07,3.23,74.23,4.52,111.41,2.59,18.3-1,36.56-2.62,54.76-4.73,15.87-1.84,38.21-8.31,51.49,3.83,1.89,1.72,4.72-1.09,2.82-2.82-11.45-10.47-27.42-8.34-41.6-6.54-20.12,2.54-40.31,4.63-60.56,5.88-39.48,2.42-78.94,1.23-118.32-2.19-2.55-.23-2.54,3.76,0,4Z"/><path class="e" d="M359.15,705.26c8.26,4.36,15.17-2.06,22.22-5.9,10-5.46,22.05-4.18,33.1-4.2,19.74,0,39.54-.15,59.26.93,20.33,1.11,40.41,3.18,60.79,3,16.21-.16,32.46-.36,48.64-1.31,2.55-.15,2.57-4.13,0-4-15.64.91-31.35,1.11-47,1.28-20,.22-39.65-1.52-59.59-2.79-18.88-1.21-37.87-1.1-56.77-1.1-9,0-18.32-.55-27.27.54a35.21,35.21,0,0,0-13.16,4.2c-5.31,3-11.78,9.29-18.2,5.91-2.27-1.2-4.29,2.24-2,3.44Z"/><path class="e" d="M430.73,534.76A629.92,629.92,0,0,1,412.65,605c-.79,2.45,3.06,3.5,3.84,1.06a625.58,625.58,0,0,0,18.08-70.25c.49-2.51-3.35-3.58-3.84-1.06Z"/><path class="e" d="M426.91,585.39a273.23,273.23,0,0,1-10.23,28.91c-1,2.37,2.87,3.4,3.85,1.06a277.78,277.78,0,0,0,10.23-28.91c.72-2.46-3.13-3.52-3.85-1.06Z"/><path class="e" d="M357,752.09a441.85,441.85,0,0,1,5.3,46c.16,2.55,4.15,2.57,4,0A451.12,451.12,0,0,0,360.88,751c-.43-2.52-4.27-1.45-3.84,1.06Z"/><path class="e" d="M364.38,740.51q3.19,24.29,4.85,48.72c.17,2.55,4.16,2.57,4,0q-1.65-24.43-4.85-48.72c-.33-2.51-4.32-2.54-4,0Z"/><path class="g" d="M206.25,309.42c-6.36-34.51-11.61-69.28-15.61-103.39-.38-3.26-.79-6.53-1.2-9.8-1.63-13.16-3.32-26.76-3.43-40-.11-14.07,2.91-24.23,9.5-32l.83-1L196.1,122a17.69,17.69,0,0,1,.05-7.21l.55-2.66-2.19-.4c-.71-4.11,1.2-9.7,5.69-16.64a36.81,36.81,0,0,1,15.16-13.72l7-3.22-7.51-1.78a76.48,76.48,0,0,0-9.6-1.64,95.35,95.35,0,0,1,39.89-13l8.28-.77-7.2-4.17a37.41,37.41,0,0,0-19-5.17,38.51,38.51,0,0,0-8.76,1c5.62-6.27,14.1-13,24.44-13,.33,0,.65,0,1,0l8.66.35-7-5.15a90.69,90.69,0,0,0-10.95-7l-.77-.42c-2.4-1.32-5.68-3.12-8.9-3.12h-.31c5.57-5.54,15-9,22.23-10.13l.4,0,.36-.18a106.27,106.27,0,0,1,46-10.62c1.93,0,3.88.05,5.8.16,3,.17,6.18.49,9.65,1l.77.1.63-.29c13.42-1.1,25.78-1.63,37.81-1.63a326.48,326.48,0,0,1,50,3.61c36.71,5.65,62.94,16.37,80.19,32.79L482.67,43l.4-5.62c.4-5.6.26-13.4-4.76-19.43,13.24,5.5,19.07,21,20.07,34.33l5.08.89a18.35,18.35,0,0,0,1.48-5.49c2.52,5.56,1.44,14.08-1.36,19.83l-1.21,2.48,2.52,1.12c14.46,6.42,26.38,21,29.64,36.37,2.93,13.73,2.94,28.22,2.71,41.9-.29,17.08-1.53,35.07-3.88,56.62-3.45,31.65-7.89,65.19-16.85,96.82-.27-13.33-3.19-26.46-6-39.2-2.58-11.57-5.25-23.53-5.8-35.33-1.38-29.18-3.08-65.49-32-82.83l-1.68-1-1.46,1.32a41.89,41.89,0,0,1-24.76,10.44c-1.26.08-2.53.13-3.77.13a53.7,53.7,0,0,1-20.68-4.15l-.77-.31-.81.18a86.51,86.51,0,0,1-18.85,2.2c-12.28,0-23-3-31.86-9l-.95-.64-1.12.25a129.06,129.06,0,0,1-28.16,3.33c-15.72,0-29.47-3.51-40.87-10.43l-1.23-.75-1.29.62a46.33,46.33,0,0,1-20.08,4.82,44.74,44.74,0,0,1-13.84-2.26l-.9-.3-.88.6a1.18,1.18,0,0,0,0,.26h0c-30,6.65-33.81,42.81-34,58,0,3,.05,6,.15,8.95a104.32,104.32,0,0,1-.23,15c-.57,5.06-1.56,10.08-2.7,15.69-2.23,10.9-4.83,21.93-7.34,32.6-.83,3.52-1.66,7-2.48,10.54-.54,2.34-1.19,4.75-1.89,7.3C208.3,295.62,206.41,302.61,206.25,309.42Z"/><path class="h" d="M518,278.11a24,24,0,0,1-3.87-.32l-.93-.15-.49-2.74c-.08-.46-.75-4.15-.75-4.15l1.78.21a32.86,32.86,0,0,0,3.76.24h.35A27.56,27.56,0,0,0,521,271a4.34,4.34,0,0,0,.66-.14l2.21-.55-.39,2c-.29,1.49-.58,3-.88,4.45l-.18.91-.92.15A23.25,23.25,0,0,1,518,278.11Z"/><path class="h" d="M515.65,254.58a25.92,25.92,0,0,1-6.19-.71l-.82-.2-.16-.83q-1-5.15-2-10.29l-.37-1.93L508,241a44.42,44.42,0,0,0,8.49.9A27.54,27.54,0,0,0,527,240l2.16-.87-.35,2.31c-.54,3.44-1.09,6.88-1.67,10.31l-.13.78-.74.26A32.84,32.84,0,0,1,515.65,254.58Z"/><path class="h" d="M518.47,220.43a77.26,77.26,0,0,1-13.54-1.35l-1.15-.1-.13-1.15c-.21-3.83-.41-7.29-.69-10.8l-.14-1.74,1.71.32a61.6,61.6,0,0,0,11.47,1.1,59.52,59.52,0,0,0,15.86-2.17l1.89-.52-.22,1.95c-.4,3.68-.85,7.49-1.37,11.66l-.11.87-.85.24A46.61,46.61,0,0,1,518.47,220.43Z"/><path class="h" d="M515.87,205.42a58.8,58.8,0,0,1-11.9-1.24l-1.26-.08-.12-1.11c-.14-1.34-.28-2.67-.47-4-.36-2.56-.72-4.91-1.13-7.19l-.23-1.34,1.34-.2a75.16,75.16,0,0,0,31.77-12.62l2.27-1.57-.19,2.75c-.5,7.36-1.16,15.05-2,22.87l-.09.87-.85.26A59,59,0,0,1,515.87,205.42Z"/><path class="h" d="M501.83,68.45c-.6-.2-1.21-.4-1.82-.58l-1.14-.33.21-1.17a54.29,54.29,0,0,0,.77-7.46l0-.53.4-.4.08-.07a19.45,19.45,0,0,0,3.33-5.35l2.55.37a28.49,28.49,0,0,1-2.79,14.88l-.53,1Z"/><path class="h" d="M495.66,63.11a50.29,50.29,0,0,0-9.59-17.93c-.87-1.06-1.82-2.14-3-3.42l-.41-.45.07-.61c1-8,.39-14-1.8-18.66l-2-4.33,4,2.66c12.87,8.64,17,28.1,15.38,42.52Z"/><path class="h" d="M517.3,79.07l-.67-.57a46.88,46.88,0,0,0-17.87-9.57l-1.88-.51.21,1.94a40.94,40.94,0,0,1-7.63,28.56l-.35.49.14.58c1.6,6.89,1.41,13.06-.57,18.35a.66.66,0,0,1-.14.24l-.2.23-.08.3,0,0c-.54,3.69-3.57,6.71-6.56,9a1,1,0,0,1-.35.17,34.52,34.52,0,0,1-8.14,15.68l-1.07,1.19,1.36.83a65.82,65.82,0,0,1,6.14,4.31l.94.75.83-.86a1.06,1.06,0,0,1,.11-.09c9.29-6.79,15.42-19.13,20.34-29l.8-1.61C510.2,104.24,514.77,91.72,517,80l-1.27-.38,1.31.25Z"/><polygon class="h" points="475 144.78 471.22 140.5 465.71 128.04 451.55 105.68 437.05 88.5 424.87 73.77 409.75 56.79 399.66 48.62 384.64 36.57 369.94 25.08 381.01 25.08 405.35 33.35 420.12 36.88 437.83 45.34 455.1 55.97 467.69 66.16 478.92 79.09 486.76 90.53 493 102.5 493 122.1 481.9 140.04 475 144.78"/><path class="h" d="M266.79,61a90.46,90.46,0,0,0-13-.93c-.88,0-1.76,0-2.64,0l-.84,0-.38-.74a.85.85,0,0,0-.23-.27,37.67,37.67,0,0,0-22.44-7.43,39.14,39.14,0,0,0-4.83.3l-4,.5,2.87-2.77c6.94-6.71,14.17-10.11,21.5-10.11a24.69,24.69,0,0,1,6.5.88l.19,0a.5.5,0,0,0,.17,0l.68-.23.56.45c6.38,5.1,13.5,11.14,17.2,18.37l1.18,2.29Z"/><path class="h" d="M250.28,140.1a93.48,93.48,0,0,1-30.3-8.63c-2.14-1-4.27-2.33-6.33-3.59-4.67-2.84-9.49-5.77-14.61-5.77a12.46,12.46,0,0,0-1.73.11l-1.25.16-.23-1.24a14.49,14.49,0,0,1,.55-7.29.62.62,0,0,0,0-.31l-.57-1.3,1.33-.48a21.23,21.23,0,0,1,7.3-1.29c11,0,21,8.24,29.94,15.51,2.58,2.11,5,4.1,7.34,5.78a77.4,77.4,0,0,0,9.37,5.85Z"/><path class="h" d="M216.3,255.72c-2.43-1.37-5.65-1.82-8.5-2.22l-.31-.05a49.25,49.25,0,0,0-6.71-.57,22.27,22.27,0,0,0-2.64.14l-1.27.13-.19-1.26q-.81-5.52-1.59-11l-.21-1.54,1.55,0c7.62.12,15.83,3.48,22.52,9.22l.6.52-.17.78c-.33,1.47-.67,2.94-1,4.42l-.53,2.32Z"/><path class="h" d="M209.56,286.67c-.52-.09-1.05-.13-1.52-.17l-.48,0c-1.31-.12-2.72-.18-4.31-.19h-1.12l-.19-1.1c-.42-2.48-.82-5-1.23-7.44l-.26-1.57,1.6,0a26.28,26.28,0,0,1,9.68,1.9l1,.44s-1.23,5.29-1.62,7l-.29,1.23Z"/><path class="h" d="M191.06,209.88l.44-.45c2.71-2.83,7.88-4.6,15.81-5.43a45.88,45.88,0,0,1,4.92-.25,80.36,80.36,0,0,1,11.6,1l1.13.17V206c0,2.71,0,5.62,0,8.57l0,1.76-1.69-.5a40.3,40.3,0,0,0-11.7-1.64c-6.08,0-12.27,1.16-18.26,2.28l-1.39.26Z"/><path class="h" d="M204.7,301c-.7-3.95-1.4-7.9-2.07-11.86l-.28-1.58,1.61,0c.89,0,1.78,0,2.66.1h.17c.63,0,1.28.08,1.91.17l.37.08,1.32.31-.28,1.33-.54,2.09c-.8,3.05-1.63,6.21-2.25,9.35Z"/><path class="h" d="M187.77,180.62c-.22-2.25-.43-4.49-.63-6.75l-.06-.62.45-.44a44.18,44.18,0,0,1,31-12.69,44.88,44.88,0,0,1,12,1.62l1.54.42-.7,1.44c-.72,1.47-1.32,2.84-1.84,4.18a60.17,60.17,0,0,0-3,10.58l-.24,1.26-1.27-.2a83.13,83.13,0,0,0-12.81-1,78.94,78.94,0,0,0-22.73,3.36l-1.55.47Z"/><path class="h" d="M238.54,151.16c-12.08-6.69-25.12-10.37-36.72-10.37a47.47,47.47,0,0,0-12.73,1.66l-2.14.6.48-2.17a37,37,0,0,1,8.15-16.71l.29-.32.41-.1a13.05,13.05,0,0,1,2.91-.33c4.63,0,8.56,2.48,12.36,4.88,1.24.78,2.41,1.52,3.6,2.17a93.66,93.66,0,0,0,33.76,10.82l4.07.51-3.59,2a39.33,39.33,0,0,0-9.25,7.15l-.71.73Z"/><path class="h" d="M398.48,154.53c-10.35,0-19.53-2.32-27.3-6.88-10.52-6.18-16.43-15.48-22.69-25.32-1-1.63-2.07-3.27-3.14-4.9-7.53-11.5-18-25.93-32.28-35.55-9.76-6.57-21.89-10.74-38.18-13.12l-.09-2.61A111.57,111.57,0,0,1,299,63.53a119.92,119.92,0,0,1,39,6.53l.34.11.23.27c3.32,3.83,6.54,7.63,9.64,11.3l4,4.75c4.22,5,8.44,10.37,12.91,16.11,13.8,17.71,29.44,37.78,48.75,48l3.4,1.8-3.79.68A86.08,86.08,0,0,1,398.48,154.53Z"/><path class="h" d="M496.51,174.36a63.94,63.94,0,0,0-4.25-9.43,44.38,44.38,0,0,0-2.64-4.15l-.95-1.36,1.53-.64c8.59-3.57,16.38-9.92,24.26-16.66,7.65-6.55,14.92-13.07,19.71-20.82l2.1-3.4.35,4a270.57,270.57,0,0,1,.59,29.09c0,.79-.09,3.43-.09,3.43l0,.92-.86.3a.8.8,0,0,0-.26.16A79.49,79.49,0,0,1,498,175.21l-1.12.24Z"/><path class="h" d="M515.87,295.09c-.54-4.93-1.35-9.77-2.14-14.28l-.31-1.73,1.75.18a26.73,26.73,0,0,0,2.68.14c.82,0,1.66,0,2.5-.12l1.79-.17-.37,1.77c-1.08,5.15-2.15,9.86-3.29,14.38Z"/><path class="h" d="M205.26,74.77l8,1.86,12.11,3.17,11.11,5.77,12.17,7.94,10.17,9.32,14.52,14,16.38,16.88,11.82,7.95,16.81,5.47L350,148.46l12.85-3.77S333,144.78,297.3,111C249.08,65.32,205.26,74.77,205.26,74.77Z"/><path class="h" d="M193.74,110.47,253,140.1l10.86,1.53,15.46.47s15.94-2.69,12.73-3.46c-25.53-6.13-41-28.95-63.19-34.93C201.91,96.46,193.74,110.47,193.74,110.47Z"/><path class="i" d="M479.08,126c-3.51,20.2-24.37,31-43.55,28.49-21.24-2.71-38-17.57-51.47-33.21-26.35-30.67-49.79-65.09-82.37-89.78-15.89-12-34.28-20.67-54.58-20l1,3.72C285.81-2.95,327.19,5,362.43,24.89c22.62,12.76,45.76,30.12,61.6,51,1.53,2,5,0,3.45-2C415.43,58,399.18,44.6,383,33.19,358.5,16,329.9,2.56,299.64.85a108.81,108.81,0,0,0-53.54,10.9c-1.8.87-.9,3.78,1,3.72,44.45-1.38,78.09,41.27,104.11,71.85,24.1,28.33,50.39,74.47,93.7,71.49,17.81-1.23,34.85-13.6,38-31.73.44-2.51-3.41-3.59-3.85-1.06Z"/><path class="i" d="M419.59,150.45c-15.9,3.79-33.18,4.58-47.74-4-12-7-18-18.56-25.39-29.8-8.88-13.55-19.07-26.77-32.64-35.92-14.48-9.75-32-12.86-49-14.59l.53,3.91c23.28-7.63,49.18-6.69,72.26,1.22,2.44.83,3.48-3,1.06-3.85-23.69-8.12-50.49-9-74.38-1.21a2,2,0,0,0,.53,3.92c20.18,2,39.59,6.59,55.13,20.39,13.6,12.08,22,27.67,32.16,42.42,16,23.22,42.37,27.58,68.58,21.34,2.49-.6,1.44-4.44-1.06-3.85Z"/><path class="i" d="M366,143.44c-17.19,3.93-35.69,5.09-52.88.42-16-4.36-26.77-15.44-37.48-27.43-19.2-21.49-42.57-40.88-72.47-43.16l1,3.71c21.73-13.68,50-18.2,74.65-10.57,2.46.76,3.51-3.08,1.06-3.84-25.64-7.94-55.13-3.25-77.72,11a2,2,0,0,0,1,3.72c16.54,1.26,31.63,8.33,44.76,18.21,13.33,10,23.27,23,35,34.68,22.5,22.33,54.56,23.9,84.12,17.13,2.5-.57,1.45-4.42-1.06-3.84Z"/><path class="i" d="M272.12,61.64c-3.69-10.77-14.82-19.45-23.49-26.11-5.81-4.45-18-15-26.3-12.16l1.94,3.33c5.34-6.28,15.47-10.15,23.37-11.3,2.53-.37,1.46-4.21-1.06-3.85-8.59,1.26-19.36,5.55-25.13,12.33-1.18,1.39-.1,4,1.94,3.33,3.12-1.06,7.38,1.57,10,3a99.16,99.16,0,0,1,14.45,9.75c7.34,5.83,17.28,13.55,20.44,22.76.83,2.42,4.68,1.38,3.84-1.06Z"/><path class="i" d="M294.22,136.2c-11,5.43-22.69,7.1-34.33,2.81-9.39-3.46-17.42-9.83-25.21-15.93-12.11-9.48-26-20.54-41.73-12.43l2.93,1.19c-1.22-5.16,2.91-12.1,5.53-16.14,4.78-7.39,11.53-13,20.24-15,2.5-.56,1.44-4.41-1.06-3.84C210.91,79,203.28,85.47,198,93.69c-3.31,5.13-7.43,12.85-5.93,19.21a2,2,0,0,0,2.93,1.2c17.18-8.85,33.25,9.52,45.95,18.71,17.25,12.49,35.6,16.6,55.32,6.83,2.3-1.14.28-4.58-2-3.44Z"/><path class="i" d="M258.27,138.92c-14.44,3.31-24.75,14.89-30,28.34-6.6,16.93-4,34.57-4.76,52.21-.42,9.82-3.14,19.77-5.27,29.33-2.7,12.15-5.64,24.26-8.43,36.39-1.9,8.29-5.2,17.77-4.89,26.4.09,2.55,4.08,2.57,4,0-.34-9.6,3.57-20.23,5.71-29.46,3.34-14.4,6.88-28.76,9.83-43.24,1.08-5.28,2.14-10.6,2.75-15.95.91-8.08,0-16.3.08-24.42.35-22.2,7-50,32-55.75,2.5-.58,1.44-4.42-1.06-3.85Z"/><path class="i" d="M193.77,122.19c-8.32,9.53-10.51,21.7-10.42,34.05.14,16.68,2.71,33.55,4.65,50.1q6.23,53.11,16,105.72c.47,2.52,4.31,1.45,3.84-1.06q-9.18-49.5-15.27-99.5c-1.86-15.37-3.71-30.79-4.85-46.23-1-13.92-.84-29.17,8.84-40.26,1.68-1.92-1.13-4.75-2.82-2.82Z"/><path class="i" d="M310.22,5.64C354,2,400.65,2.79,442.14,18.94c21.65,8.43,47.34,23.87,52.2,48.67,2.12,10.81-1,21.4-7.37,30.23-1.5,2.08,2,4.08,3.44,2,12.69-17.63,10.12-39.14-3.32-55.55C466.2,18.79,430,8.44,398.8,3.64c-29.29-4.5-59.1-4.41-88.58-2-2.54.21-2.56,4.2,0,4Z"/><path class="i" d="M367.61,27.21c30.91,4.83,62.94,13.27,88.58,32,13.89,10.14,26.61,24.28,30.41,41.51,1.23,5.57,1.51,11.6-.52,17-.89,2.41,3,3.45,3.85,1.06,4.38-11.71-.26-25.66-6.23-35.9C471.89,62.6,451,49,429.89,40c-19.52-8.37-40.28-13.33-61.22-16.6-2.51-.39-3.59,3.45-1.06,3.84Z"/><path class="i" d="M446.27,69.93c18.77,7,35.8,30.21,39.46,49.61.47,2.52,4.32,1.46,3.84-1.06C487.44,107.14,481,96.61,474,87.64s-15.76-17.49-26.65-21.56c-2.41-.9-3.45,3-1.06,3.85Z"/><path class="i" d="M484,41c1.14-9.31.79-19.48-6.76-26.08l-1.94,3.33c19.45,5.67,24.56,32.69,20.78,49.45-.57,2.5,3.27,3.57,3.84,1.06,4.28-19-1.9-48-23.56-54.35-1.84-.54-3.46,2-1.94,3.33,6.75,5.9,6.6,15,5.59,23.26-.31,2.54,3.68,2.52,4,0Z"/><path class="i" d="M497.52,69.93c17.83,4.36,32.43,21.26,36,39,2.74,13.72,2.68,28.09,2.39,42-.76,36.54-5.16,73.18-11.5,109.15-2.84,16.12-6,32.29-10.79,48-.74,2.46,3.1,3.51,3.85,1.06,10-33.23,14.81-68.44,18.56-102.86,2.07-18.88,3.57-37.87,3.9-56.87.24-14.1.19-28.64-2.77-42.5-4-18.56-19.9-36.22-38.55-40.79-2.49-.61-3.55,3.24-1.06,3.85Z"/><path class="i" d="M471.09,147.57C499,164.1,500.64,199.2,502,228.37c1.27,27,13.07,53.25,11.77,80.56-.12,2.57,3.86,2.56,4,0,.55-11.4-1.81-23.12-3.77-34.29-2.09-12-4.64-23.86-6.88-35.8-2.47-13.13-1.82-26.79-3.67-40.06-1.65-11.83-4.16-24-10-34.53-4.79-8.62-11.9-15.13-20.32-20.12-2.21-1.32-4.22,2.13-2,3.44Z"/><path class="i" d="M193.8,113.19a20.72,20.72,0,0,0-.06,10.52,2,2,0,0,0,2.45,1.39c7-1.9,12.61,3.38,18.32,6.51a96.13,96.13,0,0,0,12.87,5.84,98.51,98.51,0,0,0,29.35,5.83c2.57.13,2.56-3.86,0-4a93.41,93.41,0,0,1-36.17-9c-8.1-3.93-15.85-11.58-25.43-9l2.45,1.39a13.13,13.13,0,0,1,.06-8.4c.63-2.49-3.22-3.55-3.84-1.06Z"/><path class="i" d="M250.07,37.93c-14-3.78-26.13,4.13-34.89,14.54-1.22,1.44-.1,3.91,1.94,3.33a35.26,35.26,0,0,1,31.37,5.71c2.07,1.52,4.06-1.94,2-3.45A39.12,39.12,0,0,0,216.06,52L218,55.28c7.79-9.25,18.29-16.93,31-13.5,2.48.67,3.54-3.18,1.06-3.85Z"/><path class="i" d="M434.68,89.05c7.95,7,14.29,16.06,20.14,24.83s12.18,18.56,14.94,29c.66,2.48,4.51,1.43,3.85-1.06-2.86-10.77-9.23-20.75-15.35-29.93s-12.59-18.4-20.76-25.63c-1.91-1.7-4.74,1.11-2.82,2.81Z"/><path class="i" d="M515.7,79.72c-2.6,13.61-8.1,26.73-14.25,39.07C496.34,129,490.24,142,480.72,149c-2.06,1.5-.07,5,2,3.44,9.74-7.11,16-19.5,21.35-30,6.66-13.11,12.69-27.14,15.47-41.65.48-2.5-3.37-3.58-3.85-1.06Z"/><path class="i" d="M488.93,160.68c9.82-3.6,18.55-10.87,26.4-17.58,8.36-7.16,17.91-15.57,22.49-25.85,1-2.32-2.4-4.35-3.44-2-4.24,9.5-12.88,17.2-20.57,23.92s-16.31,14.15-25.94,17.67c-2.39.88-1.35,4.73,1.06,3.85Z"/><path class="i" d="M497.59,178a82.41,82.41,0,0,0,40.3-20.39c1.9-1.73-.93-4.55-2.82-2.82a78.64,78.64,0,0,1-38.54,19.37c-2.51.49-1.45,4.33,1.06,3.84Z"/><path class="i" d="M501.17,191.73a76.63,76.63,0,0,0,35.76-14.64c2-1.51.05-5-2-3.44a74.46,74.46,0,0,1-34.81,14.24c-2.53.35-1.45,4.19,1.06,3.84Z"/><path class="i" d="M503.18,206.69a61,61,0,0,0,31.49-1.6c2.44-.78,1.4-4.63-1.06-3.85a56.77,56.77,0,0,1-29.37,1.61c-2.5-.52-3.57,3.32-1.06,3.84Z"/><path class="i" d="M504.1,221.58c9.7,1.71,19.13,2.35,28.67-.55,2.45-.74,1.41-4.59-1.06-3.84-8.88,2.69-17.52,2.14-26.55.55-2.51-.44-3.59,3.4-1.06,3.84Z"/><path class="i" d="M506.08,241.92c8.22,1.82,16.46,2.09,24.05-2,2.26-1.22.25-4.66-2-3.45-6.62,3.55-13.84,3.16-21,1.57-2.5-.55-3.56,3.29-1.06,3.85Z"/><path class="i" d="M508.07,256.25a32.76,32.76,0,0,0,19.41-1.13c2.38-.88,1.35-4.73-1.06-3.84a29.21,29.21,0,0,1-17.29,1.13c-2.48-.69-3.54,3.16-1.06,3.84Z"/><path class="i" d="M512.71,280.22a28.2,28.2,0,0,0,9.91.09c2.53-.42,1.46-4.27-1.06-3.85a22.4,22.4,0,0,1-7.79-.09c-2.51-.47-3.58,3.38-1.06,3.85Z"/><path class="i" d="M240,150.38c-15.21-8.61-35.72-14.35-52.94-8.76-2.43.79-1.39,4.65,1.06,3.85,16.2-5.27,35.56.26,49.87,8.35,2.24,1.27,4.25-2.17,2-3.44Z"/><path class="i" d="M232.18,159.4a47.1,47.1,0,0,0-46.84,11.79c-1.82,1.81,1,4.63,2.82,2.82a43.07,43.07,0,0,1,43-10.77c2.46.74,3.51-3.11,1.06-3.84Z"/><path class="i" d="M188.76,184.71a76.16,76.16,0,0,1,36.06-2.7c2.51.42,3.59-3.42,1.06-3.84a80.48,80.48,0,0,0-38.18,2.69c-2.43.78-1.39,4.63,1.06,3.85Z"/><path class="i" d="M225.58,202.29c-6.91-1-13.9-1.75-20.86-.65-4.64.73-12.49,2.44-15.58,6.42-1.55,2,1.25,4.85,2.82,2.82,3-3.91,10.89-5.11,15.49-5.59a67.37,67.37,0,0,1,17.07.85c2.51.37,3.59-3.47,1.06-3.85Z"/><path class="i" d="M192.65,219.28c10.89-2,20.68-4.08,31.48-.4,2.43.83,3.48-3,1.06-3.85-11.54-3.92-21.92-1.77-33.6.4-2.52.47-1.46,4.32,1.06,3.85Z"/><path class="i" d="M221,246.84c-7.26-6.29-17-10.84-26.86-10.14-2.54.18-2.56,4.17,0,4,8.76-.62,17.55,3.34,24,9,1.93,1.67,4.77-1.14,2.82-2.82Z"/><path class="i" d="M197.9,255.66a32,32,0,0,1,9.66.43c2.67.41,5.94.81,8.21,2.39,2.11,1.48,4.11-2,2-3.44-2.82-2-6.79-2.46-10.11-2.93a35.78,35.78,0,0,0-10.83-.29c-2.53.41-1.46,4.26,1.06,3.84Z"/><path class="i" d="M214.31,276.36c-4-2.17-9.27-3-13.79-2.86-2.56.07-2.57,4.05,0,4,3.81-.1,8.38.47,11.77,2.31,2.26,1.22,4.28-2.22,2-3.44Z"/><path class="i" d="M202.49,288.89q2,0,4,.12c.66,0,1.32.07,2,.17a5.39,5.39,0,0,0,.68.12c.48,0,.25.18-.06-.16,1.72,1.92,4.53-.91,2.82-2.82-1-1.08-3-1.1-4.27-1.22-1.72-.15-3.46-.21-5.19-.19-2.57,0-2.58,4,0,4Z"/><path class="i" d="M511.5,272a37.41,37.41,0,0,0,6.34.52,28.64,28.64,0,0,0,3.33-.22,14,14,0,0,1,2.08-.37c2.57.13,2.56-3.85,0-4-1.47-.08-3.06.51-4.58.57a32.09,32.09,0,0,1-6.11-.35c-2.51-.39-3.59,3.45-1.06,3.84Z"/><path class="i" d="M297.3,32.86c10.34-.2,20,5.6,28.81,10.45a233,233,0,0,1,22.42,14c15,10.63,28.33,23.22,41,36.5C401.87,106.71,413.74,120,427,132c10.63,9.57,23.36,21.14,38.77,18.06,2.51-.5,1.45-4.34-1.06-3.84-11.09,2.22-20.74-5-28.76-11.71-6.53-5.46-12.7-11.32-18.69-17.36C405,104.73,393.44,91.62,381,79.42a246.69,246.69,0,0,0-38-30.69C330,40.35,313.29,28.56,297.3,28.88c-2.56.05-2.57,4,0,4Z"/><path class="i" d="M501.29,58.81a19.71,19.71,0,0,0,5.11-13.47l-3.72,1c3.83,5.49,2.48,15.26-.45,20.88-1.19,2.27,2.25,4.29,3.44,2,3.57-6.84,5.12-18.21.45-24.9a2,2,0,0,0-3.71,1A15.49,15.49,0,0,1,498.47,56c-1.67,1.93,1.13,4.76,2.82,2.82Z"/><path class="b" d="M466.05,282.44c-1.58-9.6-7.83-12.54-7.83-12.54l-9.4-3.13-11-1.57-12.54-1.56-9.4,1.56-14.1,3.14s-7.77,3.91-14.1,14.1c-6.17,9.93-10,11.36-6.45,15.67s8.29-.31,12.63-1.09S416,288.71,416,288.71h14.22l15.79,4.7,7.9,7.83s6.69,4.87,9.48,0C469.69,290.27,466.51,285.18,466.05,282.44Z"/><polygon class="j" points="447.25 291.84 436.28 290.27 412.78 290.27 411.21 304.37 414.35 307.51 425.31 309.07 437.85 307.51 445.68 304.37 450.38 296.54 447.25 291.84"/><polygon class="k" points="437.85 288.72 423.75 290.28 415.91 290.28 417.48 299.69 425.31 304.38 433.15 302.82 439.42 294.98 437.85 288.72"/><path class="l" d="M415.17,292.25c.2,6.95,4.3,12.53,11.68,12.43,6.17-.09,12.44-4,13.85-10.25.38-1.67-2.18-2.38-2.56-.71-1.1,4.85-5.76,7.89-10.55,8.27-6.17.49-9.59-3.9-9.76-9.74-.05-1.7-2.71-1.71-2.66,0Z"/><path class="e" d="M396.58,297.81A61,61,0,0,1,426,291.53c7.43.24,16.77,1.5,22.09,7.3,2.32,2.52,6.07-1.25,3.76-3.76-5.93-6.46-15.67-8.26-24-8.77a66.61,66.61,0,0,0-33.94,6.92c-3.06,1.55-.37,6.13,2.68,4.59Z"/><path class="e" d="M411.73,306.3a14,14,0,0,1,2.46-13c2.19-2.6-1.55-6.37-3.76-3.76a19.47,19.47,0,0,0-3.82,18.14c.9,3.29,6,1.89,5.12-1.42Z"/><path class="e" d="M409.66,310.53c13.14,1.43,35.2,1.31,42.63-12.24,1.64-3-2.94-5.69-4.59-2.68-6.35,11.57-27,10.81-38,9.6-3.4-.37-3.37,5,0,5.32Z"/><path class="e" d="M407.74,308.4a39.4,39.4,0,0,0,21.88,23c2.33,1,4.37-2.41,2-3.44-9.29-4.06-16.6-11-20.06-20.63-.86-2.4-4.71-1.36-3.84,1.06Z"/><path class="e" d="M397.05,284.11c16.08-3.55,38.63-4.17,53.42,4.06,2.24,1.25,4.25-2.2,2-3.45-15.86-8.83-39.26-8.26-56.49-4.45-2.5.55-1.44,4.4,1.06,3.84Z"/><path class="b" d="M343.55,292.75c-.54-3.27-3-7-6-10.9-7.25-9.55-23.76-13.51-23.76-13.51l-14.1-3.14-9.4-1.56-12.54,1.56-11,1.57-9.4,3.13s-13.82,14.5-5.18,31.34c2.56,5,9.48,0,9.48,0l7.9-7.83,15.79-4.7h14.22s1.85,1.06,4.5,2.52h0s3.61,12.19,1.53,18.15c-5.88,16.84-26.51,20.52-21.93,21.94,16.61,5.15,35.25-14.11,39.17-12.54S346.12,299.58,343.55,292.75Z"/><polygon class="j" points="302.84 290.27 279.34 290.27 268.37 291.84 265.24 296.54 269.94 304.37 277.77 307.51 290.31 309.07 301.27 307.51 304.41 304.37 302.84 290.27"/><polygon class="k" points="291.87 290.28 277.77 288.72 276.2 294.98 282.47 302.82 290.31 304.38 298.14 299.69 299.71 290.28 291.87 290.28"/><path class="l" d="M299.12,292.25c-.18,6.29-4.38,10.27-10.71,9.7-4.51-.41-10.54-3.47-9.6-8.85.29-1.67-2.27-2.39-2.56-.71-1.22,6.93,5.23,11.4,11.45,12.14,8.09,1,13.85-4.24,14.08-12.28.05-1.71-2.61-1.71-2.66,0Z"/><path class="e" d="M321.72,293.22a66.59,66.59,0,0,0-33.93-6.92c-8.37.51-18.11,2.31-24,8.77-2.31,2.51,1.44,6.28,3.76,3.76,5.33-5.81,14.66-7.06,22.09-7.3A61,61,0,0,1,319,297.81c3,1.54,5.74-3,2.68-4.59Z"/><path class="e" d="M309,307.72a19.44,19.44,0,0,0-3.82-18.14c-2.21-2.61-5.95,1.16-3.76,3.76a13.94,13.94,0,0,1,2.46,13c-.91,3.31,4.22,4.72,5.12,1.42Z"/><path class="e" d="M306,305.21c-11.08,1.21-31.69,2-38-9.6-1.64-3-6.23-.33-4.59,2.68,7.43,13.54,29.51,13.67,42.63,12.24,3.37-.37,3.4-5.69,0-5.32Z"/><path class="e" d="M304,307.34C300.58,317,293.27,323.91,284,328c-2.34,1-.31,4.46,2,3.44a39.48,39.48,0,0,0,21.89-23c.86-2.42-3-3.46-3.85-1.06Z"/><path class="e" d="M319.63,280.27c-17.23-3.81-40.62-4.38-56.49,4.45-2.24,1.25-.23,4.7,2,3.45,14.78-8.23,37.33-7.61,53.41-4.06,2.5.56,3.57-3.29,1.06-3.84Z"/><path class="g" d="M469.63,275.65c-10.76-6.61-24.5-10-40.87-10a154.87,154.87,0,0,0-37.51,5c-3.3-3-6.62-10.57-5.61-14.67.93-3.75,6.91-5.72,10.86-7A86.85,86.85,0,0,1,416.94,245l.32,0c1.64-.12,3-.2,4.26-.24l2.07,0c4.79,0,5.7.59,6.47,4.25l.47,2.28,2.34-.18c1.08-.08,2.22-.13,3.37-.13A60.44,60.44,0,0,1,460,256.15a3.43,3.43,0,0,1-.27.26l-.75.69-.09,1c0,.05-.34,1.72-.34,1.72l1.24,1C464.32,264.58,469,269.23,469.63,275.65Z"/><path class="i" d="M392.48,270.05c-2.87-2.5-7.21-10.8-5.28-14.47s9-5.16,12.57-6.16a93.48,93.48,0,0,1,16.34-3,71,71,0,0,1,7.43-.38c4,0,4.9-.12,5.49,4.51.12,1,.82,2.13,2,2,9.37-1.11,20.45,1,29,5.08l-.92-2.25c.37-1.54-1.84,1.41-2.33,1.94a2,2,0,0,0,.4,3.13c5.41,4.14,11.16,9.15,11.26,16.49l3-1.73c-22.76-14.79-55.77-12.08-80.84-5.64-2.48.64-1.43,4.48,1.06,3.84,24-6.16,55.95-8.94,77.76,5.25a2,2,0,0,0,3-1.72c-.12-8.9-6.61-14.86-13.23-19.94l.41,3.13c.94-1,3-2.27,3.35-3.69a2,2,0,0,0-.91-2.25c-9.05-4.3-20.92-6.82-31-5.62l2,2c-1-8.14-3.87-8.7-11.58-8.47a91,91,0,0,0-25.66,4.41c-4.49,1.48-11.42,3.74-12.72,8.95s2.66,14,6.6,17.45C391.59,274.55,394.42,271.74,392.48,270.05Z"/><path class="i" d="M398.77,268.75c-1.38-6-1.94-16,3.54-20.29,2-1.57-.82-4.38-2.82-2.81-6.64,5.17-6.24,16.86-4.56,24.16.57,2.5,4.42,1.45,3.84-1.06Z"/><path class="i" d="M407,267.64c-.38-8,4.26-17.44,11.08-21.6,2.18-1.34.18-4.79-2-3.45-8,4.88-13.5,15.69-13.06,25,.13,2.56,4.11,2.57,4,0Z"/><path class="i" d="M418.1,266.32c1.94-5.92,7.7-12.48,13.9-13.93,2.5-.58,1.44-4.43-1.06-3.84-7.58,1.77-14.33,9.5-16.68,16.71-.8,2.45,3.05,3.5,3.84,1.06Z"/><path class="i" d="M435.79,267.74c7.78-4.35,14.54-7.62,23.73-7.46l-2-2,.69-1.22c-2.16,1.38-.16,4.83,2,3.45a2.5,2.5,0,0,0,1.29-2.23,2,2,0,0,0-2-2c-9.84-.17-17.37,3.33-25.74,8-2.24,1.25-.24,4.69,2,3.44Z"/><path class="g" d="M247.41,275.65c10.76-6.61,24.5-10,40.87-10a154.87,154.87,0,0,1,37.51,5c3.3-3,6.62-10.57,5.6-14.67-.92-3.75-6.9-5.72-10.85-7A86.85,86.85,0,0,0,300.1,245l-.32,0c-1.64-.12-3-.2-4.26-.24l-2.07,0c-4.79,0-5.7.59-6.47,4.25l-.48,2.28-2.33-.18c-1.08-.08-2.22-.13-3.37-.13a60.44,60.44,0,0,0-23.72,5.25,3.43,3.43,0,0,0,.27.26l.75.69.09,1c0,.05.34,1.72.34,1.72l-1.24,1C252.72,264.58,248,269.23,247.41,275.65Z"/><path class="i" d="M327.38,272.87c3.88-3.39,7.62-11.73,6.69-16.93-1-5.57-8.15-7.93-12.81-9.47a91.4,91.4,0,0,0-24.92-4.38c-7.93-.32-11.25,0-12.32,8.44l2-2c-10-1.2-21.91,1.32-31,5.62a2,2,0,0,0-.91,2.25c.34,1.42,2.41,2.7,3.35,3.69l.41-3.13c-6.63,5.09-13.11,11-13.23,19.94a2,2,0,0,0,3,1.72c21.81-14.19,53.74-11.41,77.76-5.25,2.48.64,3.55-3.2,1.06-3.84-25.07-6.44-58.08-9.15-80.84,5.64l3,1.73c.1-7.33,5.86-12.35,11.26-16.49a2,2,0,0,0,.4-3.13c-.49-.52-2.71-3.5-2.33-1.94l-.92,2.25c8.5-4,19.56-6.2,28.95-5.08,1.16.14,1.87-1,2-2,.53-4.2,1-4.44,4.81-4.51a68.81,68.81,0,0,1,7.32.3,94,94,0,0,1,17.13,3.1c3.54,1,10,2.37,12.18,5.73,2.42,3.73-1.81,12.21-4.89,14.9C322.62,271.74,325.45,274.55,327.38,272.87Z"/><path class="i" d="M322.11,269.81c1.68-7.31,2.08-19-4.56-24.16-2-1.57-4.84,1.24-2.82,2.81,5.47,4.27,4.92,14.27,3.54,20.29-.58,2.5,3.26,3.57,3.84,1.06Z"/><path class="i" d="M314.07,267.64c.44-9.35-5.07-20.17-13.06-25-2.19-1.34-4.2,2.11-2,3.45,6.82,4.16,11.46,13.64,11.08,21.6-.12,2.57,3.86,2.56,4,0Z"/><path class="i" d="M302.78,265.26c-2.35-7.21-9.1-14.94-16.68-16.71-2.5-.59-3.57,3.26-1.06,3.84,6.2,1.45,12,8,13.9,13.93.79,2.43,4.64,1.39,3.84-1.06Z"/><path class="i" d="M283.26,264.3c-8.37-4.68-15.89-8.18-25.74-8a2,2,0,0,0-2,2,2.52,2.52,0,0,0,1.29,2.23c2.17,1.38,4.17-2.07,2-3.45l.69,1.22-2,2c9.19-.16,15.93,3.1,23.73,7.46,2.24,1.25,4.26-2.19,2-3.44Z"/><path class="b" d="M380.84,451.85l-12.54,1.57h-11s-9-3.53-11-1.57-5.16,7.57-4.7,12.54c.39,4.31,42.89,7.83,43.87-3.14C386,456.57,380.84,451.85,380.84,451.85Zm54.84-34.47c-3.53-5.87-6.27-2.74-7.83-1.57a4.93,4.93,0,0,0-1.57,4.7c1.57,6.52,2.87,9.35,1.57,18.81-.5,3.57,8.91,3.78,11.75-1.57C442.22,432.81,439.21,423.26,435.68,417.38Z"/><path class="e" d="M306.92,431.61c37.62,7.94,77.93,6,115.34-2.18,3.34-.73,1.93-5.85-1.41-5.12-36.43,8-75.89,9.9-112.51,2.17-3.34-.7-4.77,4.42-1.42,5.13Z"/><path class="e" d="M419.12,422.18c5,2.92,5.16,9,3.1,13.84-1.32,3.11,3.26,5.82,4.59,2.68,3.19-7.52,2.67-16.6-5-21.11-2.95-1.74-5.63,2.85-2.68,4.59Z"/><path class="e" d="M303.7,419.33c-2.83,2.62-3.46,7.22-3.92,10.84-.42,3.26-1,7.37.41,10.47s6,.4,4.59-2.69c-.57-1.22,0-5.27.21-7,.29-2.37.59-6.14,2.47-7.87,2.51-2.32-1.25-6.08-3.76-3.76Z"/><path class="e" d="M340.13,453c5.89,3.33,13.84,3.33,20.4,3.37,8.37.05,17-.52,25.13-2.74,3.29-.91,1.89-6-1.42-5.13a86.1,86.1,0,0,1-22,2.55c-6.09.06-13.95.46-19.44-2.64-3-1.69-5.66,2.9-2.68,4.59Z"/><path class="e" d="M515.34,258.35c6.41,5.4,13.29,12.2,18,19.16,0,0,0,4.7-5,3.62-1.55-.33-11.09-3.52-14.76-5.1"/><path class="e" d="M514.4,259.29a126.06,126.06,0,0,1,10.18,9.57c1.69,1.8,8.4,7.61,7.1,9.83-2.14,3.67-15.09-2.8-17.83-3.94-1.58-.66-2.26,1.91-.71,2.56A111.87,111.87,0,0,0,526.42,282c2.67.73,5.71,1.12,7.4-1.59,1.9-3-.29-5-2.24-7.49a109.35,109.35,0,0,0-15.3-15.5c-1.3-1.11-3.19.77-1.88,1.88Z"/><path class="e" d="M204.54,258.35c-6.42,5.4-13.29,12.2-18,19.16,0,0,0,4.7,5.05,3.62,1.54-.33,11.08-3.52,14.76-5.1"/><path class="e" d="M203.6,257.41a108.89,108.89,0,0,0-15.31,15.5c-1.95,2.48-4.14,4.44-2.24,7.49,1.7,2.72,4.73,2.31,7.41,1.59a106.07,106.07,0,0,0,13.27-4.68c1.55-.65.87-3.22-.71-2.56-2.08.87-16.67,7.58-17.83,3.94-.83-2.61,4.75-7.29,6.57-9.25a123.82,123.82,0,0,1,10.72-10.15c1.3-1.11-.59-3-1.88-1.88Z"/><path class="e" d="M514.61,256.88c-13.85-6-98.1-7.55-125,2.21-4,1.44-9.09,6.93-13.34,9.76-3.85,2.56-14.88,2.68-16.21,2.68h0c-2.66,0-12.75-.11-16.59-2.68-4.26-2.83-9.59-8.32-13.58-9.76-26.92-9.76-111.24-8.19-125.09-2.21-2.51,1.09-.84,20.16-.05,21.41s5.06,3.93,7.53,7.88c3.78,6,7.18,41.21,21.61,58.93,6.93,8.5,22.88,12,40.62,12.17,19.31.13,34.94-1.78,46.22-10.34,13.42-10.17,25.73-48.8,30.29-52.1a14.72,14.72,0,0,1,9-3v0s-.1,0,0,0,0,0,0,0v0a16.6,16.6,0,0,1,8.66,3c4.56,3.3,16.53,41.93,29.94,52.1,11.29,8.56,26.9,10.47,46.22,10.34,17.73-.12,33.67-3.67,40.6-12.17,14.43-17.72,17.84-52.9,21.61-58.93,2.47-3.95,6.77-6.62,7.55-7.88S517.12,258,514.61,256.88Zm-200,86.75c-7.76,5.91-54.15,10.28-71.68-1.16-14.43-9.42-20.15-46.7-13.64-65.91,6.58-19.43,96.76-17.93,104.53,1.79C342.39,300.18,326.43,334.6,314.57,343.63Zm161.86-1.16c-17.53,11.44-63.92,7.07-71.69,1.16-11.85-9-27.81-43.45-19.2-65.28,7.77-19.72,97.95-21.22,104.53-1.79C496.58,295.77,490.86,333.05,476.43,342.47Z"/><path class="m" d="M497.32,266.32a39.64,39.64,0,0,0,.65,4.61.8.8,0,0,0,.28.56.79.79,0,0,0,.43.07l10.37-.05a.74.74,0,0,0,.47-.1c.22-.14.24-.45.24-.72V266a.52.52,0,0,0-.11-.38.47.47,0,0,0-.37-.08l-11.25.4c-.29,0-.69.19-.57.45"/><path class="m" d="M224,266.32a39.64,39.64,0,0,1-.65,4.61.8.8,0,0,1-.28.56.79.79,0,0,1-.43.07l-10.38-.05a.73.73,0,0,1-.46-.1c-.22-.14-.24-.45-.24-.72V266a.52.52,0,0,1,.11-.38.47.47,0,0,1,.37-.08l11.25.4c.29,0,.69.19.57.45"/><path class="n" d="M661.57,678.7c-12.81-9.65-127.38-75.08-127.38-75.08C448.44,692.49,282,696,183.92,621c-13.82,1-76.33,24.87-123.46,65.51-27.64,23.84-40.46,72.78-3.32,101C168.51,872.05,493,906,654.25,799.17,692.09,774.1,705.84,712,661.57,678.7Z"/><path class="o" d="M196.37,605.15l-14.64,13.27,7.32,6.49,21.68,12.46,26.58,14.25,24,8.76,34.81,9.22,24.63,3.95L350.84,676l37-3.32,17.85-3.09,24.64-6.2,33.43-12.51L490.45,638l26.63-16.87,15.52-14.66-5.46-6.79-6.36-4.73L513,601l-22.87,15.48-26.34,14.45-33.49,13-37.93,8.44s-34.22,2-35.21,2.56-26.23-.78-26.23-.78l-40.2-6.65-29.24-8.3-34.55-14.25-19-10.57Z"/><path class="o" d="M332.47,708.28c10.31-.35,17,1.65,32.35-1.35,20-3.89,44-14,44-14a3,3,0,0,1,3.87,2.83h0a3,3,0,0,1-1.31,2.46l-16,10.72s-15.6,9.33-28.69,11.35c-8.37,1.29-33.75,3-33.75,3a6,6,0,0,1-6.46-6.53l.31-3.08A6,6,0,0,1,332.47,708.28Z"/><path class="p" d="M61,687c4.67-4.41,10.48-7.8,15.88-11.22,8.58-5.44,17.35-10.59,26.18-15.62,19.29-11,38.94-21.66,59.31-30.52,5.31-2.31,12.57-6.34,18.54-6.41,4.19,0,8.61,4.6,12.61,7.09q12.69,7.9,26,14.72c30.65,15.64,63.67,26.44,97.85,30.74,53,6.69,107.19-3.11,155.29-26.13a262.64,262.64,0,0,0,47.89-29.25c2.67-2.08,5.29-4.21,7.83-6.43,1.75-1.52,4-4.79,6.08-5.66-2.1.88,1.43,1.1,2.75,1.57a91,91,0,0,1,9.37,4.15c22.81,11.12,44.63,24.52,66.07,38,22.92,14.45,46.18,29.32,66.7,47.09,2.58,2.23,6.35-1.51,3.76-3.75-18-15.57-38-28.83-58-41.7-21.24-13.7-42.88-26.91-65.19-38.79-6.74-3.59-13.57-7.27-20.73-10-4.47-1.67-6.79-2-10.31,1.38-11.75,11.15-25.38,20.35-39.37,28.43-45.57,26.32-98.45,40-151.11,37.51-35.73-1.66-70.88-10.79-103.37-25.63q-13.17-6-25.77-13.16-6.61-3.74-13.06-7.76c-3.65-2.27-7.73-6.13-11.8-7.48-4.35-1.44-9.9,1-13.93,2.43-22.22,8-43.34,19.91-63.91,31.4-10.62,5.94-21.15,12-31.44,18.52-6.09,3.84-12.62,7.67-17.88,12.64-2.49,2.36,1.28,6.11,3.76,3.76Z"/><path class="p" d="M61.51,684.65c34.84,35.72,55,87.14,57.25,136.7.11,2.56,4.1,2.57,4,0-2.3-50.62-22.83-103-58.42-139.52-1.79-1.84-4.61,1-2.82,2.82Z"/><path class="p" d="M677,692.89c-20.6,11.88-35.11,34.13-46.27,54.46-13.15,24-23.29,50.43-26.63,77.68-.31,2.54,3.68,2.52,4,0,3.24-26.52,13.3-52.36,26.08-75.66,10.84-19.77,24.83-41.49,44.84-53,2.23-1.28.22-4.72-2-3.44Z"/><path class="p" d="M344.33,710.37c2.57,0,2.57-4,0-4s-2.57,4,0,4Z"/><path class="p" d="M344.34,710.12a100.34,100.34,0,0,0,37.05-5.47c2.41-.83,1.37-4.69-1.06-3.85a97.43,97.43,0,0,1-36,5.34c-2.56-.1-2.56,3.88,0,4Z"/><path class="p" d="M351.42,722.24a94.54,94.54,0,0,0,48.84-13.93c2.18-1.34.18-4.79-2-3.45a90.23,90.23,0,0,1-46.82,13.39c-2.56,0-2.57,4,0,4Z"/><path class="p" d="M181.49,621.27c5.51-4.84,11.33-9.28,16.29-14.71l-3.13-.4c5.81,7.7,16.44,12.74,24.72,17.13A285.61,285.61,0,0,0,273.73,645c52.72,15.27,109.75,16.56,162.15-.76A253.25,253.25,0,0,0,486,621.32a270.67,270.67,0,0,0,24.65-16.57c3.57-2.7,8.26-8.45,12.75-5.89,3.39,1.94,6.32,5.66,9.58,8,2.09,1.49,4.08-2,2-3.45-3.59-2.57-8.92-9.9-13.7-10.39a4.89,4.89,0,0,0-3.26.89c-4.67,2.65-8.81,7-13.17,10.19a262.43,262.43,0,0,1-44.72,26.32,247.89,247.89,0,0,1-91.67,22.17c-47.41,2.25-96-8-138.75-28.56a192.6,192.6,0,0,1-20.93-11.52c-3.59-2.31-8-4.88-10.65-8.36a2,2,0,0,0-3.13-.4c-5,5.42-10.78,9.86-16.28,14.7-1.94,1.7.89,4.51,2.81,2.82Z"/><path class="q" d="M2.75,825.7C3,823.1,2.7,792,2.7,792s5-49.55,5.32-51.12,7.51-26.7,8.39-28.93,7.37-13.44,7.37-13.44v-10l27.3-16L87.6,653.74l32.07-17.31,32.15-9.27,11.94-15.23,31.42-38.86,37.72-42.33,18-12.19,1.14,5.54-1.14,27.25,1.13,75.82,9.43,24.91L305,726l24.47,32.73,23.15,29.58,23.68-28.52,31.92-41.31,32.88-40.68,24.4-30,7.6-17.59,5.19-34.67v-59.8l-2-22.25,12.27,6.63L515.42,548,533,572.15l12.77,23.64L552,610.26l24.83,4.32,10,9.16,8.51,3.07,43.85,22.39,27.57,16.72,27.35,16,14.3,15.24,2.9,7.94,8,21.44s3.48,13.89,3.68,14.85,4.33,27.68,4.33,27.68L730,822.75s-122.67,86-401,86C114.29,908.73,2.75,825.7,2.75,825.7Z"/><path class="r" d="M295.74,908.73s127.94-109,200-153.87c3.9-2.43-9.06-18.89-9.06-18.89l-85.88,69.64-78.18,68.14L288,907.14Z"/><path class="r" d="M473.44,708.11s30.12-28.39,47.79-25.52,34.25,11.83,35.83,8.65c2.66-5.34-13.5-48.58-13.5-48.58l-31.24-13.9-11.19,12.76-22.45,28.72L465.8,692.55Z"/><path class="r" d="M298.8,866.2s-109-73.84-119.17-73.69,4.49-21.57,4.49-21.57l15,6.83,29.94,22.08,51.67,38.53,25.14,21.86Z"/><path class="r" d="M228,699.75s-35.12-44.38-65-41.34c-16.4,1.66,4.24-23.45,4.24-23.45l25.33,1.38,25.54,9.77,17.24,19.13,6.78,14Z"/><path class="r" d="M30.42,701.85v30.57l7.76,34.51,12,53.22L61.37,857.4s-6.91-3.07-9.07-4.07-31.43-110-28.86-150.75C23.85,696.15,30.42,701.85,30.42,701.85Z"/><path class="r" d="M696,709.62,674,768.1,656.3,837.61l-4.44,23.06s8.34-.81,8.95-4.46c3-17.83,32.25-117.14,42-148.59C703.87,704.19,696,709.62,696,709.62Z"/><path class="r" d="M208.1,721.35l-9.25-4.88H184.06l-34.4,4.76-58.5,17.84L36.94,762.73s-.5,9.19,1.33,8.21C68.88,754.36,170,724.76,184.12,725s20.65,4.39,20.65,4.39Z"/><path class="r" d="M223.74,541.49c-6.85,23.38,24.73,84.19,30.81,92.54S251,608.46,251,608.46V565l1.72-47.51-5.84,3.89S225.89,534.15,223.74,541.49Z"/><path class="r" d="M501.13,538.39c4.54-5.32-21.92-24.91-21.92-24.91l-3,20,.35,59.29-5,41.34C486.72,618.57,496.59,543.7,501.13,538.39Z"/><path class="r" d="M512.32,628.76s-12.85-15.14-12.4-34.19c.31-12.8,4.23-23.4,9.42-23.4s7.65,7,6,19.22-1,39.28,4.07,41.53Z"/><path class="s" d="M214.49,712.2c-5-5.22-1-14.59,2.39-19.58,4.66-6.83,12.16-11.18,20.1-8.6-.21.26-.41.53-.62.81q-10.59,14.05-21.47,27.88A3.9,3.9,0,0,0,214.49,712.2Z"/><path class="t" d="M237,684c-6.75-2.19-13.18.63-17.81,5.72,3.27,3.42,5.78,6.3,7.28,8.08q5-6.48,9.91-13C236.57,684.55,236.77,684.28,237,684Z"/><path class="u" d="M215.94,710.14c-4.3-4.46-.86-12.48,2.05-16.74,4.31-6.32,11.47-10.18,18.88-6.7,3.08,1.45,5.78-3.13,2.68-4.59-9.72-4.57-19.4-.75-25.51,7.69-4.75,6.57-8.29,17.43-1.86,24.1,2.38,2.46,6.14-1.3,3.76-3.76Z"/><path class="v" d="M251.15,515.16c-22.66,15.67-41.31,37-59.29,57.68a658,658,0,0,0-52,68.45c-1.56,2.37,1.43,4.76,3.64,3.64a71.25,71.25,0,0,1,61.56-1.43A72.57,72.57,0,0,1,228.62,661a52.84,52.84,0,0,1,8.94,13.21c2.86,6.25.94,7.44-2.91,12.56-20.6,27.32-42.26,53.81-63.59,80.56a2.7,2.7,0,0,0,1.88,4.54c12.47.6,23.09,6.56,33,13.66,10.83,7.73,21.1,16.17,31.51,24.45,22.05,17.54,44.33,34.8,66.52,52.17,2.67,2.08,6.46-1.66,3.76-3.76-24.23-19-48.56-37.79-72.59-57-18.11-14.48-37.81-33.64-62.24-34.83l1.88,4.54c18.73-23.49,37.68-46.8,56-70.61q3.93-5.12,7.82-10.26c1.8-2.37,5.78-6,6.45-8.89,1.39-6.08-6.22-16-9.61-20.38a75.92,75.92,0,0,0-94.65-20.58l3.63,3.64a647.49,647.49,0,0,1,51.15-67.38c17.64-20.29,36-41.47,58.21-56.85,2.8-1.93.14-6.54-2.68-4.59Z"/><path class="v" d="M562.37,640.58c25,8.43,48.78,21.49,71.94,34.06,19.64,10.66,39.45,21.45,58.13,33.74,4,2.62,4.62,2.24,9.63.51,3.64-1.26,11.45-.95,12-6,.5-4.51-5-9-7.85-11.6-16-14.63-35.3-26.21-53.79-37.34-20.34-12.25-42-25.88-64.94-32.76-3.29-1-4.69,4.14-1.42,5.13,18.51,5.55,36,16.1,52.62,25.7,18.95,10.94,37.82,22.52,55.17,35.9,4.78,3.69,11.3,8,14.37,13.39.28.5.62,1,.56,1.32.38-2.07-8,1-9.29,1.57-2.45,1.14-1,1.16-3.18.39-1.3-.45-2.67-1.75-3.84-2.49-17.79-11.27-36.24-21.58-54.74-31.64-23.8-12.94-48.2-26.33-74-35-3.25-1.09-4.65,4-1.41,5.12Z"/><path class="s" d="M485.25,692.26c-1.42-3.48-3.94-6.72-7.56-8-5.84-2.16-8.92,1.44-11.66,6.35-1.22,2.17,1,4.68.73,7.15s1,5.32,2.24,7.61c.66,1.23.34,2.24,1.32,3.24,4.66,4.7,7.42,7.44,12.45,2C487.26,705.65,487.68,698.25,485.25,692.26Z"/><path class="t" d="M486.55,697.26a20.34,20.34,0,0,0-1.3-5c-1.42-3.48-3.94-6.72-7.56-8-3.29-1.22-5.7-.61-7.67,1l-4.22,7.3,7.64,15.56A163.29,163.29,0,0,1,486.55,697.26Z"/><path class="s" d="M585,625c-1.41,3.06-10.25,2.29-12.87,2.19a61.7,61.7,0,0,1-13.91-2.07,3.17,3.17,0,0,0-.59-.1q-2.29-6.79-4.87-13.49a61,61,0,0,1,19.86,3.88C575.25,616.43,586.9,620.87,585,625Z"/><path class="u" d="M480.79,715c15.93-7.78,8.28-36.39-9.79-33.83-3.37.48-1.93,5.6,1.42,5.13,12.36-1.76,15.77,19.18,5.69,24.11-3.07,1.5-.38,6.09,2.68,4.59Z"/><path class="u" d="M558.67,629.29c6.7,1.84,27,5.78,29.06-4.75,1-4.92-4.22-8.56-7.88-10.62a53,53,0,0,0-24.55-6.32c-3.43-.07-3.42,5.24,0,5.32A50.61,50.61,0,0,1,572,616.14c2.19.82,11.81,4.49,10.23,7.93-1.16,2.53-8.47,1.89-10.64,1.81a51.3,51.3,0,0,1-11.49-1.71c-3.31-.91-4.72,4.22-1.41,5.12Z"/><path class="v" d="M249.83,517.46c-2.83,38.68-3.33,78.94,2.23,117.39.48,3.37,5.61,1.94,5.12-1.42-5.48-37.94-4.82-77.8-2-116,.25-3.41-5.07-3.4-5.32,0Z"/><path class="v" d="M236.4,544.8c-3.86,96.1,58.29,174,114.34,245.36,2.11,2.68,5.85-1.1,3.76-3.76-55.17-70.27-116.58-147-112.79-241.6.14-3.42-5.18-3.42-5.31,0Z"/><path class="v" d="M283.05,907.07c11.49-25.79,28.06-49.56,44-72.74,21-30.49,43-60.23,65.36-89.71,19.13-25.24,38.57-50.23,58.06-75.19,5.65-7.24,11.33-14.46,16.89-21.76,3.64-4.77,5.62-8.1,7-14.15,4.46-19.23,5.05-39.64,5.66-59.29.63-20.09,1.26-40.76-1.39-60.75l-4,2.3c48.75,32,75.84,85,88.48,140.56l3.91-3a353.2,353.2,0,0,0-40.43-22.4c-3.68-1.7-10.35-5.77-14.65-4.79-5.08,1.16-10.68,9.36-13.88,13.13a301.52,301.52,0,0,0-28.22,40c-2.2,3.64-5.4,7.89-6.47,12.09s1.22,8.68,3,12.34c5.6,11.43,13.57,22,21.44,31.93l.54-4.18c-29.12,21.3-56.77,44.71-84.33,68-30.84,26-61.45,52.35-91.16,79.64-9.14,8.39-18.76,16.72-26.8,26.21-2.2,2.59,1.55,6.37,3.76,3.76,6.78-8,14.79-15.09,22.46-22.21,13.13-12.18,26.51-24.07,40-35.88q47-41.29,95.51-80.95C462,758.4,476.27,746.87,491.07,736a2.72,2.72,0,0,0,.54-4.17,238.39,238.39,0,0,1-16.34-23.23c-2.37-3.88-7.2-10.28-6.85-15.1.24-3.14,3.23-6.84,4.78-9.48A314.74,314.74,0,0,1,497.8,648a169.58,169.58,0,0,1,13.73-15.12c1.87-1.85,1.37-1.54,4.11-.7a66.16,66.16,0,0,1,8.3,3.37,353.07,353.07,0,0,1,40.42,22.4c2.06,1.3,4.4-.84,3.91-3-13-56.93-41-111-90.93-143.74-1.55-1-4.27.29-4,2.29,2.28,17.19,1.93,34.88,1.6,52.17-.37,19.23-1.08,38.7-4.05,57.73-1.11,7.13-2.09,13.59-6.41,19.35-4.92,6.58-10,13-15.1,19.51-41,52.52-82,105.09-120.18,159.7-18.33,26.2-37.68,53.11-50.74,82.45-1.38,3.1,3.2,5.8,4.59,2.68Z"/><path class="v" d="M29.4,702.78c20-12.51,41.33-23,62.27-33.7,17.45-8.93,34.86-18.26,52.78-26.21,3.12-1.38.42-6-2.68-4.59-17.92,8-35.34,17.28-52.78,26.21-20.94,10.72-42.32,21.19-62.28,33.7-2.89,1.82-.22,6.42,2.69,4.59Z"/><path class="v" d="M27.29,701.51c-1.65,9.86,0,20.32,1.29,30.12,2.16,15.91,5.27,31.7,8.71,47.38,6.05,27.67,12.24,56.37,22.85,82.73,1.27,3.13,6.41,1.76,5.13-1.42C55.05,835,49,807.43,43.12,780.82c-3.38-15.2-6.46-30.49-8.75-45.9-1.5-10.17-3.67-21.7-2-32,.56-3.35-4.56-4.79-5.12-1.42Z"/><path class="v" d="M39.26,764.08c17.5-9.9,37.15-16.87,56-23.68,26.1-9.43,53.61-18.59,81.42-21,9.88-.84,23.1-1.68,31.37,5,2.64,2.13,6.43-1.61,3.76-3.76-7.2-5.81-16.83-7-25.8-7-13.21,0-26.46,2.49-39.28,5.49C118,725.9,89.92,736,62.74,747.4c-8.82,3.7-17.82,7.38-26.16,12.09-3,1.69-.3,6.28,2.68,4.59Z"/><path class="v" d="M237.29,770c9.09-8.63,16.77-18.69,26.07-27.1,2.54-2.3-1.22-6-3.76-3.76-9.29,8.41-17,18.47-26.07,27.1-2.49,2.36,1.27,6.11,3.76,3.76Z"/><path class="v" d="M436.29,719.79a160.52,160.52,0,0,1,9.56,17.15c1.47,3.09,6.06.39,4.59-2.68a159.55,159.55,0,0,0-9.56-17.15c-1.84-2.87-6.44-.21-4.59,2.68Z"/><path class="v" d="M514,625.81c-4.76-7-7.21-15.46-8.17-23.79-.39-3.36-5.71-3.4-5.31,0,1.06,9.26,3.58,18.7,8.89,26.47,1.92,2.81,6.53.15,4.59-2.68Z"/><path class="v" d="M512.79,587.11a67.09,67.09,0,0,0-.83,25.14c.52,3.37,5.64,1.94,5.13-1.42a59.82,59.82,0,0,1,.83-22.31c.75-3.33-4.38-4.75-5.13-1.41Z"/><path class="v" d="M693.75,708.28c-10,23.67-18.1,48.18-25.42,72.8-7.71,25.9-14.69,52.19-19,78.88-.54,3.35,4.58,4.79,5.13,1.41,4.22-26,11-51.63,18.43-76.88,7.33-24.85,15.37-49.65,25.48-73.53,1.31-3.11-3.26-5.82-4.59-2.68Z"/><path class="v" d="M709,706.45c17.08,36.12,18.32,79.73,18.39,119,0,3.42,5.32,3.42,5.32,0-.07-40.22-1.61-84.64-19.11-121.65-1.47-3.09-6-.39-4.6,2.69Z"/><path class="v" d="M5.32,830.57c.92-21.46.19-43,1.87-64.44a197.28,197.28,0,0,1,5-31.77q1.92-7.82,4.47-15.46c2-6.12,3.89-13.12,9.57-16.86,2.85-1.87.19-6.48-2.68-4.59-8.72,5.74-11.36,17.38-14.14,26.8a199.28,199.28,0,0,0-6.8,34C-.08,782.2,1,806.48,0,830.57c-.14,3.42,5.17,3.41,5.32,0Z"/><path class="v" d="M26.09,697.82C23.87,692,37.58,684,41,681.68c11.44-7.65,23.76-14,36.09-20.06,24.43-12,49.62-23.07,75.38-31.89,3.22-1.11,1.83-6.24-1.41-5.13-20.87,7.15-41.27,15.94-61.29,25.15C69.1,659.26,46.61,669.1,29.09,684c-4,3.42-10.42,9.27-8.13,15.28,1.2,3.16,6.35,1.79,5.13-1.42Z"/><path class="s" d="M232.58,822.1c-22.67,12-1.44,45.56,14.82,36.35C273.43,843.69,251.68,812,232.58,822.1Z"/><path class="s" d="M436.93,831.2c-12.72,15.62,10.41,39,25.95,25.8C480.45,842.06,458.13,805.18,436.93,831.2Z"/><path class="u" d="M231.24,819.8c-11,6.32-13.94,18.63-8.14,29.77,5,9.62,16.05,16.78,26.44,10.69,10.88-6.37,15.88-19.18,9.66-30.65-5.55-10.23-17.3-14.94-28-9.81-3.08,1.49-.39,6.07,2.68,4.59,7.8-3.75,16.28.14,20.4,7.36,5.08,8.9,1.23,19-7.47,23.92-7.61,4.29-15.18-1.38-18.85-8.22-4.69-8.71-2.87-18,5.92-23.06C236.89,822.69,234.21,818.1,231.24,819.8Z"/><path class="u" d="M434.64,829.86c-11.6,15.26,5.69,39.09,23.89,32.69,17.31-6.08,17-31.4,2.57-40.45-9.52-6-19.55-.44-26.05,7.22-2.2,2.6,1.55,6.38,3.76,3.76,5.6-6.6,14-11.69,21.57-4.87,5.42,4.91,7.75,13.72,5.15,20.59-8,21.23-39.5,1.12-26.3-16.26C441.3,829.82,436.68,827.17,434.64,829.86Z"/><path class="u" d="M449.89,845a9.29,9.29,0,0,1,5.58-2.08c3.42-.09,3.43-5.4,0-5.32a14,14,0,0,0-8.27,2.81,2.75,2.75,0,0,0-.95,3.64c.66,1.12,2.49,1.83,3.64,1Z"/><path class="u" d="M237.76,844.09l8.8-1.49c3.36-.57,1.94-5.7-1.41-5.13l-8.8,1.5c-3.37.57-1.94,5.69,1.41,5.12Z"/></svg>