<svg xmlns="http://www.w3.org/2000/svg" xmlns:xlink="http://www.w3.org/1999/xlink" viewBox="0 0 2001 2001"><defs><style>.a{fill:none;}.b{fill:#fff;stroke:#000;stroke-miterlimit:10;}.c{fill:#ffbb59;}.d{clip-path:url(#a);}.e{fill:#506278;}.f{fill:#323244;}.g{fill:#f9d8ad;}.h{fill:#1f1f35;}.i{fill:#ea6044;}.j{fill:#e8b374;}.k{fill:#ff8f6a;}.l{fill:#5d1312;}.m{fill:#350404;}.n{fill:#ef7e3a;}.o{fill:#f3c68d;}</style><clipPath id="a"><path class="a" d="M741.34,1096.59v601.92h997.34V1057.27h-958A39.32,39.32,0,0,0,741.34,1096.59Z"/></clipPath></defs><rect class="b" x="0.5" y="0.5" width="2000" height="2000"/><path class="c" d="M741.34,1096.59v601.92h997.34V1057.27h-958A39.32,39.32,0,0,0,741.34,1096.59Z"/><g class="d"><rect class="e" x="708.31" y="1116.2" width="232.53" height="63.42"/><rect class="e" x="962.77" y="1116.2" width="232.53" height="63.42"/><rect class="e" x="1217.23" y="1116.2" width="232.53" height="63.42"/><rect class="e" x="1471.7" y="1116.2" width="232.53" height="63.42"/><rect class="e" x="1726.16" y="1116.2" width="232.53" height="63.42"/><rect class="e" x="575.92" y="1193.57" width="232.53" height="63.42"/><rect class="e" x="830.38" y="1193.57" width="232.53" height="63.42"/><rect class="e" x="1084.84" y="1193.57" width="232.53" height="63.42"/><rect class="e" x="1339.31" y="1193.57" width="232.53" height="63.42"/><rect class="e" x="1593.77" y="1193.57" width="232.53" height="63.42"/><rect class="e" x="708.31" y="1272.4" width="232.53" height="63.42"/><rect class="e" x="962.77" y="1272.4" width="232.53" height="63.42"/><rect class="e" x="1217.23" y="1272.4" width="232.53" height="63.42"/><rect class="e" x="1471.7" y="1272.4" width="232.53" height="63.42"/><rect class="e" x="1726.16" y="1272.4" width="232.53" height="63.42"/><rect class="e" x="575.92" y="1349.77" width="232.53" height="63.42"/><rect class="e" x="830.38" y="1349.77" width="232.53" height="63.42"/><rect class="e" x="1084.84" y="1349.77" width="232.53" height="63.42"/><rect class="e" x="1339.31" y="1349.77" width="232.53" height="63.42"/><rect class="e" x="1593.77" y="1349.77" width="232.53" height="63.42"/><rect class="e" x="708.31" y="1428.59" width="232.53" height="63.42"/><rect class="e" x="962.77" y="1428.59" width="232.53" height="63.42"/><rect class="e" x="1217.23" y="1428.59" width="232.53" height="63.42"/><rect class="e" x="1471.7" y="1428.59" width="232.53" height="63.42"/><rect class="e" x="1726.16" y="1428.59" width="232.53" height="63.42"/><rect class="e" x="575.92" y="1505.96" width="232.53" height="63.42"/><rect class="e" x="830.38" y="1505.96" width="232.53" height="63.42"/><rect class="e" x="1084.84" y="1505.96" width="232.53" height="63.42"/><rect class="e" x="1339.31" y="1505.96" width="232.53" height="63.42"/><rect class="e" x="1593.77" y="1505.96" width="232.53" height="63.42"/><rect class="e" x="708.31" y="1584.79" width="232.53" height="63.42"/><rect class="e" x="962.77" y="1584.79" width="232.53" height="63.42"/><rect class="e" x="1217.23" y="1584.79" width="232.53" height="63.42"/><rect class="e" x="1471.7" y="1584.79" width="232.53" height="63.42"/><rect class="e" x="1726.16" y="1584.79" width="232.53" height="63.42"/><rect class="e" x="575.92" y="1662.16" width="232.53" height="63.42"/><rect class="e" x="830.38" y="1662.16" width="232.53" height="63.42"/><rect class="e" x="1084.84" y="1662.16" width="232.53" height="63.42"/><rect class="e" x="1339.31" y="1662.16" width="232.53" height="63.42"/><rect class="e" x="1593.77" y="1662.16" width="232.53" height="63.42"/><rect class="e" x="575.92" y="1038.02" width="232.53" height="63.42"/><rect class="e" x="830.38" y="1038.02" width="232.53" height="63.42"/><rect class="e" x="1084.84" y="1038.02" width="232.53" height="63.42"/><rect class="e" x="1339.31" y="1038.02" width="232.53" height="63.42"/><rect class="e" x="1593.77" y="1038.02" width="232.53" height="63.42"/></g><path class="f" d="M284.92,1577.89,113.83,1371.32a69,69,0,0,1,24.43-13,69.56,69.56,0,0,1,10-2.14,59.91,59.91,0,0,1,6.84-.59c2.31-.07,4.59,0,6.88.11,1.16.06,2.27.17,3.4.3l0,0a67.41,67.41,0,0,1,19.8,5.28l17.67,7.75,7.18,3.14,5,2.17,7.14,3.13,5,2.19,7.16,3.11,5,2.21,7.16,3.12,5,2.19,7.16,3.11,5,2.19,7.18,3.13,1.29.57,0,0a31.8,31.8,0,0,1,31.1,10.82c.6.73,1.2,1.5,1.77,2.3,0,0,0,.25.11.72.35,2.54,1,11.38-4.46,19.12-.74,1-1.49,2.1-2.25,3.3-.5.79-1,1.59-1.44,2.47s-.93,1.79-1.34,2.73c-.22.48-.4,1-.6,1.45a.35.35,0,0,0,0,.11,26.12,26.12,0,0,0-1.15,3.6c-.15.66-.3,1.32-.43,2s-.2,1.39-.27,2.1c-.86,8.54,1.94,19.39,13.26,33l43.76-12.52-10.79,14.88-30,41.33-4.16,5.7-.66,1.53,0,0Z"/><path class="g" d="M113.84,1371.34l171.09,206.57,20.23-45.44-27-32.55a277.41,277.41,0,0,1-26.53-17.38c-3.35-2.39-6.94-5.08-10.68-8-2.25-1.68-4.54-3.53-6.91-5.41-3.39-2.7-6.91-5.6-10.49-8.71-2.24-1.84-4.49-3.82-6.76-5.83-3.35-2.95-6.79-6.07-10.27-9.35a485.73,485.73,0,0,1-42.19-44.83l-2.79-3.36a28.39,28.39,0,0,1-3.48-5.31,29.15,29.15,0,0,1,7.34-35.72,68.38,68.38,0,0,0-51.6,15.32Z"/><path class="h" d="M295,1442.23l0,0-9.81-5.13-102-53.69L207.66,1394l2.86,1.24,9.27,4,7.18,3.09,5,2.17,7.14,3.09,5,2.17,7.16,3.11,5,2.17,7.18,3.09,3.77,1.63,4.86-20.35c-.08,1.33-.47,16.42,20,28.53a73,73,0,0,0,8.5,4.29c-.74,1-1.49,2.1-2.25,3.3-.5.79-1,1.59-1.44,2.47s-.93,1.79-1.34,2.73C295.36,1441.26,295.18,1441.74,295,1442.23Z"/><rect class="i" x="250.15" y="1401.59" width="27.75" height="7.79" transform="translate(-1144.06 1155.66) rotate(-69.3)"/><rect class="i" x="238.18" y="1395.85" width="27.75" height="7.79" transform="translate(-1146.43 1140.75) rotate(-69.3)"/><rect class="i" x="226.21" y="1390.12" width="27.74" height="7.79" transform="translate(-1148.77 1125.68) rotate(-69.29)"/><rect class="i" x="214.24" y="1384.38" width="27.75" height="7.79" transform="translate(-1151.17 1110.94) rotate(-69.3)"/><rect class="i" x="202.27" y="1378.64" width="27.74" height="7.79" transform="translate(-1153.53 1095.97) rotate(-69.3)"/><rect class="i" x="190.3" y="1372.9" width="27.74" height="7.79" transform="translate(-1155.94 1081.22) rotate(-69.3)"/><path class="h" d="M306.34,1483.07l-13.74,4.3s-13.39-25.74,2.33-45a36.89,36.89,0,0,0-1.15,3.6c-.15.66-.3,1.32-.43,2s-.2,1.39-.27,2.1C292.22,1458.56,295,1469.41,306.34,1483.07Z"/><path class="i" d="M329.06,1486.8l-25,33.67,5.22,6.3,30-41.34h0A7.2,7.2,0,0,0,329.06,1486.8Z"/><path class="h" d="M158.1,1391.74a28.39,28.39,0,0,0,3.48,5.31l2.79,3.36a485.73,485.73,0,0,0,42.19,44.83c3.48,3.28,6.92,6.4,10.27,9.35,2.27,2,4.52,4,6.76,5.83,3.58,3.11,7.1,6,10.49,8.71,2.37,1.88,4.66,3.73,6.91,5.41,3.74,2.92,7.33,5.61,10.68,8a277.41,277.41,0,0,0,26.53,17.38l27,32.55-19-41s-12.4-3.13-32.53-15.09c-3.45-2.1-7.14-4.41-11-7-2.29-1.55-4.62-3.2-7.06-4.93-3.42-2.48-7-5.14-10.66-8.11l0,0c-2.27-1.76-4.53-3.58-6.84-5.57-2.54-2.09-5.1-4.32-7.73-6.64-.89-.78-1.76-1.58-2.62-2.38C182.18,1418.74,166.52,1401.66,158.1,1391.74Z"/><path class="g" d="M253.52,1436.34l-10.86,33.07c3.88,2.6,7.57,4.91,11,7l11.37-34.76Z"/><path class="j" d="M242.66,1469.41l-1.67,5.13c3.74,2.92,7.33,5.61,10.68,8l2-6.12C250.23,1474.32,246.54,1472,242.66,1469.41Z"/><path class="g" d="M234.4,1427.43l-9.49,28.91,0,0c3.67,3,7.24,5.63,10.66,8.11L246,1432.72Z"/><path class="j" d="M224.94,1456.37l-1.35,4.05c3.58,3.11,7.1,6,10.49,8.71l1.52-4.65C232.18,1462,228.61,1459.34,224.94,1456.37Z"/><path class="g" d="M215.32,1418.5l-7.6,23.25c.86.8,1.73,1.6,2.62,2.38,2.63,2.32,5.19,4.55,7.73,6.64l8.79-27Z"/><path class="j" d="M207.72,1441.75l-1.16,3.49c3.48,3.28,6.92,6.4,10.27,9.35l1.24-3.82c-2.54-2.09-5.1-4.32-7.73-6.64C209.45,1443.35,208.58,1442.55,207.72,1441.75Z"/><path class="j" d="M127,1387.21l158,190.7,20.23-45.44-27-32.55a277.41,277.41,0,0,1-26.53-17.38c-3.35-2.39-6.94-5.08-10.68-8-2.25-1.68-4.54-3.53-6.91-5.41-3.39-2.7-6.91-5.6-10.49-8.71-2.24-1.84-4.49-3.82-6.76-5.83-3.35-2.95-6.79-6.07-10.27-9.35a485.73,485.73,0,0,1-42.19-44.83l-2.79-3.36a28.39,28.39,0,0,1-3.48-5.31Z"/><path class="k" d="M350.1,1470.55l-43.76,12.52c-11.32-13.66-14.12-24.51-13.26-33,.07-.71.18-1.42.27-2.1s.28-1.34.43-2a36.89,36.89,0,0,1,1.15-3.6.2.2,0,0,0,.05-.09c.2-.49.38-1,.58-1.47.41-.94.87-1.86,1.34-2.73s.94-1.68,1.44-2.47c.76-1.2,1.51-2.27,2.25-3.3,5.5-7.74,4.81-16.58,4.46-19.12l13.82-15.86,20.64-23.65c18.79,22.49,43,40.5,51.31,46.38L369,1447.08Z"/><path class="g" d="M350.1,1470.55l-43.76,12.52c-11.32-13.66-14.12-24.51-13.26-33,.07-.71.18-1.42.27-2.1s.28-1.34.43-2a36.89,36.89,0,0,1,1.15-3.6.2.2,0,0,0,.05-.09c.2-.49.38-1,.58-1.47.41-.94.87-1.86,1.34-2.73s.94-1.68,1.44-2.47c.76-1.2,1.51-2.27,2.25-3.3,5.5-7.74,4.81-16.58,4.46-19.12l13.82-15.86,50.13,49.8Z"/><path class="f" d="M674.71,1527.94l-266.28-32.23a69.23,69.23,0,0,1,5.64-20.11,65.57,65.57,0,0,1,3.15-6.13A71.37,71.37,0,0,1,423,1461a64.8,64.8,0,0,1,4.56-5.13c1.63-1.64,3.31-3.18,5.07-4.65.89-.75,1.76-1.44,2.67-2.12h0a67.51,67.51,0,0,1,18-9.79l18.15-6.53,7.37-2.66,5.11-1.86,7.34-2.63,5.11-1.83,7.33-2.66,5.14-1.83,7.34-2.66,5.11-1.83,7.34-2.66,5.11-1.83,7.37-2.66,1.32-.48v0a31.77,31.77,0,0,1,30-13.54c.94.12,1.91.27,2.87.45l.58.45c2,1.6,8.58,7.54,9.92,16.94.16,1.26.35,2.55.63,4,.18.91.38,1.82.65,2.78s.56,1.94.92,2.9c.16.49.36,1,.55,1.46,0,0,0,.07.05.11a27.88,27.88,0,0,0,1.65,3.4c.34.58.69,1.16,1.06,1.75s.81,1.14,1.25,1.7c5.24,6.8,14.74,12.74,32.36,14.87l23.15-39.19,2.4,18.22,6.66,50.65.9,7,.57,1.56v0Z"/><path class="g" d="M408.45,1495.71,674.73,1528l-16.57-46.9-42-5.08a278.43,278.43,0,0,1-31.21,5.64c-4.07.56-8.53,1.08-13.25,1.53-2.79.33-5.72.56-8.74.83-4.32.38-8.87.69-13.6.9-2.89.2-5.89.31-8.92.41-4.46.17-9.1.28-13.89.28a487.11,487.11,0,0,1-61.46-3.51l-4.33-.53a27.56,27.56,0,0,1-6.18-1.45,29.16,29.16,0,0,1-19.25-31,68.49,68.49,0,0,0-26.91,46.62Z"/><path class="h" d="M588.69,1422.56h0l-10.65,3-111,31.2,25.1-9.15,2.93-1.08,9.49-3.45,7.35-2.7,5.11-1.86,7.3-2.67,5.12-1.85,7.34-2.67,5.11-1.86,7.34-2.69,3.85-1.41-10.47-18.12c.86,1,11,12.24,34.17,6.93a74.52,74.52,0,0,0,9.13-2.74c.16,1.26.35,2.55.63,4,.18.91.38,1.82.65,2.78s.56,1.94.92,2.9C588.3,1421.59,588.5,1422.06,588.69,1422.56Z"/><rect class="i" x="537.05" y="1403.31" width="7.79" height="27.75" transform="translate(-506.23 319.71) rotate(-22.76)"/><rect class="i" x="524.41" y="1407.38" width="7.79" height="27.75" transform="matrix(0.92, -0.39, 0.39, 0.92, -508.79, 315.14)"/><rect class="i" x="511.78" y="1411.45" width="7.79" height="27.74" transform="matrix(0.92, -0.39, 0.39, 0.92, -511.22, 310.44)"/><rect class="i" x="499.14" y="1415.52" width="7.79" height="27.75" transform="translate(-513.91 305.99) rotate(-22.76)"/><rect class="i" x="486.51" y="1419.59" width="7.79" height="27.74" transform="translate(-516.41 301.37) rotate(-22.76)"/><rect class="i" x="473.87" y="1423.66" width="7.79" height="27.74" transform="translate(-519.11 296.92) rotate(-22.77)"/><path class="h" d="M625,1444.38,618,1457s-27.42-9.48-29.3-34.3c.5,1.13,1,2.28,1.65,3.4.34.58.69,1.16,1.06,1.75s.81,1.14,1.25,1.7C597.91,1436.31,607.41,1442.25,625,1444.38Z"/><path class="i" d="M644.08,1431.46l5,41.62,8.13,1-6.67-50.65h0A7.2,7.2,0,0,0,644.08,1431.46Z"/><path class="h" d="M454.61,1480.07a27.56,27.56,0,0,0,6.18,1.45l4.33.53a487.11,487.11,0,0,0,61.46,3.51c4.79,0,9.43-.11,13.89-.28,3-.1,6-.21,8.92-.41,4.73-.21,9.28-.52,13.6-.9,3-.27,6-.5,8.74-.83,4.72-.45,9.18-1,13.25-1.53a278.43,278.43,0,0,0,31.21-5.64l42,5.08-41.93-16.69s-11.16,6.26-34,11.42c-4,.86-8.21,1.71-12.82,2.49-2.72.46-5.56.86-8.51,1.28-4.19.56-8.61,1.08-13.32,1.45h0c-2.86.28-5.75.52-8.79.66-3.29.23-6.68.37-10.19.49-1.18.06-2.36.07-3.54.09C490.66,1483.1,467.54,1481.48,454.61,1480.07Z"/><path class="g" d="M554.54,1446.8l14.87,31.47c4.61-.78,8.87-1.63,12.82-2.49l-15.66-33Z"/><path class="j" d="M569.41,1478.27l2.32,4.87c4.72-.45,9.18-1,13.25-1.53l-2.75-5.83C578.28,1476.64,574,1477.49,569.41,1478.27Z"/><path class="g" d="M534.54,1453.49l13,27.51h0c4.71-.37,9.13-.89,13.32-1.45l-14.32-30.18Z"/><path class="j" d="M547.58,1481l1.81,3.87c4.73-.21,9.28-.52,13.6-.9l-2.09-4.42C556.71,1480.11,552.29,1480.63,547.58,1481Z"/><path class="g" d="M514.55,1460.13,525,1482.24c1.18,0,2.36,0,3.54-.09,3.51-.12,6.9-.26,10.19-.49l-12.17-25.61Z"/><path class="j" d="M525,1482.24l1.56,3.32c4.79,0,9.43-.11,13.89-.28l-1.72-3.62c-3.29.23-6.68.37-10.19.49C527.38,1482.21,526.2,1482.22,525,1482.24Z"/><path class="j" d="M428.91,1498.19,674.73,1528l-16.57-46.9-42-5.08a278.43,278.43,0,0,1-31.21,5.64c-4.07.56-8.53,1.08-13.25,1.53-2.79.33-5.72.56-8.74.83-4.32.38-8.87.69-13.6.9-2.89.2-5.89.31-8.92.41-4.46.17-9.1.28-13.89.28a487.11,487.11,0,0,1-61.46-3.51l-4.33-.53a27.56,27.56,0,0,1-6.18-1.45Z"/><path class="k" d="M648.18,1405.19,625,1444.38c-17.62-2.13-27.12-8.07-32.36-14.87-.44-.56-.84-1.15-1.25-1.7s-.72-1.17-1.06-1.75c-.63-1.12-1.15-2.27-1.65-3.4v-.07c-.22-.53-.42-1-.61-1.5-.36-1-.66-1.95-.92-2.9s-.47-1.87-.65-2.78c-.28-1.4-.47-2.69-.63-4-1.34-9.4-7.92-15.34-9.92-16.94l-.88-21-1.29-31.36c29.11,3.4,59.1-.21,69.14-1.62l2.79,34.65Z"/><path class="g" d="M648.18,1405.19,625,1444.38c-17.62-2.13-27.12-8.07-32.36-14.87-.44-.56-.84-1.15-1.25-1.7s-.72-1.17-1.06-1.75c-.63-1.12-1.15-2.27-1.65-3.4v-.07c-.22-.53-.42-1-.61-1.5-.36-1-.66-1.95-.92-2.9s-.47-1.87-.65-2.78c-.28-1.4-.47-2.69-.63-4-1.34-9.4-7.92-15.34-9.92-16.94l-.88-21,70.64,1.67Z"/><path class="e" d="M1000.85,1057.32H755.19l-13.58,19.18-4.42,6.22-22.56,31.82.61,17.9-72.32,85L522.77,1358.57l-35.94,42.23-13.74,29.82L425.4,1470l-96-85.86,171.17-242.74V1035.56a74.71,74.71,0,0,1,59.25-73.09L695,933.92l77.61-16.38c.94,1.45,1.88,3,2.8,4.68a125.54,125.54,0,0,1,11.3,28.34l31-19s36.74,11.73,85.86,59.93S1000.85,1057.32,1000.85,1057.32Z"/><path class="f" d="M695,933.92a299.58,299.58,0,0,1-55.56,44.47c-51,31.49-80.18,76-80.18,76l-58.71,87V1035.56a74.71,74.71,0,0,1,59.25-73.09Z"/><path class="k" d="M902.31,426.43v22c-16.94,8.43-31.85,22-44.24,36.34-25.29,29.29-40.07,62-40.07,62l-4.27-3.53-26-21.46c-78.75,0-57.5-150.2-57.5-150.2h81.42c13.49,8.77,26.26,16.77,37.77,23.8,3.37-3.17,9.95-7.11,19.15-2.29,5.68,3,7.87,10.72,8.45,18.85C892.69,421.13,902.31,426.43,902.31,426.43Z"/><path class="i" d="M902.31,426.43v22c-16.94,8.43-31.85,22-44.24,36.34l-14.68-22.9c-18,61.81-55.64,60-55.64,60,45-10.54,51.15-75.91,51.15-75.91C870.82,453.86,877,412,877,412,892.69,421.13,902.31,426.43,902.31,426.43Z"/><path class="c" d="M1043.26,1017.45l-10.92,39.87h-31.49s-19-6.93-45.18-24a337.06,337.06,0,0,1-52.14-41.83c-8.94-8.79-17.47-16.33-25.45-22.83-4-3.22-7.77-6.22-11.42-8.94-29.54-21.94-49-28.16-49-28.16s5.53-3.79,13.3-9.2c16.44-11.45,42.82-30.14,47.85-35.6,7.42-8,9.27-19.45,9.27-19.45s62.7-48.82,76-174.22c0,0,26.26-84.34-26.86-120.48-.38-.25-.77-.51-1.15-.74-38.65-25.11-71.33,13.26-95.69,69.69a538.14,538.14,0,0,0-23,66.06c-24.71,87.1-36.45,114.58-36.45,114.58l13.29-105.34s-3-51.78,5-101.51a255.53,255.53,0,0,1,7.65-33.78h8.33l.94,40.77s60.54-117.69,66.71-128.2c5-8.44,23.49-18.47,30.58-22.1,1.73-.86,2.79-1.37,2.79-1.37s27.94,13.31,59.15,44.19c4.34,4.29,8.76,8.94,13.18,13.94a279.7,279.7,0,0,1,63.59,125.36c.74,3.32,1.45,6.63,2.16,9.93C1079.14,781,1074.78,902.2,1043.26,1017.45Z"/><path class="l" d="M913.41,472.07c-7.09,3.63-25.62,13.66-30.58,22.1-6.17,10.51-66.71,128.2-66.71,128.2l-.94-40.77H811l-6.6-11.22,9.29-27.12,4.27,3.53S850.86,474,902.31,448.4A85.07,85.07,0,0,0,913.41,472.07Z"/><path class="l" d="M964.07,693.12c-13.28,125.4-76,174.22-76,174.22s-1.85,11.42-9.27,19.45c-5,5.46-31.41,24.15-47.85,35.6-7.77,5.41-13.3,9.2-13.3,9.2l-31,19c-.31-1.07-.59-2.11-.89-3.13-.2-.66-.41-1.32-.61-1.95-.86-2.77-1.78-5.41-2.72-7.9-.2-.61-.43-1.19-.68-1.78s-.46-1.17-.69-1.72-.43-1-.63-1.53c-1.2-2.77-2.42-5.33-3.64-7.69-.15-.31-.33-.61-.48-.89-.33-.61-.63-1.2-1-1.75-.92-1.65-1.86-3.23-2.8-4.68a69,69,0,0,0-11.37-13.89c-.23-.23-.46-.43-.69-.63-.68-.61-1.32-1.15-1.93-1.63s-1.12-.89-1.6-1.24a1.3,1.3,0,0,0-.15-.1c-.31-.23-.59-.41-.87-.59-.48-.33-.88-.58-1.21-.79s-.38-.22-.54-.33l0,0-.38-.18a1.19,1.19,0,0,0-.23-.13h0l0,0L736.63,914.9C699,883.41,677,897.05,677,897.05l28.19-48.41c10.33-61.56,45.13-87.41,45.13-87.41l33.82-70.47s4.24-42.77,6.12-55.44c1.35-9.09,6.3-16.49,9-19.94-8.07,49.73-5,101.51-5,101.51L780.89,822.23s11.74-27.48,36.45-114.58c24.53-86.5,66.13-169.93,118.72-135.75.38.23.77.49,1.15.74C990.33,608.78,964.07,693.12,964.07,693.12Z"/><path class="e" d="M902.31,426.43S892.69,421.13,877,412c-.58-8.13-2.77-15.85-8.45-18.85-9.2-4.82-15.78-.88-19.15,2.29-11.51-7-24.28-15-37.77-23.8H696.88a47.91,47.91,0,0,1,24.92-42.13c23.51-12.85,61-29.46,100.67-31.74a142.12,142.12,0,0,1,35.8,2.23h.06a120.64,120.64,0,0,1,23.54,7.14C966,342.42,902.31,426.43,902.31,426.43Z"/><path class="l" d="M811.67,371.6c13.49,8.77,26.26,16.77,37.77,23.8l-35.91,39h0a83.37,83.37,0,0,0-1.25-61.37Z"/><path class="l" d="M902.31,426.43v21.06H877V412C892.69,421.13,902.31,426.43,902.31,426.43Z"/><polygon class="f" points="651.88 1358.57 522.77 1358.57 642.92 1217.42 651.88 1358.57"/><path class="k" d="M786.71,950.56l-170.15,74.15s-3.94-14.27,2.84-19.63,51.76-20.34,51.76-20.34l65.47-69.84L753.54,898l0,0h0a1.19,1.19,0,0,1,.23.13l.38.18,0,0,.56.33c.33.21.73.46,1.21.79.28.18.56.36.87.59a1.3,1.3,0,0,1,.15.1c.48.35,1,.76,1.6,1.24s1.25,1,1.93,1.63c.23.2.46.4.69.63a69,69,0,0,1,11.37,13.89c.94,1.45,1.88,3,2.8,4.68.33.55.63,1.14,1,1.75l.48.89c1.22,2.36,2.44,4.92,3.64,7.69.2.51.43,1,.63,1.53s.46,1.14.69,1.72.48,1.17.68,1.78c.94,2.49,1.86,5.13,2.72,7.9.2.63.41,1.29.61,1.95C786.12,948.45,786.4,949.49,786.71,950.56Z"/><path class="k" d="M736.63,914.9l-65.47,69.84s-45,15-51.76,20.34-2.84,19.63-2.84,19.63-19.08,1.12-27.48,6.07a138.26,138.26,0,0,0-13.26,9.78c-8.28,6.63-16.56,13.84-16.56,13.84-2-10.79,1.27-32.66,6-42.56,0-.1.08-.18.13-.26a16.38,16.38,0,0,1,1.67-2.84c5.59-7.47,40.08-26.11,40.08-26.11L677,897.05l0,0a.81.81,0,0,1,.18-.1C679.56,895.63,701.23,885.24,736.63,914.9Z"/><path class="i" d="M854.06,400.67l-10.61,35.45s19.1,1.7,25-19.1S857.25,394.73,854.06,400.67Z"/><path class="f" d="M902.31,426.43S892.69,421.13,877,412c-.58-8.13-2.77-15.85-8.45-18.85-9.2-4.82-15.78-.88-19.15,2.29,23.54-58.64.48-85.46-27-97.67a142.12,142.12,0,0,1,35.8,2.23h.06a120.64,120.64,0,0,1,23.54,7.14C966,342.42,902.31,426.43,902.31,426.43Z"/><polygon class="m" points="753.54 897.99 734.81 886.43 736.63 914.9 753.54 897.99"/><path class="m" d="M964.07,693.12c-13.28,125.4-76,174.22-76,174.22s-1.85,11.42-9.27,19.45c-5,5.46-31.41,24.15-47.85,35.6-7.77,5.41-13.3,9.2-13.3,9.2l-31,19c-1.3-4.73-2.72-9-4.22-13l78.68-54.14,42.21-133.23-16.51,80.45s37-51.42,58.06-152.35c12.31-58.92,1.93-90.41-8.87-106.41.38.23.77.49,1.15.74C990.33,608.78,964.07,693.12,964.07,693.12Z"/><polygon class="m" points="734.81 886.43 767.75 851.88 780.89 822.23 784.09 690.76 768.37 824.11 761.2 847.82 734.81 886.43"/><path class="i" d="M736.63,914.9l-65.47,69.84s-45,15-51.76,20.34-2.84,19.63-2.84,19.63-19.08,1.12-27.48,6.07a138.26,138.26,0,0,0-13.26,9.78,35.23,35.23,0,0,0,2-16.1,16.27,16.27,0,0,1-12.62-12.62c-.1-.53-.15-.84-.15-.84a3.46,3.46,0,0,0,.28.58c7.87,15.57,43.88-2.28,43.88-2.28,3.81-11,35.89-19.33,35.89-19.33l74.84-70c-12.78-27.22-41.5-23.11-43-22.91a.81.81,0,0,1,.18-.1C679.56,895.63,701.23,885.24,736.63,914.9Z"/><path class="i" d="M764.72,951.14c2.66-27.86-10.8-52.44-11.15-53.13h0c.74.36,9.7,4.9,19,19.53,5,7.8,10.11,18.52,14.1,33l-170.15,74.15Z"/><polygon class="f" points="642.92 1217.42 714.63 1114.54 715.25 1132.44 642.92 1217.42"/><path class="f" d="M737.19,1082.72l-22.56,31.82c-94.54,32.25-122.18-36.39-122.86-38.14C663.39,1106.52,713,1093.74,737.19,1082.72Z"/><path class="f" d="M755.19,1057.32l-13.58,19.18c-70.22,17.24-134-15.27-134-15.27C696.27,1081.88,755.19,1057.32,755.19,1057.32Z"/><path class="f" d="M755.19,1057.32l140.49-17.39c-.29-.65-.59-1.29-.89-1.93-25.26-53.71-87.13-79.54-143.21-60.1l-135,46.81,170.15-74.15,31-19s36.74,11.73,85.86,59.93,97.32,65.8,97.32,65.8Z"/><path class="n" d="M874.66,925.75s87.94-52.88,110.21-206.5c0,0,22.86,138.18-4.08,248.37Zm179.62-261.63c-.71-3.3-1.42-6.61-2.16-9.93a279.7,279.7,0,0,0-63.59-125.36c-4.42-5-8.84-9.65-13.18-13.94C944.14,484,916.2,470.7,916.2,470.7s-1.06.51-2.79,1.37c-7.09,3.63-25.62,13.66-30.58,22.1h0a35.35,35.35,0,0,1,46.85,26.68l5.09,27s-47.85-3.35-71.24,31.72c0,0,6.68-32.28,30.63-45.64,0,0-37.26-4.88-53.79,107.68,24.36-56.43,57-94.8,95.69-69.69.38.23.77.49,1.15.74,53.12,36.14,26.86,120.48,26.86,120.48-13.28,125.4-76,174.22-76,174.22s-1.85,11.42-9.27,19.45c-5,5.46-31.41,24.15-47.85,35.6-7.77,5.41-13.3,9.2-13.3,9.2s19.45,6.22,49,28.16c3.65,2.72,7.46,5.72,11.42,8.94L853.53,939.1l126.7,30.71c-5.74,23-13.72,44.64-24.56,63.54,26.23,17,45.18,24,45.18,24h31.49l10.92-39.87C1074.78,902.2,1079.14,781,1054.28,664.12Z"/><rect class="o" x="45.77" y="1692.28" width="1909.46" height="11.27"/><path class="c" d="M1637.92,951.38v113.39a203.11,203.11,0,0,1,12.62-42.95c10.77-25.24,25.79-43.73,42.8-56.53,34-25.42,37.68-42.43,37.68-42.43,8,81.17.55,112.51-45.63,142.18-13.91,9-24.17,17.34-31.66,24.73a99.8,99.8,0,0,0-15.81,19v113.35c4.11-22.24,10.77-41,19.32-56.72,9.89-18.35,22.33-32.4,36.1-42.71,34-25.47,37.68-42.48,37.68-42.48,8,81.21.55,112.51-45.63,142.19a222.4,222.4,0,0,0-24.63,18.25c-12.12,10.45-19,19.28-22.84,25.48v113.39c5.13-27.88,14.28-50.34,26.12-68a124.68,124.68,0,0,1,29.3-31.43c34-25.47,37.68-42.44,37.68-42.44,8,81.18.55,112.47-45.63,142.19-6.7,4.3-12.52,8.46-17.61,12.48-16.59,12.9-25.33,23.9-29.86,31.21v113.39c6.1-33.15,17.89-58.66,33-77.57a122.76,122.76,0,0,1,22.42-21.91c34-25.47,37.68-42.44,37.68-42.44,8,81.18.55,112.47-45.63,142.19-3.79,2.45-7.3,4.81-10.54,7.17-21.26,15.25-31.8,28.29-36.93,36.52v99.8H1629v-136c-5.5-8.55-16.5-21.68-38.37-37q-3.95-2.78-8.46-5.68c-46.13-29.68-53.57-61-45.62-142.19,0,0,3.74,17,37.67,42.48a117.25,117.25,0,0,1,20.53,19.64c15.48,18.59,27.73,43.78,34.25,76.74V1387.33c-4.81-7.54-14-18.63-31-31.67-4.67-3.56-9.89-7.25-15.81-11-46.13-29.68-53.57-61-45.62-142.19,0,0,3.74,17,37.67,42.43a124.45,124.45,0,0,1,27.69,29.08c12.11,17.42,21.63,39.61,27.09,67.3V1230c-4.07-6.38-11.28-15.3-23.72-25.8a215.74,215.74,0,0,0-23.11-16.92c-46.13-29.72-53.57-61-45.62-142.18,0,0,3.74,17,37.67,42.43a127.88,127.88,0,0,1,34.72,40.36c8.78,15.39,15.67,34,20.06,56V1072.63a106.33,106.33,0,0,0-16.46-19.33,202.84,202.84,0,0,0-30.37-23.39c-46.13-29.72-53.57-61-45.62-142.19,0,0,3.74,17,37.67,42.44,16.46,12.34,31,30.09,41.65,54.08a199.1,199.1,0,0,1,13.13,42.3V915.27a89.66,89.66,0,0,0-9.25-11.92c-7.72-8.6-19.55-19.23-37.58-30.79-46.13-29.72-53.57-61-45.62-142.19,0,0,3.74,17,37.67,42.44,20.25,15.16,37.63,38.5,48.4,71.6a221.9,221.9,0,0,1,6.38,24.78V757.88c-.6-1-1.3-2-2.08-3-6.84-9.62-19.93-23.67-44.75-39.66-46.13-29.68-53.57-61-45.62-142.19,0,0,3.74,17,37.67,42.48,25,18.72,45.58,49.83,54.78,96.38V583.38a79.12,79.12,0,0,1-5.46-32.08c1.3-24.6,44.89-55.94,58.48-47s-23.3,38.09-28.8,47.85c-3.74,6.61-11,24-15.3,34.44v163.5c8.88-48.31,29.91-80.34,55.42-99.48,34-25.47,37.68-42.44,37.68-42.44,8,81.17.55,112.47-45.63,142.19-25.79,16.6-39,31.2-45.58,40.82-.69,1-1.34,2-1.89,2.86v113.4a216.27,216.27,0,0,1,6.15-25.15c10.68-34.58,28.47-58.75,49.27-74.33,34-25.47,37.68-42.44,37.68-42.44,8,81.18.55,112.47-45.63,142.19-18.81,12.11-30.92,23.16-38.64,32A90.6,90.6,0,0,0,1637.92,951.38Z"/><path class="n" d="M1674.85,1544.31c-21.26,15.25-31.8,28.29-36.93,36.52v99.8H1629v-136c-5.5-8.55-16.5-21.68-38.37-37l4.12-85.75c15.48,18.59,27.73,43.78,34.25,76.74V1387.33c-4.81-7.54-14-18.63-31-31.67l3.93-81.72c12.11,17.42,21.63,39.61,27.09,67.3V1230c-4.07-6.38-11.28-15.3-23.72-25.8l3.66-76.31c8.78,15.39,15.67,34,20.06,56V1072.63a106.33,106.33,0,0,0-16.46-19.33l3.33-69.06a199.1,199.1,0,0,1,13.13,42.3V915.27a89.66,89.66,0,0,0-9.25-11.92l2.87-58.94a221.9,221.9,0,0,1,6.38,24.78V757.88c-.6-1-1.3-2-2.08-3l2.08-43,8.92,38.23,1.89,41.09c-.69,1-1.34,2-1.89,2.86v113.4a216.27,216.27,0,0,1,6.15-25.15l2.68,57.41a90.6,90.6,0,0,0-8.83,11.7v113.39a203.11,203.11,0,0,1,12.62-42.95l3.19,67.95a99.8,99.8,0,0,0-15.81,19v113.35c4.11-22.24,10.77-41,19.32-56.72l3.52,75.25c-12.12,10.45-19,19.28-22.84,25.48v113.39c5.13-27.88,14.28-50.34,26.12-68l3.74,80.8c-16.59,12.9-25.33,23.9-29.86,31.21v113.39c6.1-33.15,17.89-58.66,33-77.57Z"/><path class="o" d="M1836.64,1695.78s-42.36-140.93-134.42-96.94-184.11-154-281.06-32.59-204.48,151.53-363.34,113.24-206.92,10.59-344.6.82-528.71,17.1-528.71,17.1L1835,1695.79Z"/></svg>