<svg xmlns="http://www.w3.org/2000/svg" xmlns:xlink="http://www.w3.org/1999/xlink" viewBox="0 0 1912.91 1428.13"><defs><style>.a{fill:none;}.b{fill:#ffbb59;}.c{clip-path:url(#a);}.d{fill:#506278;}.e{fill:#323244;}.f{fill:#f9d8ad;}.g{fill:#1f1f35;}.h{fill:#ea6044;}.i{fill:#e8b374;}.j{fill:#ff8f6a;}.k{fill:#5d1312;}.l{fill:#350404;}.m{fill:#ef7e3a;}.n{fill:#f3c68d;}</style><clipPath id="a"><path class="a" d="M695.57,799.14v601.92h997.34V759.82h-958A39.32,39.32,0,0,0,695.57,799.14Z"/></clipPath></defs><path class="b" d="M695.57,799.14v601.92h997.34V759.82h-958A39.32,39.32,0,0,0,695.57,799.14Z"/><g class="c"><rect class="d" x="662.54" y="818.75" width="232.53" height="63.42"/><rect class="d" x="917" y="818.75" width="232.53" height="63.42"/><rect class="d" x="1171.46" y="818.75" width="232.53" height="63.42"/><rect class="d" x="1425.92" y="818.75" width="232.53" height="63.42"/><rect class="d" x="1680.39" y="818.75" width="232.53" height="63.42"/><rect class="d" x="530.15" y="896.12" width="232.53" height="63.42"/><rect class="d" x="784.61" y="896.12" width="232.53" height="63.42"/><rect class="d" x="1039.07" y="896.12" width="232.53" height="63.42"/><rect class="d" x="1293.53" y="896.12" width="232.53" height="63.42"/><rect class="d" x="1548" y="896.12" width="232.53" height="63.42"/><rect class="d" x="662.54" y="974.95" width="232.53" height="63.42"/><rect class="d" x="917" y="974.95" width="232.53" height="63.42"/><rect class="d" x="1171.46" y="974.95" width="232.53" height="63.42"/><rect class="d" x="1425.92" y="974.95" width="232.53" height="63.42"/><rect class="d" x="1680.39" y="974.95" width="232.53" height="63.42"/><rect class="d" x="530.15" y="1052.32" width="232.53" height="63.42"/><rect class="d" x="784.61" y="1052.32" width="232.53" height="63.42"/><rect class="d" x="1039.07" y="1052.32" width="232.53" height="63.42"/><rect class="d" x="1293.53" y="1052.32" width="232.53" height="63.42"/><rect class="d" x="1548" y="1052.32" width="232.53" height="63.42"/><rect class="d" x="662.54" y="1131.15" width="232.53" height="63.42"/><rect class="d" x="917" y="1131.15" width="232.53" height="63.42"/><rect class="d" x="1171.46" y="1131.15" width="232.53" height="63.42"/><rect class="d" x="1425.92" y="1131.15" width="232.53" height="63.42"/><rect class="d" x="1680.39" y="1131.15" width="232.53" height="63.42"/><rect class="d" x="530.15" y="1208.52" width="232.53" height="63.42"/><rect class="d" x="784.61" y="1208.52" width="232.53" height="63.42"/><rect class="d" x="1039.07" y="1208.52" width="232.53" height="63.42"/><rect class="d" x="1293.53" y="1208.52" width="232.53" height="63.42"/><rect class="d" x="1548" y="1208.52" width="232.53" height="63.42"/><rect class="d" x="662.54" y="1287.34" width="232.53" height="63.42"/><rect class="d" x="917" y="1287.34" width="232.53" height="63.42"/><rect class="d" x="1171.46" y="1287.34" width="232.53" height="63.42"/><rect class="d" x="1425.92" y="1287.34" width="232.53" height="63.42"/><rect class="d" x="1680.39" y="1287.34" width="232.53" height="63.42"/><rect class="d" x="530.15" y="1364.71" width="232.53" height="63.42"/><rect class="d" x="784.61" y="1364.71" width="232.53" height="63.42"/><rect class="d" x="1039.07" y="1364.71" width="232.53" height="63.42"/><rect class="d" x="1293.53" y="1364.71" width="232.53" height="63.42"/><rect class="d" x="1548" y="1364.71" width="232.53" height="63.42"/><rect class="d" x="530.15" y="740.57" width="232.53" height="63.42"/><rect class="d" x="784.61" y="740.57" width="232.53" height="63.42"/><rect class="d" x="1039.07" y="740.57" width="232.53" height="63.42"/><rect class="d" x="1293.53" y="740.57" width="232.53" height="63.42"/><rect class="d" x="1548" y="740.57" width="232.53" height="63.42"/></g><path class="e" d="M239.15,1280.45,68.06,1073.88a67.88,67.88,0,0,1,8.62-6.09,68.84,68.84,0,0,1,9.3-4.63,66.74,66.74,0,0,1,6.5-2.27,69.72,69.72,0,0,1,10-2.15,64.82,64.82,0,0,1,6.84-.59c2.31-.07,4.59,0,6.88.11,1.16.07,2.27.17,3.4.3l0,0a67.21,67.21,0,0,1,19.8,5.29l17.67,7.74,7.18,3.14,5,2.17,7.13,3.13,5,2.19,7.16,3.11,5,2.22,7.16,3.11,5,2.19,7.16,3.11,5,2.19,7.18,3.14,1.29.57,0,0a31.74,31.74,0,0,1,31.1,10.82c.61.72,1.21,1.5,1.78,2.29,0,0,0,.25.11.73.34,2.53,1,11.37-4.46,19.12-.74,1-1.49,2.09-2.26,3.3-.49.78-1,1.58-1.44,2.46s-.92,1.79-1.33,2.74c-.22.47-.4.94-.6,1.44,0,0,0,.06,0,.11a27.7,27.7,0,0,0-1.14,3.61c-.15.65-.3,1.31-.43,2s-.2,1.39-.27,2.1c-.87,8.54,1.94,19.39,13.26,33l43.76-12.52L293.54,1188l-30,41.34-4.17,5.69-.65,1.53,0,0Z"/><path class="f" d="M68.06,1073.89l171.1,206.57L259.39,1235l-27-32.55a277.41,277.41,0,0,1-26.53-17.38c-3.35-2.39-6.94-5.08-10.68-8-2.25-1.68-4.54-3.53-6.91-5.41q-5.1-4-10.5-8.71c-2.23-1.84-4.48-3.82-6.75-5.83-3.35-3-6.79-6.06-10.27-9.35A485.73,485.73,0,0,1,118.6,1103l-2.79-3.36a28.39,28.39,0,0,1-3.48-5.31,29.15,29.15,0,0,1,7.34-35.72,68.53,68.53,0,0,0-51.61,15.32Z"/><path class="g" d="M249.21,1144.78l0,0-9.82-5.13-102-53.69,24.52,10.63,2.86,1.23,9.27,4,7.18,3.1,5,2.16,7.14,3.09,5,2.17,7.16,3.11,5,2.17,7.18,3.1,3.77,1.62,4.86-20.35c-.08,1.33-.47,16.43,20,28.54a76.3,76.3,0,0,0,8.5,4.29c-.74,1-1.49,2.09-2.26,3.3-.49.78-1,1.58-1.44,2.46s-.92,1.79-1.33,2.74C249.59,1143.81,249.41,1144.29,249.21,1144.78Z"/><rect class="h" x="204.38" y="1104.14" width="27.75" height="7.79" transform="translate(-895.4 920.54) rotate(-69.3)"/><rect class="h" x="192.41" y="1098.41" width="27.75" height="7.79" transform="translate(-897.77 905.63) rotate(-69.3)"/><rect class="h" x="180.44" y="1092.67" width="27.74" height="7.79" transform="translate(-900.12 890.59) rotate(-69.29)"/><rect class="h" x="168.47" y="1086.93" width="27.75" height="7.79" transform="translate(-902.52 875.82) rotate(-69.3)"/><rect class="h" x="156.5" y="1081.19" width="27.74" height="7.79" transform="translate(-904.88 860.86) rotate(-69.3)"/><rect class="h" x="144.53" y="1075.45" width="27.74" height="7.79" transform="translate(-907.28 846.08) rotate(-69.3)"/><path class="g" d="M260.57,1185.62l-13.75,4.3s-13.38-25.74,2.33-45.05c-.42,1.17-.82,2.36-1.14,3.61-.15.65-.3,1.31-.43,2s-.2,1.39-.27,2.1C246.44,1161.11,249.25,1172,260.57,1185.62Z"/><path class="h" d="M283.29,1189.35l-25,33.67,5.21,6.3,30-41.34h0A7.2,7.2,0,0,0,283.29,1189.35Z"/><path class="g" d="M112.33,1094.29a28.39,28.39,0,0,0,3.48,5.31l2.79,3.36a485.73,485.73,0,0,0,42.19,44.83c3.48,3.29,6.92,6.4,10.27,9.35,2.27,2,4.52,4,6.75,5.83q5.38,4.66,10.5,8.71c2.37,1.88,4.66,3.73,6.91,5.41,3.74,2.92,7.33,5.61,10.68,8a277.41,277.41,0,0,0,26.53,17.38l27,32.55-18.95-41s-12.4-3.13-32.53-15.09c-3.46-2.09-7.14-4.4-11-7-2.29-1.54-4.62-3.2-7.06-4.92-3.42-2.48-7-5.14-10.67-8.12l0,0c-2.27-1.76-4.53-3.58-6.84-5.56-2.54-2.1-5.1-4.33-7.73-6.65-.89-.78-1.76-1.58-2.63-2.38C136.41,1121.29,120.75,1104.21,112.33,1094.29Z"/><path class="f" d="M207.75,1138.89,196.89,1172c3.88,2.61,7.56,4.92,11,7l11.37-34.76Z"/><path class="i" d="M196.89,1172l-1.67,5.13c3.74,2.92,7.33,5.61,10.68,8l2-6.12C204.45,1176.88,200.77,1174.57,196.89,1172Z"/><path class="f" d="M188.63,1130l-9.49,28.9,0,0c3.68,3,7.25,5.64,10.67,8.12l10.37-31.76Z"/><path class="i" d="M179.16,1158.92l-1.35,4q5.38,4.66,10.5,8.71l1.52-4.64C186.41,1164.56,182.84,1161.9,179.16,1158.92Z"/><path class="f" d="M169.55,1121.05l-7.61,23.25c.87.8,1.74,1.6,2.63,2.38,2.63,2.32,5.19,4.55,7.73,6.65l8.79-27Z"/><path class="i" d="M161.94,1144.3l-1.15,3.49c3.48,3.29,6.92,6.4,10.27,9.35l1.24-3.81c-2.54-2.1-5.1-4.33-7.73-6.65C163.68,1145.9,162.81,1145.1,161.94,1144.3Z"/><path class="i" d="M81.21,1089.76l158,190.7L259.39,1235l-27-32.55a277.41,277.41,0,0,1-26.53-17.38c-3.35-2.39-6.94-5.08-10.68-8-2.25-1.68-4.54-3.53-6.91-5.41q-5.1-4-10.5-8.71c-2.23-1.84-4.48-3.82-6.75-5.83-3.35-3-6.79-6.06-10.27-9.35A485.73,485.73,0,0,1,118.6,1103l-2.79-3.36a28.39,28.39,0,0,1-3.48-5.31Z"/><path class="j" d="M304.33,1173.1l-43.76,12.52c-11.32-13.66-14.13-24.51-13.26-33,.07-.71.18-1.41.27-2.1s.28-1.34.43-2c.32-1.25.72-2.44,1.14-3.61a.18.18,0,0,0,.06-.09c.2-.49.38-1,.58-1.46.41-1,.87-1.87,1.33-2.74s.95-1.68,1.44-2.46c.77-1.21,1.52-2.28,2.26-3.3,5.5-7.75,4.8-16.59,4.46-19.12l13.82-15.87,20.64-23.64c18.79,22.49,43,40.5,51.3,46.38l-21.81,27.06Z"/><path class="f" d="M304.33,1173.1l-43.76,12.52c-11.32-13.66-14.13-24.51-13.26-33,.07-.71.18-1.41.27-2.1s.28-1.34.43-2c.32-1.25.72-2.44,1.14-3.61a.18.18,0,0,0,.06-.09c.2-.49.38-1,.58-1.46.41-1,.87-1.87,1.33-2.74s.95-1.68,1.44-2.46c.77-1.21,1.52-2.28,2.26-3.3,5.5-7.75,4.8-16.59,4.46-19.12l13.82-15.87,50.13,49.8Z"/><path class="e" d="M628.94,1230.49l-266.28-32.23a68.73,68.73,0,0,1,2.08-10.35,67.14,67.14,0,0,1,3.56-9.76,64.19,64.19,0,0,1,3.15-6.12,69.77,69.77,0,0,1,5.82-8.47,61.44,61.44,0,0,1,4.56-5.13c1.63-1.65,3.3-3.19,5.07-4.66.88-.75,1.76-1.44,2.67-2.12h0a67.33,67.33,0,0,1,18-9.78l18.15-6.53,7.37-2.67,5.11-1.85,7.34-2.64,5.11-1.82,7.33-2.67,5.14-1.82,7.34-2.67,5.11-1.83,7.34-2.66,5.11-1.83,7.37-2.66,1.32-.47v0a31.78,31.78,0,0,1,30-13.54c.94.12,1.91.27,2.87.45l.58.45c2,1.6,8.58,7.54,9.91,16.94.17,1.26.36,2.55.64,4,.17.91.38,1.83.65,2.78s.55,1.94.91,2.9c.17.5.36,1,.56,1.47a.93.93,0,0,0,.05.1,25.86,25.86,0,0,0,1.65,3.4c.34.58.68,1.17,1.06,1.75s.81,1.15,1.25,1.71c5.24,6.79,14.74,12.73,32.35,14.86l23.16-39.19,2.4,18.23,6.66,50.64.9,7,.57,1.56v0Z"/><path class="f" d="M362.68,1198.26,629,1230.5l-16.57-46.9-42-5.08a278.43,278.43,0,0,1-31.21,5.64c-4.07.57-8.53,1.09-13.25,1.53-2.79.33-5.72.57-8.74.83-4.32.38-8.87.69-13.61.9-2.89.2-5.88.31-8.91.41-4.46.17-9.1.28-13.89.29a487.24,487.24,0,0,1-61.46-3.52l-4.33-.52a28.13,28.13,0,0,1-6.18-1.46,29.16,29.16,0,0,1-19.25-31,68.54,68.54,0,0,0-26.91,46.62Z"/><path class="g" d="M542.92,1125.11h0l-10.65,3-111,31.2,25.1-9.15,2.93-1.08,9.49-3.45,7.34-2.7,5.12-1.85,7.3-2.68,5.12-1.85,7.33-2.67,5.12-1.85,7.34-2.7,3.85-1.41-10.47-18.12c.86,1,11,12.25,34.17,6.93a72.2,72.2,0,0,0,9.12-2.74c.17,1.26.36,2.55.64,4,.17.91.38,1.83.65,2.78s.55,1.94.91,2.9C542.53,1124.14,542.73,1124.61,542.92,1125.11Z"/><rect class="h" x="491.28" y="1105.86" width="7.79" height="27.75" transform="translate(-394.7 278.83) rotate(-22.76)"/><rect class="h" x="478.64" y="1109.93" width="7.79" height="27.75" transform="matrix(0.92, -0.39, 0.39, 0.92, -397.26, 274.25)"/><rect class="h" x="466.01" y="1114" width="7.79" height="27.74" transform="matrix(0.92, -0.39, 0.39, 0.92, -399.72, 269.58)"/><rect class="h" x="453.37" y="1118.07" width="7.79" height="27.75" transform="translate(-402.38 265.11) rotate(-22.76)"/><rect class="h" x="440.74" y="1122.14" width="7.79" height="27.74" transform="translate(-404.9 260.5) rotate(-22.76)"/><rect class="h" x="428.1" y="1126.21" width="7.79" height="27.74" transform="translate(-407.56 256.03) rotate(-22.77)"/><path class="g" d="M579.25,1146.93l-7,12.58s-27.42-9.48-29.3-34.3c.5,1.14,1,2.28,1.65,3.4.34.58.68,1.17,1.06,1.75s.81,1.15,1.25,1.71C552.14,1138.86,561.64,1144.8,579.25,1146.93Z"/><path class="h" d="M598.31,1134l5,41.63,8.12,1L604.8,1126h0A7.19,7.19,0,0,0,598.31,1134Z"/><path class="g" d="M408.84,1182.62a28.13,28.13,0,0,0,6.18,1.46l4.33.52a487.24,487.24,0,0,0,61.46,3.52c4.79,0,9.43-.12,13.89-.29,3-.1,6-.21,8.91-.41,4.74-.21,9.29-.52,13.61-.9,3-.26,5.95-.5,8.74-.83,4.72-.44,9.18-1,13.25-1.53a278.43,278.43,0,0,0,31.21-5.64l42,5.08-41.94-16.69s-11.15,6.26-34,11.42c-4,.86-8.21,1.72-12.82,2.49-2.72.46-5.56.86-8.51,1.29-4.19.55-8.61,1.07-13.32,1.44h0c-2.86.28-5.76.52-8.79.66-3.29.23-6.68.37-10.19.5-1.18,0-2.36.06-3.54.08C444.89,1185.65,421.77,1184,408.84,1182.62Z"/><path class="f" d="M508.77,1149.35l14.87,31.47c4.61-.77,8.87-1.63,12.82-2.49l-15.66-33Z"/><path class="i" d="M523.64,1180.82l2.32,4.87c4.72-.44,9.18-1,13.25-1.53l-2.75-5.83C532.51,1179.19,528.25,1180.05,523.64,1180.82Z"/><path class="f" d="M488.77,1156l13,27.51h0c4.71-.37,9.13-.89,13.32-1.44l-14.32-30.19Z"/><path class="i" d="M501.81,1183.55l1.8,3.87c4.74-.21,9.29-.52,13.61-.9l-2.09-4.41C510.94,1182.66,506.52,1183.18,501.81,1183.55Z"/><path class="f" d="M468.78,1162.68l10.47,22.11c1.18,0,2.36,0,3.54-.08,3.51-.13,6.9-.27,10.19-.5l-12.17-25.6Z"/><path class="i" d="M479.25,1184.79l1.56,3.33c4.79,0,9.43-.12,13.89-.29l-1.72-3.62c-3.29.23-6.68.37-10.19.5C481.61,1184.76,480.43,1184.77,479.25,1184.79Z"/><path class="i" d="M383.14,1200.74,629,1230.5l-16.57-46.9-42-5.08a278.43,278.43,0,0,1-31.21,5.64c-4.07.57-8.53,1.09-13.25,1.53-2.79.33-5.72.57-8.74.83-4.32.38-8.87.69-13.61.9-2.89.2-5.88.31-8.91.41-4.46.17-9.1.28-13.89.29a487.24,487.24,0,0,1-61.46-3.52l-4.33-.52a28.13,28.13,0,0,1-6.18-1.46Z"/><path class="j" d="M602.41,1107.74l-23.16,39.19c-17.61-2.13-27.11-8.07-32.35-14.86-.44-.56-.84-1.15-1.25-1.71s-.72-1.17-1.06-1.75c-.63-1.12-1.15-2.26-1.65-3.4v-.07c-.22-.53-.42-1-.62-1.5-.36-1-.65-2-.91-2.9s-.48-1.87-.65-2.78c-.28-1.4-.47-2.69-.64-4-1.33-9.4-7.91-15.34-9.91-16.94l-.88-21-1.29-31.35c29.11,3.39,59.1-.21,69.14-1.63l2.79,34.65Z"/><path class="f" d="M602.41,1107.74l-23.16,39.19c-17.61-2.13-27.11-8.07-32.35-14.86-.44-.56-.84-1.15-1.25-1.71s-.72-1.17-1.06-1.75c-.63-1.12-1.15-2.26-1.65-3.4v-.07c-.22-.53-.42-1-.62-1.5-.36-1-.65-2-.91-2.9s-.48-1.87-.65-2.78c-.28-1.4-.47-2.69-.64-4-1.33-9.4-7.91-15.34-9.91-16.94l-.88-21,70.64,1.67Z"/><path class="d" d="M955.08,759.88H709.42l-13.59,19.17-4.41,6.22-22.56,31.82.61,17.91-72.32,85L477,1061.12l-35.94,42.24-13.74,29.81-47.69,39.37-96-85.87L454.78,843.94V738.11A74.71,74.71,0,0,1,514,665l135.21-28.54,77.61-16.38c.94,1.44,1.88,3,2.8,4.67a126.21,126.21,0,0,1,11.3,28.34l31-19s36.74,11.73,85.86,59.93S955.08,759.88,955.08,759.88Z"/><path class="e" d="M649.23,636.48a300.62,300.62,0,0,1-55.56,44.46c-51,31.5-80.18,76-80.18,76l-58.71,87V738.11A74.71,74.71,0,0,1,514,665Z"/><path class="j" d="M856.54,129v22c-16.94,8.44-31.85,22-44.24,36.35-25.29,29.28-40.07,62-40.07,62L768,245.81l-26-21.46c-78.75,0-57.5-150.19-57.5-150.19H765.9c13.49,8.76,26.26,16.76,37.77,23.79,3.37-3.17,10-7.11,19.14-2.28,5.69,3,7.88,10.71,8.46,18.84C846.92,123.68,856.54,129,856.54,129Z"/><path class="h" d="M856.54,129v22c-16.94,8.44-31.85,22-44.24,36.35l-14.68-22.91c-18,61.81-55.64,60-55.64,60,45-10.54,51.15-75.91,51.15-75.91,31.92,8,38.14-33.93,38.14-33.93C846.92,123.68,856.54,129,856.54,129Z"/><path class="b" d="M997.49,720l-10.92,39.88H955.08s-19-6.94-45.18-24a336.58,336.58,0,0,1-52.14-41.83c-8.94-8.78-17.47-16.33-25.45-22.83-4-3.22-7.77-6.22-11.43-8.94-29.53-21.94-49-28.16-49-28.16s5.53-3.78,13.3-9.19c16.43-11.46,42.82-30.15,47.85-35.61,7.41-8,9.27-19.45,9.27-19.45s62.7-48.81,76-174.22c0,0,26.26-84.34-26.87-120.48-.38-.25-.76-.51-1.14-.73-38.65-25.12-71.34,13.25-95.69,69.68a538.14,538.14,0,0,0-23,66.06c-24.72,87.11-36.45,114.58-36.45,114.58L748.4,419.44s-3-51.78,5-101.51a255.38,255.38,0,0,1,7.65-33.77h8.33l.94,40.76s60.54-117.69,66.71-128.2c5-8.43,23.49-18.46,30.58-22.1,1.73-.86,2.79-1.37,2.79-1.37s27.94,13.31,59.15,44.19c4.34,4.29,8.76,8.94,13.18,13.94a279.7,279.7,0,0,1,63.59,125.36c.74,3.33,1.45,6.63,2.16,9.93C1033.37,483.54,1029,604.76,997.49,720Z"/><path class="k" d="M867.64,174.62c-7.09,3.64-25.63,13.67-30.58,22.1-6.17,10.51-66.71,128.2-66.71,128.2l-.94-40.76h-4.14l-6.61-11.23,9.3-27.12,4.27,3.53s32.86-72.79,84.31-98.39A84.94,84.94,0,0,0,867.64,174.62Z"/><path class="k" d="M918.3,395.67c-13.28,125.41-76,174.22-76,174.22s-1.86,11.43-9.27,19.45c-5,5.46-31.42,24.15-47.85,35.61-7.77,5.41-13.3,9.19-13.3,9.19l-31,19c-.31-1.07-.59-2.11-.89-3.12-.2-.66-.41-1.32-.61-2-.86-2.77-1.78-5.41-2.72-7.9-.2-.61-.43-1.19-.68-1.77s-.46-1.17-.69-1.73-.43-1-.63-1.53c-1.2-2.76-2.42-5.33-3.64-7.69-.15-.31-.33-.61-.48-.89-.33-.61-.63-1.19-1-1.75-.92-1.65-1.86-3.23-2.8-4.67a69.72,69.72,0,0,0-11.37-13.9q-.35-.33-.69-.63c-.69-.61-1.32-1.14-1.93-1.63s-1.12-.89-1.6-1.24a1.3,1.3,0,0,0-.15-.1c-.31-.23-.59-.41-.87-.59-.48-.33-.89-.58-1.22-.78l-.53-.33s0,0-.05,0l-.38-.18a1,1,0,0,0-.23-.12h0l0,0-16.91,16.91C653.27,586,631.18,599.6,631.18,599.6l28.19-48.4c10.33-61.56,45.12-87.42,45.12-87.42l33.83-70.47s4.24-42.77,6.12-55.44c1.35-9.09,6.3-16.48,9-19.94-8.07,49.73-5,101.51-5,101.51L735.12,524.78s11.73-27.47,36.45-114.58c24.53-86.5,66.13-169.93,118.72-135.74.38.22.76.48,1.14.73C944.56,311.33,918.3,395.67,918.3,395.67Z"/><path class="d" d="M856.54,129s-9.62-5.31-25.27-14.48c-.58-8.13-2.77-15.85-8.46-18.84-9.19-4.83-15.77-.89-19.14,2.28-11.51-7-24.28-15-37.77-23.79H651.11A47.92,47.92,0,0,1,676,32C699.54,19.17,737,2.56,776.7.28a142.15,142.15,0,0,1,35.8,2.23h0A120.52,120.52,0,0,1,836.1,9.65C920.23,45,856.54,129,856.54,129Z"/><path class="k" d="M765.9,74.16c13.49,8.76,26.26,16.76,37.77,23.79l-35.91,39h0a83.4,83.4,0,0,0-1.25-61.38Z"/><path class="k" d="M856.54,129v21H831.27V114.51C846.92,123.68,856.54,129,856.54,129Z"/><polygon class="e" points="606.11 1061.12 477 1061.12 597.14 919.97 606.11 1061.12"/><path class="j" d="M740.94,653.11,570.78,727.27s-3.93-14.28,2.85-19.63,51.76-20.35,51.76-20.35l65.47-69.84,16.91-16.91,0,0h0a1,1,0,0,1,.23.12l.38.18,0,0,.55.33c.33.2.74.45,1.22.78.28.18.56.36.87.59a1.3,1.3,0,0,1,.15.1c.48.35,1,.76,1.6,1.24s1.24,1,1.93,1.63q.35.3.69.63a69.72,69.72,0,0,1,11.37,13.9c.94,1.44,1.88,3,2.8,4.67.33.56.63,1.14,1,1.75l.48.89c1.22,2.36,2.44,4.93,3.64,7.69.2.51.43,1,.63,1.53s.46,1.14.69,1.73.48,1.16.68,1.77c.94,2.49,1.86,5.13,2.72,7.9.2.64.41,1.3.61,2C740.35,651,740.63,652,740.94,653.11Z"/><path class="j" d="M690.86,617.45l-65.47,69.84s-45,15-51.76,20.35-2.85,19.63-2.85,19.63-19.07,1.11-27.47,6.07a137.87,137.87,0,0,0-13.26,9.77c-8.28,6.63-16.56,13.85-16.56,13.85-2-10.8,1.27-32.67,6-42.57a1.17,1.17,0,0,1,.13-.25,16.13,16.13,0,0,1,1.67-2.85c5.59-7.46,40.08-26.1,40.08-26.1l69.84-85.59.05,0a.55.55,0,0,1,.17-.11C633.79,598.18,655.45,587.79,690.86,617.45Z"/><path class="h" d="M808.29,103.23l-10.61,35.44s19.1,1.7,25.05-19.1S811.48,97.28,808.29,103.23Z"/><path class="e" d="M856.54,129s-9.62-5.31-25.27-14.48c-.58-8.13-2.77-15.85-8.46-18.84-9.19-4.83-15.77-.89-19.14,2.28,23.54-58.64.48-85.45-27-97.67a142.15,142.15,0,0,1,35.8,2.23h0A120.52,120.52,0,0,1,836.1,9.65C920.23,45,856.54,129,856.54,129Z"/><polygon class="l" points="707.77 600.54 689.03 588.99 690.86 617.45 707.77 600.54"/><path class="l" d="M918.3,395.67c-13.28,125.41-76,174.22-76,174.22s-1.86,11.43-9.27,19.45c-5,5.46-31.42,24.15-47.85,35.61-7.77,5.41-13.3,9.19-13.3,9.19l-31,19c-1.3-4.72-2.72-9-4.22-13L815.4,586l42.21-133.23L841.1,533.22s36.95-51.43,58-152.36c12.32-58.91,1.93-90.41-8.86-106.4.38.22.76.48,1.14.73C944.56,311.33,918.3,395.67,918.3,395.67Z"/><polygon class="l" points="689.03 588.99 721.98 554.43 735.12 524.78 738.32 393.31 722.6 526.66 715.43 550.38 689.03 588.99"/><path class="h" d="M690.86,617.45l-65.47,69.84s-45,15-51.76,20.35-2.85,19.63-2.85,19.63-19.07,1.11-27.47,6.07a137.87,137.87,0,0,0-13.26,9.77,35.23,35.23,0,0,0,2-16.1,16.25,16.25,0,0,1-12.62-12.62c-.1-.53-.15-.84-.15-.84a2.91,2.91,0,0,0,.28.59c7.87,15.57,43.88-2.29,43.88-2.29,3.81-11.05,35.88-19.32,35.88-19.32l74.85-70c-12.78-27.22-41.5-23.11-43-22.9a.55.55,0,0,1,.17-.11C633.79,598.18,655.45,587.79,690.86,617.45Z"/><path class="h" d="M718.94,653.69c2.67-27.86-10.79-52.44-11.14-53.12h0c.74.35,9.7,4.9,19,19.53,5,7.79,10.11,18.51,14.1,33L570.78,727.27Z"/><polygon class="e" points="597.14 919.97 668.86 817.09 669.47 835 597.14 919.97"/><path class="e" d="M691.42,785.27l-22.56,31.82C574.31,849.35,546.68,780.7,546,779,617.61,809.07,667.26,796.29,691.42,785.27Z"/><path class="e" d="M709.42,759.88l-13.59,19.17c-70.22,17.24-134-15.26-134-15.26C650.5,784.43,709.42,759.88,709.42,759.88Z"/><path class="e" d="M709.42,759.88l140.49-17.4c-.29-.65-.59-1.29-.89-1.93-25.26-53.71-87.13-79.54-143.21-60.1l-135,46.82,170.16-74.16,31-19s36.74,11.73,85.86,59.93,97.32,65.81,97.32,65.81Z"/><path class="m" d="M828.88,628.3s88-52.88,110.22-206.5c0,0,22.86,138.18-4.09,248.38Zm179.63-261.63c-.71-3.3-1.42-6.6-2.16-9.93a279.7,279.7,0,0,0-63.59-125.36c-4.42-5-8.84-9.65-13.18-13.94-31.21-30.88-59.15-44.19-59.15-44.19s-1.06.51-2.79,1.37c-7.09,3.64-25.63,13.67-30.58,22.1h0a35.36,35.36,0,0,1,46.85,26.68l5.09,27S841.15,247,817.76,282.1c0,0,6.68-32.28,30.63-45.64,0,0-37.26-4.87-53.79,107.68,24.35-56.43,57-94.8,95.69-69.68.38.22.76.48,1.14.73,53.13,36.14,26.87,120.48,26.87,120.48-13.28,125.41-76,174.22-76,174.22s-1.86,11.43-9.27,19.45c-5,5.46-31.42,24.15-47.85,35.61-7.77,5.41-13.3,9.19-13.3,9.19s19.45,6.22,49,28.16c3.66,2.72,7.47,5.72,11.43,8.94l-24.56-29.58,126.71,30.7c-5.74,23-13.72,44.65-24.56,63.54,26.23,17,45.18,24,45.18,24h31.49L997.49,720C1029,604.76,1033.37,483.54,1008.51,366.67Z"/><rect class="n" y="1394.83" width="1909.46" height="11.27"/><path class="b" d="M1592.15,653.93V767.32a202.84,202.84,0,0,1,12.62-42.94c10.77-25.24,25.79-43.73,42.8-56.54,34-25.42,37.68-42.43,37.68-42.43,8,81.17.55,112.51-45.63,142.19-13.91,9-24.17,17.33-31.66,24.73a99.19,99.19,0,0,0-15.81,19V924.67c4.11-22.23,10.77-41,19.32-56.72,9.89-18.35,22.33-32.4,36.1-42.71,34-25.47,37.68-42.48,37.68-42.48,8,81.22.55,112.51-45.63,142.19A222.26,222.26,0,0,0,1615,943.21c-12.11,10.44-19,19.27-22.83,25.47v113.39c5.13-27.88,14.28-50.34,26.12-68a124.68,124.68,0,0,1,29.3-31.43c34-25.47,37.68-42.43,37.68-42.43,8,81.17.55,112.46-45.63,142.19a213.89,213.89,0,0,0-17.61,12.48c-16.6,12.89-25.33,23.89-29.86,31.2v113.39c6.1-33.14,17.89-58.66,33-77.57a122.13,122.13,0,0,1,22.42-21.91c34-25.47,37.68-42.43,37.68-42.43,8,81.17.55,112.46-45.63,142.19-3.79,2.45-7.3,4.8-10.54,7.16-21.26,15.26-31.8,28.29-36.93,36.52v99.8h-8.92v-136c-5.5-8.55-16.51-21.68-38.37-37-2.63-1.84-5.46-3.74-8.46-5.68-46.13-29.68-53.57-61-45.62-142.19,0,0,3.74,17,37.67,42.48a116.92,116.92,0,0,1,20.52,19.65c15.49,18.58,27.74,43.77,34.26,76.73V1089.88c-4.81-7.53-14-18.63-31-31.66-4.67-3.56-9.89-7.26-15.81-11-46.13-29.68-53.57-61-45.62-142.19,0,0,3.74,17,37.67,42.43a124.65,124.65,0,0,1,27.69,29.08c12.11,17.43,21.63,39.61,27.09,67.3V932.53c-4.07-6.38-11.28-15.3-23.72-25.8a214.42,214.42,0,0,0-23.11-16.91c-46.13-29.73-53.57-61-45.62-142.19,0,0,3.74,17,37.67,42.43a127.73,127.73,0,0,1,34.71,40.36c8.79,15.39,15.68,34,20.07,56V775.18a106,106,0,0,0-16.46-19.32,202,202,0,0,0-30.37-23.39c-46.13-29.73-53.57-61-45.62-142.19,0,0,3.74,17,37.67,42.43,16.46,12.34,31,30.09,41.65,54.09a199.18,199.18,0,0,1,13.13,42.29V617.83A89.66,89.66,0,0,0,1574,605.9c-7.72-8.6-19.55-19.23-37.58-30.78-46.13-29.73-53.57-61-45.62-142.2,0,0,3.74,17,37.67,42.44,20.25,15.16,37.63,38.51,48.4,71.6a221.9,221.9,0,0,1,6.38,24.78V460.43c-.6-1-1.3-2-2.08-3.05-6.84-9.62-19.93-23.67-44.75-39.66-46.13-29.68-53.57-61-45.62-142.19,0,0,3.74,17,37.67,42.48,25,18.72,45.58,49.83,54.78,96.38V285.93a79,79,0,0,1-5.46-32.08c1.3-24.59,44.89-55.93,58.48-47s-23.3,38.09-28.8,47.84c-3.75,6.61-11,24-15.3,34.44v163.5c8.87-48.31,29.91-80.34,55.42-99.48,34-25.47,37.68-42.43,37.68-42.43,8,81.17.55,112.46-45.63,142.18-25.79,16.6-39,31.21-45.58,40.82-.69,1-1.34,2-1.89,2.87V610a216.77,216.77,0,0,1,6.15-25.15c10.67-34.57,28.47-58.75,49.27-74.33,34-25.47,37.68-42.43,37.68-42.43,8,81.17.55,112.46-45.63,142.19-18.81,12.11-30.92,23.15-38.64,32A90.6,90.6,0,0,0,1592.15,653.93Z"/><path class="m" d="M1629.08,1246.86c-21.26,15.26-31.8,28.29-36.93,36.52v99.8h-8.92v-136c-5.5-8.55-16.51-21.68-38.37-37l4.11-85.74c15.49,18.58,27.74,43.77,34.26,76.73V1089.88c-4.81-7.53-14-18.63-31-31.66l3.93-81.73c12.11,17.43,21.63,39.61,27.09,67.3V932.53c-4.07-6.38-11.28-15.3-23.72-25.8l3.65-76.31c8.79,15.39,15.68,34,20.07,56V775.18a106,106,0,0,0-16.46-19.32l3.33-69.06a199.18,199.18,0,0,1,13.13,42.29V617.83A89.66,89.66,0,0,0,1574,605.9l2.87-58.94a221.9,221.9,0,0,1,6.38,24.78V460.43c-.6-1-1.3-2-2.08-3.05l2.08-43,8.92,38.23,1.89,41.09c-.69,1-1.34,2-1.89,2.87V610a216.77,216.77,0,0,1,6.15-25.15l2.68,57.41a90.6,90.6,0,0,0-8.83,11.7V767.32a202.84,202.84,0,0,1,12.62-42.94l3.19,68a99.19,99.19,0,0,0-15.81,19V924.67c4.11-22.23,10.77-41,19.32-56.72l3.51,75.26c-12.11,10.44-19,19.27-22.83,25.47v113.39c5.13-27.88,14.28-50.34,26.12-68l3.74,80.81c-16.6,12.89-25.33,23.89-29.86,31.2v113.39c6.1-33.14,17.89-58.66,33-77.57Z"/><path class="n" d="M1790.87,1398.34s-42.36-140.94-134.42-96.95-184.11-154-281.06-32.59S1170.91,1420.33,1012.05,1382s-206.92,10.59-344.6.82S138.74,1400,138.74,1400l1650.49-1.63Z"/></svg>