<svg xmlns="http://www.w3.org/2000/svg" xmlns:xlink="http://www.w3.org/1999/xlink" width="1920" zoomAndPan="magnify" viewBox="0 0 1440 809.999993" height="1080" preserveAspectRatio="xMidYMid meet" version="1.0"><path stroke-linecap="butt" transform="matrix(0.75, 0, 0, 0.75, 577.228921, 276.074977)" fill="none" stroke-linejoin="miter" d="M 97.173943 116.295869 C 97.173943 104.389619 97.736443 92.483368 96.752068 80.577118 C 96.002068 71.717742 90.423943 67.311492 83.533318 67.123992 C 76.408317 67.123992 71.439567 72.139617 69.892692 81.139618 C 68.158317 91.123993 66.611442 101.108369 65.111442 111.280244 C 64.314567 117.233369 62.580192 122.436495 55.877066 123.561495 C 49.361441 124.92087 43.783316 122.061495 41.11144 116.295869 C 38.76769 110.905244 37.08019 104.764619 36.658315 98.998994 C 36.283315 88.077118 37.45519 77.108367 37.45519 66.186492 C 37.45519 60.420867 35.158315 55.405241 28.970815 54.092741 C 22.45519 52.545866 18.423939 56.577116 15.752064 61.920867 C 14.767689 63.655242 13.830189 65.577117 13.455189 67.498992 C 11.158314 80.014618 7.502064 92.483368 7.127064 104.952119 C 5.955189 132.79587 24.564565 152.577121 52.220816 154.686496 C 57.986441 155.061496 58.923941 157.170871 58.736441 162.186497 C 58.361441 169.077122 58.361441 175.967747 59.533316 182.717748 C 60.845816 190.030248 66.048942 194.811498 73.736442 195.561498 C 81.611443 196.170873 87.377068 192.139623 90.048943 185.202123 C 92.158318 180.233373 93.517693 174.467747 94.080193 169.077122 C 95.627068 151.405246 96.564568 133.92087 97.923943 116.295869 C 97.548943 116.295869 97.361443 116.295869 97.173943 116.295869 Z M 147.627071 74.436492 C 119.408319 98.998994 113.642694 141.045871 134.03332 172.358372 C 140.736446 182.717748 150.158321 188.108373 162.627072 188.108373 C 175.095822 188.108373 186.252073 184.639623 196.048948 176.764622 C 210.439574 164.670872 220.61145 149.670871 225.3927 131.248995 C 234.814575 94.592743 215.783324 66.936492 179.314572 64.077117 C 167.033322 62.342742 156.673946 66.748992 147.627071 74.436492 Z M 170.877072 93.795868 C 173.970822 90.748993 176.830197 91.123993 179.923947 94.405243 C 196.611448 111.092744 196.236448 135.655245 178.939572 151.592746 C 168.767697 161.014622 160.517696 159.280247 155.689571 146.623996 C 154.002071 141.795871 152.830196 137.01462 151.658321 132.42087 C 154.189571 117.233369 159.955196 104.202119 170.877072 93.795868 Z M 341.970831 116.295869 C 341.970831 104.389619 342.533331 92.483368 341.548956 80.577118 C 340.798956 71.717742 335.22083 67.311492 328.330205 67.123992 C 321.205205 67.123992 316.236454 72.139617 314.689579 81.139618 C 312.955204 91.123993 311.408329 101.108369 309.908329 111.280244 C 309.111454 117.233369 307.377079 122.436495 300.673954 123.561495 C 294.158328 124.92087 288.580203 122.061495 285.908328 116.295869 C 283.564578 110.905244 281.877078 104.764619 281.455203 98.998994 C 281.080203 88.077118 282.252078 77.108367 282.252078 66.186492 C 282.252078 60.420867 279.955203 55.405241 273.767702 54.092741 C 267.252077 52.545866 263.220827 56.577116 260.548952 61.920867 C 259.564576 63.655242 258.627076 65.577117 258.252076 67.498992 C 255.955201 80.014618 252.298951 92.483368 251.923951 104.952119 C 250.752076 132.79587 269.361452 152.577121 297.017703 154.686496 C 302.783329 155.061496 303.720829 157.170871 303.533329 162.186497 C 303.158329 169.077122 303.158329 175.967747 304.330204 182.717748 C 305.642704 190.030248 310.845829 194.811498 318.533329 195.561498 C 326.40833 196.170873 332.173955 192.139623 334.84583 185.202123 C 336.955205 180.233373 338.31458 174.467747 338.87708 169.077122 C 340.423956 151.405246 341.361456 133.92087 342.720831 116.295869 C 342.345831 116.295869 342.158331 116.295869 341.970831 116.295869 Z M 341.970831 116.295869 " stroke="#000000" stroke-width="7.2" stroke-opacity="1" stroke-miterlimit="4"/><path stroke-linecap="butt" transform="matrix(0.75, 0, 0, 0.75, 540.642819, 465.225021)" fill="none" stroke-linejoin="miter" d="M 32.866868 21.043724 C 30.299159 14.783307 24.471034 11.814556 16.85645 12.814557 C 12.101242 13.319765 8.955408 15.559348 7.4502 16.627057 C 6.658533 17.189557 6.382492 17.408307 5.986658 17.24164 L 5.658533 17.132265 L 5.60645 16.736432 C 5.429367 14.783307 4.705408 14.49164 3.924158 14.49164 C 3.924158 14.49164 3.866866 14.49164 3.866866 14.49164 C 3.0752 14.49164 2.299158 14.783307 2.241866 16.736432 C 2.241866 21.783307 2.460616 26.814557 2.747075 31.746849 C 2.913741 35.491641 3.132491 39.30935 3.184575 43.054141 C 3.184575 44.283308 3.184575 45.517683 3.184575 46.689558 C 3.132491 49.439558 3.132491 52.298934 3.471033 55.101017 C 3.580408 55.986434 4.085617 57.054142 5.549158 57.002059 C 5.986658 57.002059 7.273117 56.944767 7.507492 54.866642 C 7.559575 54.361434 7.507492 53.866642 7.507492 53.30935 C 7.4502 52.9656 7.4502 52.694767 7.4502 52.351017 C 7.4502 50.002058 7.4502 47.647892 7.4502 45.298933 L 7.4502 41.767683 L 8.174158 42.043725 C 14.955409 44.517683 21.221034 43.668725 27.439784 39.30935 C 34.33041 34.548933 36.064785 28.726016 32.866868 21.043724 Z M 28.616868 29.340599 C 28.507493 30.679141 27.783534 32.184349 26.877284 33.085391 C 23.351242 36.616641 19.429367 38.408308 15.4502 38.408308 C 13.096034 38.408308 10.814784 37.788516 8.4502 36.559349 C 7.559575 36.111433 8.174158 26.866641 8.23145 26.757266 C 8.788742 22.61664 9.569992 21.27289 12.767909 19.30414 C 16.132492 17.24164 20.439784 17.132265 23.747076 19.033307 C 27.330409 21.095807 28.955409 24.569765 28.616868 29.340599 Z M 67.262703 50.668725 C 66.471036 45.189558 65.637703 39.689558 64.788745 34.153099 C 64.622078 32.814558 64.46062 31.241641 62.939786 30.955182 C 61.929369 30.736432 60.700203 31.351016 59.580411 31.569766 C 55.778327 30.231224 53.642911 30.283307 49.846035 32.580183 C 48.491869 33.429141 47.153327 34.429141 45.976244 35.491641 C 42.106452 39.022891 40.76791 44.955183 42.61166 49.382267 C 44.58041 54.033309 49.17416 55.767684 53.590827 53.418725 C 55.106452 52.637475 56.450202 51.449975 57.731453 50.272892 C 58.747078 49.382267 59.523119 48.210392 60.642911 46.866642 C 60.809578 47.538517 60.809578 47.991642 60.986661 48.319767 C 61.819994 50.668725 62.611661 53.074975 63.721036 55.319767 C 64.007495 55.93435 65.455411 56.548934 66.08562 56.330184 C 66.809578 56.043725 67.481453 54.923934 67.642911 54.085392 C 67.809578 53.022892 67.424161 51.845808 67.262703 50.668725 Z M 58.965828 38.9656 C 57.788744 42.491641 55.830411 45.569766 52.976244 47.991642 C 51.747077 48.986433 50.351244 50.054142 48.721035 49.163517 C 47.096035 48.262475 46.934577 46.580183 46.809577 45.298933 C 46.877285 40.814558 51.580411 35.548933 55.611661 35.095808 C 58.346036 34.767683 59.809578 36.449974 58.965828 38.9656 Z M 94.918954 32.470808 C 94.866871 31.804141 93.689788 30.897891 92.965829 30.788516 C 92.283538 30.679141 91.450204 31.517682 90.778329 32.022891 C 90.543954 32.184349 90.491871 32.637474 90.543954 32.580183 C 88.028329 32.580183 85.679371 32.184349 83.543954 32.637474 C 76.215828 34.210391 74.028328 41.319766 75.49187 47.429142 C 77.106454 54.085392 84.106454 56.330184 89.439787 52.080183 C 89.767912 51.788517 90.054371 51.517683 90.778329 50.955183 C 89.658537 56.272892 88.028329 60.637476 83.491871 63.382267 C 82.819995 63.783309 82.205412 64.220809 81.590829 64.726017 C 79.528329 66.408309 78.840829 68.142684 79.747079 69.481226 C 80.632495 70.783309 82.549162 70.835393 84.846037 69.606226 C 89.314787 67.074976 92.512704 63.548934 94.304371 58.679142 C 97.491871 50.002058 95.700204 41.210391 94.918954 32.470808 Z M 86.528329 47.991642 C 85.512704 48.93435 84.392912 49.783308 82.819995 49.095808 C 81.247079 48.481225 80.413745 47.194767 80.194995 45.569766 C 79.293954 39.132266 83.835621 35.548933 90.325204 37.736433 C 89.819996 41.429141 89.601246 45.189558 86.528329 47.991642 Z M 108.861663 43.835391 C 111.773122 43.7781 114.632497 43.7781 117.543956 43.726016 C 121.179372 43.616641 123.366873 42.163516 124.038748 39.580183 C 124.997081 35.601016 122.861664 31.460391 118.882497 29.726016 C 114.689789 27.877057 110.762705 28.783307 108.02833 32.252057 C 104.882497 36.163516 103.382497 40.647891 103.543955 45.517683 C 103.65333 49.944767 105.84083 53.418725 109.986664 55.548934 C 114.179372 57.668725 118.554372 57.449975 122.700206 55.262475 C 123.424164 54.866642 124.205414 53.637475 124.038748 53.022892 C 123.877289 52.408309 122.523122 51.788517 121.741872 51.736433 C 120.168956 51.627058 118.611664 52.007267 117.096039 52.189558 C 111.939789 52.74685 107.976247 48.93435 108.59083 44.012475 C 108.752288 43.9031 108.80958 43.835391 108.861663 43.835391 Z M 112.444997 34.043724 C 113.851247 32.746849 115.918955 32.814558 117.887706 33.991641 C 119.283539 34.877058 120.403331 37.283308 119.731456 38.637474 C 119.444997 39.18435 118.502289 39.689558 117.819997 39.74685 C 114.976247 40.033308 112.116872 40.085391 109.02833 40.194766 C 109.767913 37.845808 110.65333 35.658308 112.444997 34.043724 Z M 188.835626 48.319767 C 187.773126 47.033308 186.814792 45.637475 185.695001 44.3406 C 178.872084 36.272891 172.033542 28.220807 165.090833 20.262474 C 163.91375 18.923932 162.122083 18.02289 160.497083 17.080182 C 159.481458 16.517682 158.538749 17.080182 158.200208 18.184348 C 157.924166 18.923932 157.747083 19.705182 157.747083 20.481224 C 157.241874 30.845807 156.747083 41.210391 156.351249 51.569767 C 156.299166 52.74685 156.408541 53.923934 156.694999 55.043725 C 157.023124 56.330184 157.872083 57.111434 159.262708 57.054142 C 160.658541 56.944767 161.273124 55.986434 161.559583 54.757267 C 161.668958 54.194767 161.668958 53.580184 161.668958 53.022892 C 161.778333 44.064558 161.887708 35.095808 161.960624 26.194766 C 161.960624 25.637474 162.069999 25.074974 162.122083 24.189557 C 163.747083 26.361432 165.033541 28.330182 166.481458 30.121849 C 173.10125 37.955183 179.7575 45.74685 186.418959 53.580184 C 186.924167 54.194767 187.590834 54.814559 188.278334 55.262475 C 190.507501 56.658309 192.804376 55.824975 193.538751 53.30935 C 193.924168 52.007267 193.976251 50.726017 194.153334 49.439558 C 195.439793 38.007266 194.101251 26.595807 194.262709 15.220807 C 194.262709 13.877057 193.648126 12.86664 192.241876 12.705182 C 190.903334 12.486432 189.960626 13.262473 189.616876 14.49164 C 189.273126 15.903098 189.111667 17.351015 189.163751 18.746848 C 189.330417 23.173932 189.887709 27.606224 189.960626 32.022891 C 190.012709 37.392683 189.616876 42.835391 189.450209 48.210392 C 189.221042 48.262475 189.002292 48.319767 188.835626 48.319767 Z M 224.950211 40.866641 C 224.445003 36.955183 219.236669 32.184349 215.382502 32.132266 C 208.382502 31.913516 202.10646 37.788516 202.10646 44.736433 C 202.158543 50.163517 205.184585 53.866642 210.502294 54.866642 C 218.168961 56.272892 226.017919 48.606225 224.950211 40.866641 Z M 214.13771 49.382267 C 210.502294 50.7781 207.13771 48.429142 207.080418 44.569766 C 207.028335 40.595808 210.95021 36.507266 214.986669 36.449974 C 215.601252 36.449974 216.215836 37.231224 216.778336 37.679141 C 220.752294 40.538516 220.590836 46.866642 214.13771 49.382267 Z M 252.554379 53.470809 C 252.116879 51.627058 250.543962 52.408309 249.257504 52.517684 C 247.179379 52.637475 244.882504 53.252059 243.382504 51.231225 C 241.085628 48.101017 240.58042 44.449975 240.976253 40.595808 C 241.809587 40.538516 242.533545 40.538516 243.257504 40.429141 C 245.226254 40.085391 247.288754 39.866641 249.205421 39.30935 C 249.820004 39.132266 250.543962 38.080183 250.491879 37.392683 C 250.491879 36.778099 249.642921 35.835391 249.028337 35.726016 C 247.471045 35.330183 245.840837 35.272891 244.26792 35.220808 C 243.257504 35.163516 242.314795 35.272891 241.085628 35.330183 C 241.465837 32.689558 241.752295 30.283307 242.08042 27.934349 C 242.257503 26.757266 242.257503 25.637474 240.851253 25.309349 C 239.564795 25.02289 238.840837 25.923932 238.502295 27.043724 C 237.939795 28.835391 237.377295 30.679141 237.04917 32.580183 C 236.710628 34.548933 236.710628 36.507266 233.851253 36.616641 C 233.346045 36.616641 232.403336 37.955183 232.403336 38.694766 C 232.45542 39.30935 233.523128 39.976016 234.247086 40.429141 C 234.64292 40.705183 235.314795 40.595808 235.366878 40.647891 C 236.20542 44.392683 236.543962 47.991642 237.83042 51.231225 C 240.01792 56.783309 244.721045 58.449975 250.205421 56.163517 C 251.434587 55.658309 253.007504 55.210392 252.554379 53.470809 Z M 302.851257 18.86664 C 304.52834 19.033307 306.101257 19.757265 307.773132 19.814557 C 308.674173 19.814557 310.012715 19.142682 310.517924 18.361432 C 311.241882 17.298932 310.575215 16.121848 309.450215 15.449973 C 308.726257 14.944765 307.892923 14.601015 307.043965 14.27289 C 301.674173 12.361431 296.189798 12.30414 290.637714 13.153098 C 289.070006 13.371848 287.387714 13.986432 286.043964 14.892682 C 284.148131 16.064557 284.366881 17.965598 286.210631 19.194765 C 286.663756 19.486432 287.002297 20.153099 287.059589 20.658307 C 287.330422 27.934349 287.616881 35.163516 287.835631 42.439558 C 287.945006 46.30935 287.835631 50.163517 288.070006 53.976017 C 288.122089 55.986434 289.408548 57.054142 290.913756 57.054142 C 292.377298 57.002059 293.445006 55.767684 293.554381 53.814559 C 293.606464 53.132267 293.554381 52.517684 293.554381 51.845808 C 293.554381 48.481225 293.554381 45.189558 293.445006 41.824975 C 293.445006 40.595808 293.773131 40.142683 295.070006 40.033308 C 298.87209 39.689558 302.741882 39.361433 306.538757 38.856224 C 309.398132 38.460391 310.861674 36.955183 310.575215 35.043724 C 310.299174 33.142683 308.564798 32.309349 305.65334 32.637474 C 301.564798 33.085391 297.476256 33.538516 293.387714 33.991641 C 292.825214 28.892682 292.267923 23.736432 291.653339 18.074973 C 295.450214 18.309348 299.158548 18.470807 302.851257 18.86664 Z M 341.09605 40.866641 C 340.590842 36.955183 335.382508 32.184349 331.523133 32.132266 C 324.523133 31.913516 318.252299 37.788516 318.252299 44.736433 C 318.304382 50.163517 321.325216 53.866642 326.642924 54.866642 C 334.3148 56.272892 342.163759 48.606225 341.09605 40.866641 Z M 330.28355 49.382267 C 326.642924 50.7781 323.283549 48.429142 323.226258 44.569766 C 323.174174 40.595808 327.096049 36.507266 331.1273 36.449974 C 331.741883 36.449974 332.361675 37.231224 332.918966 37.679141 C 336.898133 40.538516 336.736675 46.866642 330.28355 49.382267 Z M 371.78876 51.449975 C 371.22626 46.022892 370.668968 40.595808 370.106468 35.163516 C 370.054385 34.548933 369.997093 33.705183 369.60126 33.304141 C 368.986677 32.689558 368.085635 32.022891 367.304385 32.022891 C 366.580426 32.022891 365.731468 32.746849 365.22626 33.429141 C 364.840843 33.866641 364.898135 34.658308 364.731468 35.272891 C 363.778343 38.694766 363.16376 42.220808 361.700218 45.408308 C 360.247093 48.7156 356.778343 48.658308 354.820009 45.517683 C 354.314801 44.788516 353.918967 43.835391 353.918967 43.002058 C 353.918967 40.033308 354.137717 37.064558 354.205426 34.101016 C 354.205426 33.142683 353.976259 32.022891 353.413759 31.351016 C 353.085634 30.955182 351.731467 30.955182 351.116884 31.241641 C 350.502301 31.569766 349.939801 32.470808 349.721051 33.194766 C 348.653342 37.012474 348.148134 40.923933 348.945009 44.788516 C 349.721051 48.986433 352.293967 51.627058 356.325218 52.856225 C 359.851259 53.866642 362.653343 52.569767 365.00751 49.944767 C 365.116885 49.783308 365.293968 49.726017 365.460635 49.658308 C 366.075218 51.283308 366.403343 53.074975 367.247093 54.538517 C 367.75751 55.319767 369.03876 55.986434 369.997093 56.043725 C 371.392927 56.043725 371.840843 54.757267 371.898135 53.418725 C 371.950218 52.804142 371.840843 52.132267 371.78876 51.449975 Z M 399.674178 38.007266 C 398.773136 35.892683 397.038761 34.153099 394.91897 33.429141 C 390.705428 31.965599 387.861677 34.429141 385.116886 36.668724 C 384.320011 37.340599 383.773136 38.298933 382.820011 39.418725 C 382.710636 37.845808 382.762719 36.616641 382.476261 35.439558 C 382.418969 35.272891 382.366886 35.095808 382.200219 34.934349 C 381.585635 34.210391 380.523135 34.210391 380.012719 35.043724 C 379.903344 35.163516 379.85126 35.272891 379.793969 35.439558 C 379.564802 36.616641 379.564802 37.845808 379.564802 39.022891 C 379.455427 42.944766 379.398135 46.814558 379.28876 50.726017 C 379.28876 51.955183 379.85126 52.856225 381.137719 53.022892 C 382.476261 53.252059 383.267927 52.517684 383.653344 51.283308 C 383.882511 50.726017 383.830427 50.054142 384.049177 49.548933 C 385.278344 46.580183 386.346052 43.507266 387.918969 40.705183 C 388.585636 39.418725 390.148136 38.408308 391.554386 37.679141 C 392.950219 36.903099 394.632511 37.517683 395.080428 39.074975 C 395.695011 40.923933 395.971053 42.944766 396.257511 44.897891 C 396.601261 47.361433 396.76272 49.835392 397.090845 52.241642 C 397.32522 53.418725 397.991886 54.429142 399.38772 54.361434 C 400.79397 54.252059 401.35647 53.252059 401.465845 52.007267 C 401.861678 47.194767 401.57522 42.439558 399.674178 38.007266 Z M 432.033555 15.507265 C 431.418971 16.012473 430.528346 16.392682 430.29918 17.007265 C 429.86168 18.470807 429.575221 20.043724 429.465846 21.601015 C 429.122096 26.252057 428.960638 30.955182 428.684596 35.944766 C 428.288763 35.548933 428.070013 35.330183 427.835638 35.163516 C 422.684596 30.392682 414.793971 31.460391 411.596054 37.679141 C 410.257512 40.304141 409.585637 43.3406 409.080429 46.252058 C 408.804387 47.595808 409.299179 49.272892 409.913762 50.55935 C 412.153345 55.1531 419.101262 57.002059 423.856471 54.304142 C 425.267929 53.5281 426.554388 52.637475 428.122096 51.627058 C 428.231471 52.9656 428.231471 54.085392 428.398138 55.1531 C 428.559596 56.330184 429.29918 57.111434 430.528346 57.163517 C 431.814805 57.163517 432.538763 56.382267 432.715846 55.1531 C 432.825221 54.757267 432.825221 54.304142 432.825221 53.923934 C 432.934596 41.767683 433.043971 29.616641 433.043971 17.46039 C 433.043971 16.845807 432.377305 16.173932 432.033555 15.507265 Z M 424.596054 48.101017 C 422.861679 49.220808 421.340846 50.835392 419.101262 50.616642 C 414.632512 50.55935 413.111679 48.767683 413.892929 44.517683 C 414.179387 43.163516 414.632512 41.824975 415.247096 40.595808 C 416.585637 37.736433 418.486679 36.616641 421.179387 36.955183 C 424.418971 37.340599 426.101263 38.856224 426.892929 42.043725 C 426.892929 42.163516 426.892929 42.272891 426.950221 42.382266 C 427.674179 46.022892 427.674179 46.074975 424.596054 48.101017 Z M 443.408555 51.3406 C 441.507514 51.12185 440.606472 52.080183 440.439805 54.142684 C 440.387722 55.548934 441.278347 56.548934 442.684597 56.658309 C 444.023139 56.726017 445.762722 54.991642 445.872097 53.30935 C 445.92418 51.569767 444.585639 51.449975 443.408555 51.3406 Z M 456.179389 51.3406 C 454.278347 51.12185 453.372097 52.080183 453.210639 54.142684 C 453.153347 55.548934 454.043972 56.548934 455.450223 56.658309 C 456.793973 56.726017 458.528348 54.991642 458.637723 53.30935 C 458.695014 51.569767 457.351264 51.449975 456.179389 51.3406 Z M 456.179389 51.3406 " stroke="#000000" stroke-width="2.1" stroke-opacity="1" stroke-miterlimit="4"/></svg>