<svg width="247" height="324" viewBox="0 0 247 324" fill="none" xmlns="http://www.w3.org/2000/svg">
<path fill-rule="evenodd" clip-rule="evenodd" d="M241.496 179.325C238.479 179.621 235.463 179.917 232.446 180.213C217.998 181.317 203.555 183.624 189.218 185.008C188.861 184.427 188.162 184.522 187.738 184.926C186.307 184.801 184.704 183.707 183.408 184.845C183.365 184.839 183.323 184.832 183.281 184.828C180.973 180.397 179.378 175.672 177.83 170.94C176.842 168.031 175.513 165.214 173.056 163.261C168.864 160.35 159.258 154.446 154.335 154.694C154.254 153.813 153.843 152.904 153.168 152.317C154.655 149.781 148.71 148.126 148.29 148.42C148.559 139.947 144.575 132.589 135.791 130.902C127.921 129.262 116.727 128.986 112.495 137.214C112.03 137.161 107.274 137.137 106.814 137.188C106.098 136.282 98.2411 144.871 101.461 147.862C72.6714 160.602 56.3013 159.082 48.3327 194.899C47.2555 198.264 47.177 201.946 46.0394 205.236C41.9923 214.69 38.7097 224.756 37.8928 235.043C35.9196 235.549 35.6927 239.029 37.9782 239.533C38.8512 239.725 39.5812 239.988 40.2178 240.487C39.7202 248.917 41.7582 268.174 43.0423 268.114C45.6607 276.451 57.3399 278.803 65.6084 275.874C64.183 278.557 65.6084 280.243 65.6084 281.677C95.3606 282.803 127.891 282.154 157.635 283.698C161.44 283.644 165.442 284.633 169.195 284.064C171.483 283.515 171.487 279.915 169.166 279.47L179.309 277.266C179.083 277.181 183.491 274.248 186.822 268.767C189.923 262.635 187.813 255.234 189.218 248.565C200.192 247.667 211.347 247.283 222.201 245.424C223.681 249.854 230.088 244.556 232.124 242.425C232.122 242.422 232.119 242.418 232.117 242.415C233.102 242.145 233.892 241.221 233.919 240.127C234.61 239.139 234.755 237.747 234.092 236.792C237.13 219.257 241.761 201.353 243.435 183.653C244.026 183.522 244.584 183.263 245.056 182.863L245.018 182.824C245.818 181.932 245.974 180.391 244.64 179.632C243.563 179.02 242.664 179.21 241.496 179.325Z" fill="white"/>
<path fill-rule="evenodd" clip-rule="evenodd" d="M113.043 135.303C113.94 133.049 116.97 133.925 116.632 136.293C116.43 137.711 115.653 139.209 114.956 140.452C114.388 141.463 113.74 142.451 112.862 143.209C114.426 144.668 116.048 146.074 117.712 147.409C119.528 148.866 121.437 150.208 123.411 151.442C125.141 152.524 126.95 153.483 128.581 154.717C130.098 155.865 131.479 157.246 132.182 159.048C132.931 160.967 132.606 162.949 132.054 164.867L131.991 165.084C131.428 166.984 130.452 169.274 131.805 171.064C132.493 171.976 133.494 172.621 134.359 173.35C135.127 173.997 135.848 174.701 136.509 175.458C137.951 177.107 139.124 178.962 139.864 181.03L139.93 181.218C140.564 183.048 141.028 185.29 140.171 187.087C139.925 187.602 139.132 187.434 138.994 186.933C138.683 185.797 138.699 184.607 138.438 183.454C138.166 182.256 137.714 181.119 137.123 180.042C135.981 177.96 134.434 176.182 132.606 174.678L132.058 174.233C130.632 173.062 129.322 171.82 129.032 169.883C128.723 167.81 129.553 165.835 130.087 163.873C130.459 162.505 130.58 161.194 130.178 159.959C129.687 160.761 129.017 161.522 128.487 162.201C127.431 163.554 126.366 164.898 125.303 166.246C124.213 167.627 123.15 169.03 122.138 170.47C121.685 171.114 121.237 171.761 120.791 172.41C120.455 172.897 119.987 173.384 119.621 173.881C119.71 174.147 119.703 174.454 119.542 174.671C117.602 177.294 114.841 171.821 114.121 170.439C112.655 167.623 111.564 164.632 110.093 161.816C108.568 158.898 106.832 156.057 104.898 153.393C103.728 151.782 102.416 150.268 101.346 148.605C98.8237 150.893 95.5051 152.426 92.4569 153.817C89.1079 155.345 85.6285 156.593 82.1947 157.918L81.1804 158.312C75.2639 160.622 69.2028 163.16 64.2851 167.263C58.5062 172.085 55.0875 178.805 52.5424 185.764C49.6125 193.775 47.1886 202.002 44.9291 210.224C43.7729 214.431 42.6758 218.657 41.6443 222.897C40.7355 226.632 39.9821 230.404 38.93 234.1C41.0638 234.025 43.4974 234.851 45.3191 235.09C53.6217 236.177 61.8126 237.91 69.6512 240.911C70.6195 241.281 70.8996 242.249 70.6888 243.033C71.2472 242.875 71.8051 242.716 72.3635 242.559C71.7517 241.621 72.0437 239.944 72.0918 238.905L72.0948 238.834C72.1442 237.449 72.2944 236.062 72.3918 234.68C72.5773 232.044 72.8187 229.428 73.1397 226.808L73.2217 226.153C73.5855 223.302 73.8544 220.435 74.2514 217.589L74.2983 217.263C74.1079 216.535 73.8863 215.816 73.6537 215.1C73.0339 213.193 72.159 211.397 71.3923 209.55C71.3019 209.332 71.6116 209.207 71.7563 209.338C73.0548 210.506 74.0862 211.989 74.9148 213.539C74.9291 213.466 74.9418 213.393 74.9568 213.32L75.0514 212.854C75.2845 211.719 75.5681 210.524 76.2643 209.603C76.3385 209.505 76.4851 209.485 76.5553 209.603C77.2216 210.731 77.2962 212.16 77.3986 213.443C77.5146 214.895 77.5292 216.366 77.5087 217.822C77.4688 220.667 77.2683 223.52 77.1086 226.361C76.9519 229.153 76.6442 231.909 76.2476 234.673L76.1722 235.191C75.9784 236.507 75.8197 237.839 75.564 239.146L75.4917 239.501C75.3551 240.149 75.271 241.063 74.9989 241.822C81.9998 239.869 89.0116 237.96 96.0367 236.084C101.114 234.729 106.197 233.393 111.277 232.05C111.545 231.566 111.879 231.115 112.296 230.711C113.668 229.382 115.487 228.788 117.156 229.812C117.291 229.895 117.303 230.108 117.156 230.189C116.836 230.363 116.516 230.543 116.201 230.729L119.252 229.903C121.532 229.285 123.84 228.512 126.174 228.081C130.472 225.959 135.096 224.423 139.624 222.905L140.158 222.724C142.476 221.933 144.874 221.048 147.27 220.61C149.024 220.289 151.082 220.676 151.787 222.473C152.68 223.062 153.52 223.754 154.331 224.434C154.917 224.926 155.479 225.448 156.05 225.957L156.155 226.05C156.622 226.455 156.992 226.727 157.107 227.372C157.166 227.705 156.954 228.156 156.543 228.112C155.286 227.977 154.264 226.519 153.411 225.649C152.753 224.976 152.088 224.28 151.487 223.54C151.137 223.731 150.656 223.697 150.433 223.274C149.276 221.083 146.107 222.601 144.354 223.121L141.842 223.865C140.586 224.237 139.33 224.611 138.077 224.992C134.633 226.039 131.205 227.21 127.729 228.171C128.04 228.513 127.997 229.121 127.407 229.352C124.686 230.42 121.701 230.973 118.874 231.705C117.09 232.168 115.306 232.634 113.524 233.103C113.218 233.598 112.998 234.159 112.905 234.811C112.565 237.21 113.221 239.978 113.86 242.298L113.957 242.644C114.482 244.51 115.255 246.797 116.864 247.975C117.257 248.262 117.757 248.462 118.261 248.507C121.41 246.885 124.559 245.264 127.711 243.645C128.294 243.345 128.834 243.751 128.965 244.234C130.076 244.052 131.184 243.764 132.194 243.421C133.89 242.845 135.215 241.746 136.805 240.986C139.883 239.515 143.025 241.321 145.781 242.695L146.416 243.007C147.651 243.607 150.222 244.759 150.815 243.119C151.388 241.532 149.575 239.836 148.404 239.122C147.009 238.27 145.384 237.815 143.806 237.435C142.906 237.218 141.994 237.041 141.077 236.912C140.037 236.766 138.962 236.788 137.96 236.45C137.463 236.283 137.386 235.492 137.96 235.361C139.502 235.01 141.343 235.393 142.951 235.784L143.792 235.992C145.413 236.39 147.05 236.889 148.527 237.683C149.6 238.26 150.734 239.137 151.474 240.211C152.117 239.614 152.917 239.634 153.75 239.855L154.203 239.981C154.95 240.188 155.555 240.331 156.282 240.187C156.379 239.658 156.478 239.129 156.583 238.6C157.619 233.398 158.755 228.215 160.008 223.061C162.171 214.17 164.672 205.376 167.493 196.673L167.776 195.803C168.426 193.812 168.95 191.643 169.999 189.815C170.991 188.085 172.58 187.089 174.468 186.562C176.611 185.963 178.862 185.65 181.048 185.246C181.535 185.156 182.024 185.07 182.512 184.981C182.1 184.236 181.792 183.391 181.515 182.742L181.466 182.629C180.87 181.271 180.335 179.888 179.819 178.497L179.432 177.452C178.499 174.934 177.536 172.458 176.224 170.104C174.843 167.626 173.011 165.6 170.728 163.923C166.072 160.505 160.46 158.761 155.944 155.107C155.759 154.958 155.996 154.702 156.184 154.796C159.233 156.329 162.525 157.371 165.696 158.619L166.322 158.866C168.829 159.86 171.375 160.942 173.544 162.552C175.963 164.347 177.869 166.576 179.301 169.226C180.712 171.839 181.615 174.763 182.61 177.554L182.877 178.297C183.278 179.412 183.693 180.524 184.168 181.609C184.546 182.471 185.25 183.454 185.57 184.438C186.446 184.286 187.321 184.134 188.198 183.987C207.184 180.816 226.382 178.953 245.623 178.408C246.375 178.387 246.765 179.105 246.654 179.762C244.807 190.685 243.166 201.645 241.366 212.576C240.58 217.347 239.778 222.114 238.958 226.879C238.543 229.293 238.062 231.698 237.669 234.115C237.351 236.068 237.12 238.036 236.575 239.943C236.085 241.653 235.334 243.302 234.101 244.606C232.772 246.013 230.917 246.694 229.049 247.015C224.308 247.831 219.445 248.165 214.666 248.709L189.219 251.605C189.591 254.986 189.619 258.315 189.448 261.735L189.351 263.603C189.271 265.105 189.176 266.609 188.961 268.096C188.69 269.96 187.838 271.539 186.582 272.932C185.428 274.211 184.027 275.303 182.664 276.348C181.25 277.434 179.788 278.482 178.124 279.154L177.909 279.239C176.449 279.809 173.712 280.692 171.718 280.369C171.978 281.676 172.483 283.081 172.036 284.374C171.828 284.975 171.043 285.274 170.562 284.763C169.61 283.751 169.535 282.413 169.31 281.092C169.075 279.718 168.873 278.338 168.693 276.956C168.345 274.282 168.074 271.583 167.992 268.887C167.907 266.118 167.94 263.345 168.089 260.579C168.166 259.158 168.261 257.739 168.441 256.327C168.518 255.725 168.596 255.123 168.686 254.523C168.719 254.304 168.755 254.086 168.794 253.868L166.51 254.126C163.008 254.517 159.504 254.87 155.978 254.925C155.56 254.932 155.239 254.741 155.029 254.464C154.805 254.829 154.415 255.09 153.857 255.088C148.932 255.069 144.345 253.458 139.866 251.559C137.608 250.602 135.385 249.565 133.123 248.616C131.012 247.73 128.756 247.098 126.696 246.1L121.283 248.94C121.244 249.08 121.193 249.212 121.139 249.323C120.786 250.042 120.091 250.433 119.382 250.727C118.701 251.009 117.995 251.097 117.308 251.026C113.203 253.178 109.097 255.328 104.988 257.473L100.879 259.616C92.6908 263.881 84.5353 268.215 76.2958 272.38L75.6892 272.685C72.8433 274.113 69.7873 275.56 66.6291 276.64C66.5729 277.44 66.6084 278.217 66.6753 279.064L66.6915 279.248C66.7856 280.249 66.9875 281.502 66.1854 282.214C65.7681 282.584 65.0228 282.586 64.7391 282.028C64.2242 281.015 64.6865 279.419 64.8496 278.319C64.9074 277.927 64.978 277.525 65.0824 277.135C61.4617 278.213 57.7313 278.736 54.0468 278.131C50.4595 277.542 47.6811 275.281 45.4412 272.515C43.0774 269.597 41.3976 266.197 40.4963 262.551C39.4706 258.403 39.4036 254.118 39.4277 249.869C39.4533 245.344 39.6206 240.797 40.1708 236.303C39.568 236.161 38.8996 236.039 38.2905 236.081C37.9888 236.564 37.4036 236.767 36.8748 236.704C35.7248 237.973 38.6416 239.27 39.5737 239.594C39.8974 239.707 39.8627 240.233 39.4894 240.217L39.2543 240.206C37.814 240.129 36.326 239.883 35.4791 238.544C34.8005 237.471 35.0044 236.2 35.8134 235.324C36.3477 230.271 37.625 225.349 38.8138 220.419C39.9804 215.58 41.2778 210.773 42.6529 205.989L43.2694 203.848C45.4346 196.348 47.6977 188.787 50.6843 181.584C52.1756 177.988 53.8936 174.458 56.2224 171.322C58.3932 168.399 60.9561 165.897 63.902 163.761C69.3939 159.778 75.8381 157.371 82.1698 155.078L82.4532 154.976C85.7344 153.788 89.0076 152.587 92.2514 151.3C95.1202 150.163 97.8686 148.72 100.724 147.565C100.631 147.397 100.542 147.227 100.455 147.054L100.403 147.099C100.394 147.106 100.384 147.113 100.375 147.119C100.088 147.319 99.6648 147.221 99.4281 146.997C98.76 146.367 98.9862 145.667 99.4322 145.012L99.4903 144.929C100.036 144.165 100.522 143.357 101.026 142.564L101.341 142.069C102.186 140.746 103.074 139.413 104.201 138.32C104.723 137.813 105.294 137.434 105.899 137.151C105.848 137.042 106.301 136.818 106.43 136.93C108.348 136.228 110.554 136.375 112.645 136.569M187.988 251.745L185.322 252.048C182.388 252.382 179.454 252.705 176.519 253.024L170.145 253.717C170.128 254.081 170.084 254.436 170.076 254.711C170.035 256.126 170.004 257.542 169.974 258.958C169.915 261.796 169.98 264.637 170.167 267.469C170.348 270.214 170.586 272.959 170.957 275.685L171.032 276.23L171.076 276.517C171.379 276.546 171.676 276.69 171.923 276.985C172.462 277.629 174.414 277.003 175.177 276.731C176.431 276.285 177.611 275.531 178.701 274.775C179.765 274.036 180.723 273.175 181.644 272.268L182.397 271.523C183.146 270.778 183.896 269.985 184.355 269.048C184.978 267.777 185.059 266.217 185.241 264.833C185.466 263.131 185.734 261.429 186.016 259.735M110.589 233.877L110.312 233.949C100.266 236.62 90.2353 239.369 80.1584 241.921C75.1717 243.185 70.1612 244.356 65.1684 245.596L64.36 245.798C60.4211 246.794 56.435 247.992 53.4187 250.85C53.3074 250.956 53.1458 250.794 53.2505 250.682C56.5013 247.22 61.1247 245.755 65.5639 244.484C66.3844 244.249 67.206 244.02 68.0268 243.787C61.9896 241.634 55.8572 239.76 49.5832 238.424C47.9676 238.08 46.3332 237.828 44.7189 237.482C43.5931 237.241 42.4936 236.893 41.3797 236.604L40.5035 236.384L40.4919 239.154C40.4773 243.078 40.4842 246.998 40.6843 250.921L40.7222 251.648C40.9557 256.014 41.3201 260.471 42.8689 264.587C44.1274 267.933 46.1334 271.084 48.7567 273.521C50.0841 274.753 51.5112 275.713 53.2753 276.187C54.9132 276.627 56.6293 276.678 58.3132 276.561C66.3897 275.997 73.5791 271.608 80.5949 267.974C92.0703 262.031 103.547 256.09 115.034 250.169C114.724 249.956 114.431 249.712 114.165 249.437C112.625 247.845 111.812 245.667 111.279 243.557C110.71 241.311 110.371 238.904 110.331 236.585M125.205 252.463C125.306 252.409 125.424 252.477 125.428 252.591C125.464 253.469 124.979 254.335 124.617 255.125L124.579 255.21C124.138 256.189 123.657 257.156 123.158 258.107C122.162 260.007 121.127 261.887 120.046 263.74C117.874 267.469 115.459 271.04 112.606 274.286C111.961 275.02 110.901 274.079 111.315 273.29C113.309 269.483 115.634 265.889 118.027 262.327C119.225 260.543 120.422 258.757 121.632 256.982C122.137 256.241 122.648 255.502 123.173 254.775L123.49 254.34M244.35 180.588C234.269 180.893 224.2 181.55 214.167 182.581C204.836 183.54 195.539 184.815 186.295 186.406C184.364 186.738 182.436 187.084 180.51 187.444L179.355 187.661C177.428 188.026 175.075 188.177 173.36 189.206C171.552 190.292 171.063 192.56 170.461 194.43C169.754 196.63 169.065 198.836 168.394 201.047C165.73 209.827 163.297 218.684 161.127 227.598C160.049 232.023 159.093 236.473 158.086 240.914C157.191 244.86 156.203 248.762 155.172 252.668C155.299 252.569 155.455 252.494 155.643 252.454C160.766 251.363 165.995 250.889 171.194 250.287L171.698 250.228C177.076 249.596 182.455 248.967 187.837 248.362L223.469 244.353C225.57 244.117 227.822 244.085 229.867 243.521C233.344 242.561 234.159 238.673 234.742 235.576L234.76 235.482C236.518 226.125 237.919 216.686 239.559 207.306M156.001 241.791C154.618 241.699 152.724 240.432 151.675 240.523C152.226 241.448 152.474 242.502 152.157 243.629C151.273 246.764 147.276 245.142 145.351 244.184C143.773 243.399 142.249 242.437 140.502 242.069C138.522 241.653 137.181 242.441 135.508 243.348C134.135 244.094 132.639 244.629 131.1 244.906C130.282 245.054 129.505 245.069 128.73 245.012C128.683 245.05 128.63 245.085 128.57 245.117L128.16 245.332C130.015 245.417 131.905 245.99 133.631 246.514C135.42 247.057 137.177 247.712 138.924 248.382L140.642 249.042C144.881 250.666 149.269 252.208 153.857 252.195C154.187 252.194 154.457 252.285 154.67 252.434M148.261 231.968C149.628 231.801 150.889 231.98 151.981 232.87C153.298 233.944 154.183 235.724 156.076 235.84C156.628 235.875 156.757 236.651 156.208 236.813C154.799 237.231 153.658 236.468 152.697 235.478L152.052 234.803C151.103 233.82 150.228 233.06 148.618 233.119C146.893 233.182 145.166 233.58 143.453 233.783C141.512 234.013 139.572 234.208 137.625 234.377C137.535 234.385 137.519 234.242 137.604 234.222L139.784 233.679M146.942 226.379L147.167 226.356C149.152 226.164 150.967 226.156 152.739 227.224L153.079 227.43C154.677 228.401 156.416 229.546 157.416 231.119C157.579 231.377 157.309 231.68 157.036 231.614C155.115 231.153 153.711 229.743 152.096 228.688C150.283 227.504 148.411 227.7 146.344 227.884C144.343 228.062 142.342 228.306 140.361 228.64C138.499 228.953 136.631 229.448 134.751 229.606L134.751 229.602C134.536 229.601 134.414 229.279 134.633 229.169C136.541 228.216 138.752 227.765 140.828 227.329M78.985 172.393C78.9825 172.236 79.2032 172.177 79.2803 172.313C80.5716 174.586 81.2466 177.372 81.9345 179.875C82.6549 182.498 83.2365 185.148 83.759 187.817C84.8172 193.221 85.3811 198.595 85.4194 204.103C85.4246 204.889 84.1439 205.098 84.0187 204.293C83.1869 198.935 82.39 193.571 81.5519 188.215C81.1302 185.521 80.6394 182.837 80.1698 180.151M91.7684 176.352C91.6733 176.038 92.1292 175.933 92.2458 176.22C94.8372 182.583 95.7148 189.795 94.0511 196.509C93.7965 197.536 92.2929 197.091 92.485 196.077M125.195 170.697C125.181 170.463 125.486 170.426 125.601 170.587C126.829 172.318 127.338 174.636 129.492 175.53C130.568 175.977 131.778 175.899 132.728 176.653C133.364 177.158 133.851 177.954 133.374 178.718C133.22 178.965 132.79 179.089 132.581 178.82C132.276 178.43 132.115 177.962 131.701 177.669C131.117 177.256 130.33 177.23 129.661 177.036C128.795 176.785 128.032 176.345 127.407 175.692M145.708 141.83C145.835 141.766 145.956 141.807 146.037 141.916C146.153 142.072 146.139 142.224 145.997 142.331C146.186 142.718 146.409 143.686 146.441 143.827C146.571 144.398 146.708 144.966 146.852 145.534C147.142 146.679 147.397 147.833 147.687 148.978C147.995 150.192 148.362 151.393 148.771 152.577C148.797 152.654 148.826 152.732 148.856 152.811L148.903 152.931L148.914 152.913C148.997 152.782 149.17 152.874 149.15 153.012C149.131 153.139 149.105 153.264 149.083 153.391L149.126 153.504C149.393 154.223 149.576 154.981 149.086 155.615C148.903 155.853 148.701 155.993 148.45 156.035C148.047 157.365 147.541 158.669 146.999 159.922L146.841 160.288C146.044 162.116 145.195 163.92 143.926 165.477C142.542 167.176 140.637 168.336 139.431 170.198C138.87 171.064 138.48 171.975 138.163 172.953L138.043 173.325C137.819 174.016 137.559 174.687 136.91 175.093C136.703 175.222 136.393 175.181 136.226 175.004C134.896 173.597 136.288 170.968 137.091 169.605C138.206 167.709 139.82 166.497 141.436 165.067C143.178 163.526 144.289 161.464 145.363 159.432C146.022 158.188 146.657 156.917 147.326 155.667C146.627 155.049 146.403 153.821 146.167 152.968L146.145 152.891C145.753 151.524 145.443 150.122 145.246 148.714C145.057 147.36 144.978 146.026 145.028 144.664L145.043 144.317M148.307 148.275C148.153 148.063 148.409 147.823 148.62 147.867C149.909 148.134 151.168 148.914 152.325 149.545L152.448 149.612C153.371 150.109 154.3 150.719 154.785 151.687C155.312 152.738 155.268 153.949 155.196 155.092L155.19 155.199C155.102 156.569 155.087 157.992 154.798 159.338C154.649 160.026 154.026 160.22 153.493 160.058C152.858 162.061 151.077 163.537 149.775 165.118C148.116 167.134 148.428 169.855 148.602 172.282C148.672 173.265 147.45 173.544 146.821 173.02L145.37 171.815C145.129 171.613 144.888 171.412 144.647 171.21C144.441 171.036 144.237 170.861 144.034 170.684L143.732 170.417C143.598 170.297 143.006 169.636 142.833 169.608C142.414 169.542 141.418 170.647 141.077 170.993L141.034 171.037C140.393 171.666 139.813 172.343 139.273 173.061C139.174 173.192 138.98 173.083 139.051 172.931C139.535 171.894 140.097 170.903 140.765 169.976L140.9 169.791C141.344 169.192 141.94 168.134 142.725 167.958C143.682 167.742 144.638 168.702 145.335 169.236L145.379 169.269C145.711 169.518 146.038 169.771 146.365 170.026C146.331 168.219 146.559 166.393 147.492 164.835C148.15 163.737 149.135 162.923 149.978 161.979C150.917 160.928 151.407 159.636 152.257 158.542C152.366 158.401 152.517 158.325 152.68 158.301C152.713 157.421 152.843 156.532 152.943 155.662L152.972 155.401C153.073 154.456 153.312 153.3 152.849 152.415C152.412 151.578 151.409 150.987 150.666 150.42L150.059 149.949M106.494 138.274C106.107 138.498 105.744 138.777 105.415 139.126C104.38 140.225 103.639 141.593 102.919 142.908C102.531 143.617 102.157 144.333 101.766 145.04C101.596 145.347 101.421 145.651 101.244 145.955C101.162 146.095 100.919 146.373 100.799 146.544C100.933 146.732 101.071 146.917 101.212 147.099C101.266 147.169 104.98 151.217 106.275 152.801C108.258 155.227 110.03 157.79 111.545 160.534C113.028 163.22 114.158 166.064 115.532 168.803C116.22 170.174 116.988 171.535 117.967 172.722C118.005 172.768 118.045 172.812 118.084 172.857C118.457 171.847 119.415 170.766 119.885 170.145L119.929 170.086C120.996 168.648 122.123 167.253 123.274 165.881C124.325 164.629 125.403 163.404 126.507 162.199L126.922 161.748C127.691 160.917 128.668 159.673 129.794 159.079C129.674 158.864 129.534 158.651 129.374 158.441C128.319 157.062 126.827 156.061 125.356 155.158L124.401 154.577C120.804 152.384 117.262 150.089 114.139 147.239C112.487 145.732 110.857 144.152 109.468 142.393L108.977 141.772M112.497 137.188C110.812 137.329 108.993 137.296 107.436 137.845C108.82 139.154 110.136 140.567 111.487 141.898C111.608 140.998 111.853 140.109 112.062 139.231" fill="black"/>
<path fill-rule="evenodd" clip-rule="evenodd" d="M129.727 53.9492C141.723 53.9492 154.131 63.2512 158.528 69.187C162.225 74.1775 164.215 96.7446 164.215 111.996C164.215 115.185 165.975 121.198 165.461 124.249C163.58 135.429 155.382 144.806 139.157 144.806C122.932 144.806 111.299 138.372 99.2393 121.098C93.3879 121.098 90.552 116.609 90.5108 109.525C90.4697 102.44 96.1589 99.863 96.1589 99.863C96.1589 99.863 94.1304 71.9058 99.2393 64.6271C104.348 57.3483 117.731 53.9492 129.727 53.9492Z" fill="white"/>
<path fill-rule="evenodd" clip-rule="evenodd" d="M124.679 49.9962C132.253 49.229 139.675 49.8736 147.139 51.2074C147.709 51.3108 148.032 51.6851 148.153 52.135C151.668 52.2957 155.188 52.5537 158.699 52.7461C159.973 52.8158 160.696 54.0752 160.115 55.2125C159.999 55.4384 159.878 55.6582 159.755 55.8781L159.909 55.8273C160.966 55.4883 162.106 55.3212 163.136 55.8592C164.446 56.544 164.959 58.055 164.67 59.4456C164.596 59.8007 164.471 60.141 164.33 60.473C164.617 60.454 164.906 60.4603 165.194 60.4984C166.723 60.7013 167.86 61.8743 167.94 63.4362C168.058 65.7946 166.539 68.1873 164.75 69.8758C165.01 70.4107 165.109 71.0405 165.001 71.6788C164.786 72.9406 163.857 73.6961 162.779 74.189C163.229 75.6158 163.441 77.1076 163.316 78.632C163.274 79.141 162.829 79.5613 162.359 79.6645C164.11 84.4862 164.996 89.663 165.633 94.7073C166.087 98.2963 166.311 101.906 166.338 105.522C166.352 107.155 166.325 108.789 166.256 110.422L166.229 111.034C166.144 112.799 166.14 114.652 165.823 116.398C166.905 118.239 167.34 120.524 167.524 122.587C167.752 125.14 167.391 127.773 166.586 130.202C163.548 139.378 154.379 145.169 145.169 146.674C136.645 148.067 126.781 146.192 121.799 138.446C121.721 138.324 121.888 138.222 121.985 138.303C125.549 141.202 129.684 142.496 134.175 143.126C141.942 144.212 150.671 142.369 156.903 137.483C159.895 135.137 162.052 131.721 163.001 128.046C163.484 126.167 163.651 124.208 163.461 122.274C163.267 120.313 162.399 118.639 161.851 116.785C161.668 116.159 161.862 115.578 162.244 115.164C162.352 113.659 162.606 112.142 162.703 110.641C162.81 108.935 162.876 107.23 162.899 105.522C162.944 101.98 162.796 98.4313 162.498 94.9041C161.953 88.445 160.506 82.1428 159.656 75.7386C159.342 76.0208 158.891 76.1366 158.419 75.8901L158.37 75.8633L158.112 75.7156C158.097 75.7156 158.08 75.7177 158.065 75.7196C156.301 75.891 154.472 75.6459 152.782 75.1194C151.013 74.5701 149.372 73.7247 147.905 72.5982C147.627 74.0119 147.51 75.4406 147.508 76.882C147.506 77.7824 146.553 78.2497 145.797 77.865C142.444 76.1613 139.242 74.1981 136.201 71.9916C135.846 73.8113 135.492 75.6309 135.134 77.4527C134.997 78.1546 134.103 78.4378 133.531 78.1039C131.253 76.7785 129.287 75.0435 127.685 72.9805C127.365 73.5922 127.045 74.2037 126.722 74.8139L126.236 75.7281C125.756 76.6263 125.114 77.6199 124.064 77.9071C122.953 78.2114 122.025 77.4909 121.651 76.4847C121.537 76.1721 121.432 75.8507 121.334 75.5273C120.388 77.6896 119.319 79.8031 118.111 81.8194C116.298 84.8436 114.122 87.5383 111.952 90.3028C111.293 91.1421 110.165 90.3408 110.074 89.5252C110.021 89.0455 109.977 88.5636 109.938 88.0836C108.674 90.6359 107.355 93.1643 105.918 95.6193L106.124 96.426V96.426C106.717 98.8096 107.209 101.21 107.744 103.606C107.917 104.38 107.507 105.485 106.604 105.617C105.525 105.774 104.504 106.325 103.399 105.946C102.194 105.532 101.956 104.49 101.388 103.503C101.274 103.306 101.142 103.125 101 102.954L100.964 103.001V103.001C100.875 103.117 100.664 102.99 100.717 102.857L100.779 102.703V102.703C100.29 102.184 99.7053 101.752 99.1676 101.286C97.8899 101.071 96.4526 101.307 95.5723 101.826C93.5673 103.009 92.6464 105.448 92.6274 107.691C92.6042 110.316 93.4173 113.266 94.7906 115.511C95.395 116.498 96.2232 117.389 97.3173 117.827C98.4035 118.262 99.5802 118.127 100.685 118.537C101.416 118.81 101.866 119.622 101.425 120.357C101.395 120.408 101.361 120.454 101.329 120.503L101.658 120.939C101.884 121.241 102.12 121.565 102.339 121.902C102.901 122.549 103.493 123.172 104.065 123.808C105.124 124.981 106.151 126.186 107.192 127.376C108.175 128.498 109.214 129.553 110.285 130.59C111.297 131.573 112.561 132.4 113.49 133.448C114.394 134.471 114.639 136.257 113.152 136.849C111.506 137.505 110.049 135.967 108.942 134.941L108.895 134.898C106.864 133.028 105.031 130.892 103.574 128.54C102.132 129.522 100.045 129.616 98.6088 128.634C97.8529 128.117 97.273 127.249 96.9912 126.304C96.7254 126.364 96.4598 126.398 96.2008 126.394C96.0675 126.472 95.9338 126.547 95.7985 126.617C94.7272 127.175 93.4112 126.926 92.9211 125.74C92.4748 124.663 92.9347 123.441 93.3367 122.403L93.4197 122.189C93.6478 121.598 93.8992 120.953 94.2119 120.346C93.3415 119.691 92.5976 118.877 91.9683 117.952C89.8535 114.834 88.7971 110.275 89.264 106.556C89.545 104.311 90.599 101.986 92.3251 100.473L92.2619 100.308V100.308C91.7781 99.0804 91.3385 97.848 91.0535 96.5505C90.7197 95.033 90.5568 93.4606 90.4091 91.9156C90.0964 88.6524 90.1809 85.3151 90.5971 82.0646C91.3788 75.946 93.3605 69.9394 96.8781 64.848C95.8807 63.6536 95.0908 62.2482 95.5026 60.6315C95.6908 59.8895 96.1195 59.1859 96.7662 58.7609C97.123 58.5265 97.5478 58.4906 97.9049 58.2961L98.0122 58.237C98.1691 58.1454 98.0491 58.1551 97.9556 57.7297C97.5859 56.0302 97.8922 54.3882 99.7619 53.8239C101.522 53.2935 103.187 54.4199 104.228 55.762C106.953 53.828 110.545 52.8158 113.703 51.9556C117.295 50.9811 120.979 50.3726 124.679 49.9962ZM95.2409 106.997C95.228 105.613 96.54 104.759 97.831 104.986C98.6979 105.136 99.4211 105.654 100.1 106.189L100.431 106.451C101.258 107.101 102.208 107.801 102.701 108.72C103.423 110.077 101.896 111.903 100.47 110.952C99.4915 110.296 98.8645 109.245 98.2228 108.269L98.1564 108.168C97.8648 107.731 97.6092 107.266 97.2097 106.915L97.1234 106.839C96.9921 106.727 96.8511 106.625 96.6815 106.577C96.3544 106.483 95.7485 106.614 95.6042 107.004L95.5914 107.044C95.5386 107.241 95.243 107.198 95.2409 106.997Z" fill="black"/>
<path fill-rule="evenodd" clip-rule="evenodd" d="M143.969 126.92C142.549 126.34 141.282 125.373 140.355 124.138C140.033 123.709 139.95 123.256 140.017 122.841C140.093 122.375 140.369 121.952 140.745 121.669C141.122 121.384 141.594 121.244 142.05 121.316C142.447 121.378 142.841 121.595 143.154 122.045L143.219 122.135C143.77 122.881 144.487 123.492 145.305 123.886C146.093 124.266 146.975 124.444 147.887 124.341C149.624 124.144 150.822 123.204 152.095 121.928C152.253 121.767 152.41 121.6 152.569 121.432C152.669 121.278 152.808 121.18 152.963 121.128C153.134 121.071 153.328 121.074 153.506 121.136C153.677 121.196 153.83 121.309 153.933 121.46C154.03 121.604 154.085 121.781 154.068 121.984C153.951 123.307 153.26 124.488 152.278 125.415C151.187 126.444 149.741 127.157 148.38 127.406C146.881 127.682 145.353 127.485 143.969 126.92V126.92ZM149.088 106.512C150.683 107.482 153.114 109.744 151.398 112.149C149.377 114.27 146.469 111.838 145.035 110.739C143.706 109.887 142.213 112.078 143.446 113.074C153.803 120.745 158.006 106.766 149.894 105.371C149.001 105.218 148.67 106.212 149.088 106.512ZM130.527 97.5886C130.704 95.3998 134.036 94.9028 134.367 97.0687C134.664 99.0089 134.315 100.791 133.441 102.538C132.607 104.207 130.509 103.428 130.35 101.909C130.137 99.8717 130.418 98.9502 130.527 97.5886ZM155.893 96.6196C156.358 96.0109 157.028 95.5954 157.832 95.8302C160.343 96.5642 159.603 100.13 158.721 101.866C158.242 102.809 156.693 103.048 155.993 102.218C154.852 100.864 154.306 98.1614 155.756 96.8282C155.796 96.7593 155.839 96.6898 155.893 96.6196ZM133.406 88.0111L133.803 87.9417C135.03 87.7294 136.555 87.5254 137.423 88.5122C137.884 89.0355 138.042 90.0082 137.423 90.5091C136.335 91.3904 135.131 91.0488 133.827 91.1234C132.752 91.1852 131.719 91.3631 130.684 91.6592C128.412 92.3087 126.561 93.4944 124.621 94.7963C124.366 94.9671 124.107 94.6414 124.228 94.4032C125.348 92.2087 127.518 90.4061 129.692 89.3073C130.853 88.7208 132.122 88.2343 133.406 88.0111ZM153.604 87.0281L153.908 87.0902C157.211 87.7811 161.504 89.161 163.068 92.4073C163.128 92.8663 163.065 92.9647 163.013 93.0289L162.996 93.0503C162.954 93.1052 162.92 93.1809 162.722 93.2434C162.666 93.2302 162.611 93.2163 162.554 93.2015C161.837 93.0135 161.27 92.7545 160.721 92.4858L160.125 92.1922C159.434 91.8533 158.737 91.5267 157.998 91.2856C156.422 90.7712 154.8 90.4088 153.153 90.2153C152.797 90.1734 152.453 90.0529 152.182 89.8464C151.924 89.6504 151.728 89.379 151.638 89.0182C151.522 88.5513 151.555 88.1978 151.806 87.7766C151.994 87.4603 152.263 87.2411 152.573 87.1152C152.888 86.9868 153.247 86.9566 153.604 87.0281Z" fill="black"/>
<path fill-rule="evenodd" clip-rule="evenodd" d="M171.625 101.261C169.61 114.891 155.55 116.398 153.051 102.867C153.452 102.692 153.741 102.346 153.681 101.675C153.666 98.726 154.581 95.6094 157.24 93.9695C159.988 92.2775 163.204 92.1096 166.384 92.1523C172.452 92.0078 172.324 97.0817 171.625 101.261M150.85 95.3336C148.946 95.2533 146.537 95.3205 144.831 96.4812C144.362 95.2178 143.143 93.8687 141.912 93.1474C146.488 93.2814 151.199 92.8308 155.81 92.481C154.706 93.2336 153.679 94.3643 153.012 95.6715C152.393 95.3412 151.506 95.372 150.85 95.3336M142.456 102.706C137.175 120.89 123.994 112.964 122.557 110.634C119.965 106.778 119.478 97.4035 121.735 94.8971C124.967 92.6306 129.543 93.2139 133.361 93.1584C140.375 93.253 145.357 95.3522 142.456 102.706M177.86 94.343C176.425 94.1553 174.892 94.1175 173.558 94.7494C173.147 93.003 171.858 91.543 170.402 90.9005C170.226 90.6794 170.252 90.5607 169.65 90.5938C165.954 89.4826 161.818 90.0705 158.266 91.2101C152.657 91.6827 146.771 92.0553 141.115 92.7065C135.816 90.3258 119.824 89.9769 118.83 95.8446C117.58 95.6576 115.451 94.6733 114.401 96.0084C106.696 94.7016 98.7343 96.5178 90.9958 97.3266C89.0479 97.6855 88.0446 101.553 90.2557 101.5C91.4988 101.162 90.2175 99.0918 91.8913 98.936C99.3577 98.1202 106.661 96.9629 114.204 96.8274C113.941 98.1304 119.193 98.2151 119.27 97.4543C119.281 97.46 119.293 97.4638 119.305 97.4689C118.007 102.307 119.178 109.269 121.523 112.269C124.809 116.197 133.058 117.324 136.716 114.797C141.434 112.464 146.342 100.755 144.963 96.8646C147.466 96.0712 149.939 96.3094 152.536 96.7135C151.942 98.3935 150.915 102.529 152.392 102.888C152.121 111.099 159.591 116.222 166.477 112.854C172.437 110.055 174.521 101.196 173.792 95.8182C174.534 97.2524 180.764 95.691 177.86 94.343" fill="black"/>
</svg>
